<svg xmlns="http://www.w3.org/2000/svg" height="591.6pt" version="1.1" viewBox="1 1 591.6 591.6" width="591.6pt">
<g id="surface1">
<path d="M 592 530.757812 L 224.550781 530.757812 L 224.550781 0 L 489.929688 0 L 592 102.070312 Z M 592 530.757812 " style=" stroke:none;fill-rule:nonzero;fill:rgb(52.941176%,80.784314%,85.098039%);fill-opacity:1;" />
<path d="M 489.929688 0 L 489.929688 102.070312 L 592 102.070312 Z M 489.929688 0 " style=" stroke:none;fill-rule:nonzero;fill:rgb(72.54902%,90.196078%,92.941176%);fill-opacity:1;" />
<path d="M 275.585938 153.101562 L 398.070312 153.101562 C 403.703125 153.101562 408.277344 148.53125 408.277344 142.898438 L 408.277344 71.449219 C 408.277344 67.050781 405.46875 63.148438 401.292969 61.761719 L 340.054688 41.347656 C 337.960938 40.652344 335.695312 40.652344 333.601562 41.347656 L 272.359375 61.761719 C 268.1875 63.148438 265.378906 67.050781 265.378906 71.449219 L 265.378906 142.898438 C 265.378906 148.53125 269.953125 153.101562 275.585938 153.101562 Z M 285.792969 102.070312 L 306.207031 102.070312 L 306.207031 132.691406 L 285.792969 132.691406 Z M 347.035156 102.070312 L 347.035156 132.691406 L 326.621094 132.691406 L 326.621094 102.070312 Z M 367.449219 132.691406 L 367.449219 102.070312 L 387.863281 102.070312 L 387.863281 132.691406 Z M 285.792969 78.808594 L 336.828125 61.792969 L 387.863281 78.808594 L 387.863281 81.65625 L 285.792969 81.65625 Z M 285.792969 78.808594 " style=" stroke:none;fill-rule:nonzero;fill:rgb(36.862745%,70.196078%,81.960784%);fill-opacity:1;" />
<path d="M 540.964844 193.929688 L 275.585938 193.929688 C 269.953125 193.929688 265.378906 198.503906 265.378906 204.136719 L 265.378906 489.929688 C 265.378906 495.566406 269.953125 500.136719 275.585938 500.136719 L 540.964844 500.136719 C 546.597656 500.136719 551.171875 495.566406 551.171875 489.929688 L 551.171875 204.136719 C 551.171875 198.503906 546.597656 193.929688 540.964844 193.929688 Z M 530.757812 214.34375 L 530.757812 234.757812 L 459.308594 234.757812 L 459.308594 214.34375 Z M 438.898438 296 L 438.898438 316.414062 L 285.792969 316.414062 L 285.792969 296 Z M 285.792969 275.585938 L 285.792969 255.171875 L 438.898438 255.171875 L 438.898438 275.585938 Z M 438.898438 336.828125 L 438.898438 357.242188 L 285.792969 357.242188 L 285.792969 336.828125 Z M 438.898438 377.65625 L 438.898438 398.070312 L 285.792969 398.070312 L 285.792969 377.65625 Z M 438.898438 418.484375 L 438.898438 438.898438 L 285.792969 438.898438 L 285.792969 418.484375 Z M 459.308594 418.484375 L 530.757812 418.484375 L 530.757812 438.898438 L 459.308594 438.898438 Z M 459.308594 398.070312 L 459.308594 377.65625 L 530.757812 377.65625 L 530.757812 398.070312 Z M 459.308594 357.242188 L 459.308594 336.828125 L 530.757812 336.828125 L 530.757812 357.242188 Z M 459.308594 316.414062 L 459.308594 296 L 530.757812 296 L 530.757812 316.414062 Z M 459.308594 275.585938 L 459.308594 255.171875 L 530.757812 255.171875 L 530.757812 275.585938 Z M 438.898438 214.34375 L 438.898438 234.757812 L 285.792969 234.757812 L 285.792969 214.34375 Z M 285.792969 459.308594 L 438.898438 459.308594 L 438.898438 479.722656 L 285.792969 479.722656 Z M 459.308594 479.722656 L 459.308594 459.308594 L 530.757812 459.308594 L 530.757812 479.722656 Z M 459.308594 479.722656 " style=" stroke:none;fill-rule:nonzero;fill:rgb(36.862745%,70.196078%,81.960784%);fill-opacity:1;" />
<path d="M 428.691406 132.691406 L 540.964844 132.691406 L 540.964844 153.101562 L 428.691406 153.101562 Z M 428.691406 132.691406 " style=" stroke:none;fill-rule:nonzero;fill:rgb(36.862745%,70.196078%,81.960784%);fill-opacity:1;" />
<path d="M 428.691406 91.863281 L 459.308594 91.863281 L 459.308594 112.277344 L 428.691406 112.277344 Z M 428.691406 91.863281 " style=" stroke:none;fill-rule:nonzero;fill:rgb(36.862745%,70.196078%,81.960784%);fill-opacity:1;" />
<path d="M 0 551.171875 L 0 367.449219 C 0 344.902344 18.28125 326.621094 40.828125 326.621094 L 367.449219 326.621094 C 389.996094 326.621094 408.277344 344.902344 408.277344 367.449219 L 408.277344 551.171875 C 408.277344 573.71875 389.996094 592 367.449219 592 L 40.828125 592 C 18.28125 592 0 573.71875 0 551.171875 Z M 0 551.171875 " style=" stroke:none;fill-rule:nonzero;fill:rgb(26.27451%,59.607843%,81.960784%);fill-opacity:1;" />
<path d="M 367.449219 326.621094 L 102.070312 592 L 367.449219 592 C 389.996094 592 408.277344 573.71875 408.277344 551.171875 L 408.277344 367.449219 C 408.277344 344.902344 389.996094 326.621094 367.449219 326.621094 Z M 367.449219 326.621094 " style=" stroke:none;fill-rule:nonzero;fill:rgb(24.313725%,54.901961%,78.039216%);fill-opacity:1;" />
<path d="M 40.828125 367.449219 L 102.070312 367.449219 L 102.070312 428.691406 L 40.828125 428.691406 Z M 40.828125 367.449219 " style=" stroke:none;fill-rule:nonzero;fill:rgb(100%,63.529412%,18.823529%);fill-opacity:1;" />
<path d="M 40.828125 459.308594 L 81.65625 459.308594 L 81.65625 479.722656 L 40.828125 479.722656 Z M 40.828125 459.308594 " style=" stroke:none;fill-rule:nonzero;fill:rgb(36.862745%,70.196078%,81.960784%);fill-opacity:1;" />
<path d="M 40.828125 500.136719 L 81.65625 500.136719 L 81.65625 520.550781 L 40.828125 520.550781 Z M 40.828125 500.136719 " style=" stroke:none;fill-rule:nonzero;fill:rgb(36.862745%,70.196078%,81.960784%);fill-opacity:1;" />
<path d="M 224.550781 500.136719 L 265.378906 500.136719 L 265.378906 520.550781 L 224.550781 520.550781 Z M 224.550781 500.136719 " style=" stroke:none;fill-rule:nonzero;fill:rgb(36.862745%,70.196078%,81.960784%);fill-opacity:1;" />
<path d="M 102.070312 459.308594 L 142.898438 459.308594 L 142.898438 479.722656 L 102.070312 479.722656 Z M 102.070312 459.308594 " style=" stroke:none;fill-rule:nonzero;fill:rgb(36.862745%,70.196078%,81.960784%);fill-opacity:1;" />
<path d="M 163.308594 459.308594 L 204.136719 459.308594 L 204.136719 479.722656 L 163.308594 479.722656 Z M 163.308594 459.308594 " style=" stroke:none;fill-rule:nonzero;fill:rgb(36.862745%,70.196078%,81.960784%);fill-opacity:1;" />
<path d="M 224.550781 459.308594 L 265.378906 459.308594 L 265.378906 479.722656 L 224.550781 479.722656 Z M 224.550781 459.308594 " style=" stroke:none;fill-rule:nonzero;fill:rgb(36.862745%,70.196078%,81.960784%);fill-opacity:1;" />
<path d="M 285.792969 459.308594 L 326.621094 459.308594 L 326.621094 479.722656 L 285.792969 479.722656 Z M 285.792969 459.308594 " style=" stroke:none;fill-rule:nonzero;fill:rgb(36.862745%,70.196078%,81.960784%);fill-opacity:1;" />
<path d="M 347.035156 367.449219 L 367.449219 367.449219 L 367.449219 387.863281 L 347.035156 387.863281 Z M 347.035156 367.449219 " style=" stroke:none;fill-rule:nonzero;fill:rgb(36.862745%,70.196078%,81.960784%);fill-opacity:1;" />
<path d="M 306.207031 367.449219 L 326.621094 367.449219 L 326.621094 387.863281 L 306.207031 387.863281 Z M 306.207031 367.449219 " style=" stroke:none;fill-rule:nonzero;fill:rgb(36.862745%,70.196078%,81.960784%);fill-opacity:1;" />
<path d="M 265.378906 367.449219 L 285.792969 367.449219 L 285.792969 387.863281 L 265.378906 387.863281 Z M 265.378906 367.449219 " style=" stroke:none;fill-rule:nonzero;fill:rgb(36.862745%,70.196078%,81.960784%);fill-opacity:1;" />
<path d="M 224.550781 367.449219 L 244.964844 367.449219 L 244.964844 387.863281 L 224.550781 387.863281 Z M 224.550781 367.449219 " style=" stroke:none;fill-rule:nonzero;fill:rgb(36.862745%,70.196078%,81.960784%);fill-opacity:1;" />
<path d="M 296 510.34375 L 367.449219 510.34375 L 367.449219 551.171875 L 296 551.171875 Z M 296 510.34375 " style=" stroke:none;fill-rule:nonzero;fill:rgb(52.941176%,80.784314%,85.098039%);fill-opacity:1;" />
<path d="M 428.691406 367.449219 C 428.691406 344.902344 410.410156 326.621094 387.863281 326.621094 L 367.449219 326.621094 C 389.996094 326.621094 408.277344 344.902344 408.277344 367.449219 L 408.277344 530.757812 L 428.691406 530.757812 Z M 428.691406 367.449219 " style=" stroke:none;fill-rule:nonzero;fill:rgb(36.862745%,70.196078%,81.960784%);fill-opacity:1;" />
</g>
</svg>