<svg xmlns="http://www.w3.org/2000/svg" height="591pt" version="1.1" viewBox="1 1 591 591.60003" width="591pt">
<g id="surface1">
<path d="M 71.75 163.308594 L 592.300781 163.308594 L 592.300781 449.101562 L 71.75 449.101562 Z M 71.75 163.308594 " style=" stroke:none;fill-rule:nonzero;fill:rgb(26.27451%,59.607843%,81.960784%);fill-opacity:1;" />
<path d="M 71.75 122.484375 L 592.300781 122.484375 L 592.300781 408.277344 L 71.75 408.277344 Z M 71.75 122.484375 " style=" stroke:none;fill-rule:nonzero;fill:rgb(36.862745%,70.196078%,81.960784%);fill-opacity:1;" />
<path d="M 71.75 81.65625 L 551.472656 81.65625 L 551.472656 329.355469 C 551.472656 350.394531 534.417969 367.449219 513.378906 367.449219 L 71.75 367.449219 Z M 71.75 81.65625 " style=" stroke:none;fill-rule:nonzero;fill:rgb(52.941176%,80.784314%,85.098039%);fill-opacity:1;" />
<path d="M 551.472656 326.621094 C 551.472656 304.074219 533.191406 285.792969 510.644531 285.792969 L 490.230469 285.792969 L 490.230469 0 L 510.644531 0 C 533.191406 0 551.472656 18.28125 551.472656 40.828125 Z M 551.472656 326.621094 " style=" stroke:none;fill-rule:nonzero;fill:rgb(92.156863%,92.156863%,92.156863%);fill-opacity:1;" />
<path d="M 0.300781 40.828125 L 71.75 40.828125 L 71.75 449.101562 L 0.300781 449.101562 Z M 0.300781 40.828125 " style=" stroke:none;fill-rule:nonzero;fill:rgb(52.941176%,80.784314%,85.098039%);fill-opacity:1;" />
<path d="M 0.300781 367.449219 L 71.75 367.449219 L 71.75 408.277344 L 0.300781 408.277344 Z M 0.300781 367.449219 " style=" stroke:none;fill-rule:nonzero;fill:rgb(36.862745%,70.196078%,81.960784%);fill-opacity:1;" />
<path d="M 0.300781 408.277344 L 71.75 408.277344 L 71.75 449.101562 L 0.300781 449.101562 Z M 0.300781 408.277344 " style=" stroke:none;fill-rule:nonzero;fill:rgb(26.27451%,59.607843%,81.960784%);fill-opacity:1;" />
<path d="M 81.957031 561.378906 L 132.988281 592 L 132.988281 530.757812 Z M 81.957031 561.378906 " style=" stroke:none;fill-rule:nonzero;fill:rgb(7.058824%,37.647059%,60%);fill-opacity:1;" />
<path d="M 480.023438 530.757812 L 132.988281 530.757812 L 132.988281 592 L 480.023438 592 C 496.9375 592 510.644531 578.292969 510.644531 561.378906 C 510.644531 544.46875 496.9375 530.757812 480.023438 530.757812 Z M 480.023438 530.757812 " style=" stroke:none;fill-rule:nonzero;fill:rgb(26.27451%,59.607843%,81.960784%);fill-opacity:1;" />
<path d="M 153.402344 173.515625 L 132.988281 173.515625 C 127.355469 173.515625 122.78125 168.945312 122.78125 163.308594 C 122.78125 157.675781 127.355469 153.101562 132.988281 153.101562 L 173.816406 153.101562 L 173.816406 132.691406 L 153.402344 132.691406 L 153.402344 122.484375 L 132.988281 122.484375 L 132.988281 132.691406 C 116.078125 132.691406 102.367188 146.398438 102.367188 163.308594 C 102.367188 180.222656 116.078125 193.929688 132.988281 193.929688 L 153.402344 193.929688 C 159.039062 193.929688 163.609375 198.503906 163.609375 204.136719 C 163.609375 209.773438 159.039062 214.34375 153.402344 214.34375 L 112.574219 214.34375 L 112.574219 234.757812 L 132.988281 234.757812 L 132.988281 244.964844 L 153.402344 244.964844 L 153.402344 234.757812 C 170.316406 234.757812 184.023438 221.050781 184.023438 204.136719 C 184.023438 187.226562 170.316406 173.515625 153.402344 173.515625 Z M 153.402344 173.515625 " style=" stroke:none;fill-rule:nonzero;fill:rgb(100%,100%,100%);fill-opacity:1;" />
<path d="M 112.574219 265.378906 L 459.609375 265.378906 L 459.609375 285.792969 L 112.574219 285.792969 Z M 112.574219 265.378906 " style=" stroke:none;fill-rule:nonzero;fill:rgb(36.862745%,70.196078%,81.960784%);fill-opacity:1;" />
<path d="M 214.644531 214.34375 L 459.609375 214.34375 L 459.609375 234.757812 L 214.644531 234.757812 Z M 214.644531 214.34375 " style=" stroke:none;fill-rule:nonzero;fill:rgb(36.862745%,70.196078%,81.960784%);fill-opacity:1;" />
<path d="M 326.921875 132.691406 L 459.609375 132.691406 L 459.609375 153.101562 L 326.921875 153.101562 Z M 326.921875 132.691406 " style=" stroke:none;fill-rule:nonzero;fill:rgb(36.862745%,70.196078%,81.960784%);fill-opacity:1;" />
<path d="M 326.921875 173.515625 L 459.609375 173.515625 L 459.609375 193.929688 L 326.921875 193.929688 Z M 326.921875 173.515625 " style=" stroke:none;fill-rule:nonzero;fill:rgb(36.862745%,70.196078%,81.960784%);fill-opacity:1;" />
<path d="M 112.574219 316.414062 L 132.988281 316.414062 L 132.988281 336.828125 L 112.574219 336.828125 Z M 112.574219 316.414062 " style=" stroke:none;fill-rule:nonzero;fill:rgb(36.862745%,70.196078%,81.960784%);fill-opacity:1;" />
<path d="M 153.402344 316.414062 L 173.816406 316.414062 L 173.816406 336.828125 L 153.402344 336.828125 Z M 153.402344 316.414062 " style=" stroke:none;fill-rule:nonzero;fill:rgb(36.862745%,70.196078%,81.960784%);fill-opacity:1;" />
<path d="M 194.230469 316.414062 L 214.644531 316.414062 L 214.644531 336.828125 L 194.230469 336.828125 Z M 194.230469 316.414062 " style=" stroke:none;fill-rule:nonzero;fill:rgb(36.862745%,70.196078%,81.960784%);fill-opacity:1;" />
<path d="M 235.058594 316.414062 L 255.472656 316.414062 L 255.472656 336.828125 L 235.058594 336.828125 Z M 235.058594 316.414062 " style=" stroke:none;fill-rule:nonzero;fill:rgb(36.862745%,70.196078%,81.960784%);fill-opacity:1;" />
<path d="M 316.714844 316.414062 L 337.128906 316.414062 L 337.128906 336.828125 L 316.714844 336.828125 Z M 316.714844 316.414062 " style=" stroke:none;fill-rule:nonzero;fill:rgb(36.862745%,70.196078%,81.960784%);fill-opacity:1;" />
<path d="M 357.542969 316.414062 L 377.957031 316.414062 L 377.957031 336.828125 L 357.542969 336.828125 Z M 357.542969 316.414062 " style=" stroke:none;fill-rule:nonzero;fill:rgb(36.862745%,70.196078%,81.960784%);fill-opacity:1;" />
<path d="M 398.367188 316.414062 L 418.78125 316.414062 L 418.78125 336.828125 L 398.367188 336.828125 Z M 398.367188 316.414062 " style=" stroke:none;fill-rule:nonzero;fill:rgb(36.862745%,70.196078%,81.960784%);fill-opacity:1;" />
<path d="M 439.195312 316.414062 L 459.609375 316.414062 L 459.609375 336.828125 L 439.195312 336.828125 Z M 439.195312 316.414062 " style=" stroke:none;fill-rule:nonzero;fill:rgb(36.862745%,70.196078%,81.960784%);fill-opacity:1;" />
<path d="M 71.75 81.65625 L 92.160156 81.65625 L 92.160156 367.449219 L 71.75 367.449219 Z M 71.75 81.65625 " style=" stroke:none;fill-rule:nonzero;fill:rgb(36.862745%,70.196078%,81.960784%);fill-opacity:1;" />
<path d="M 490.230469 592 L 469.816406 592 L 469.816406 506.261719 C 469.816406 502.882812 467.070312 500.136719 463.691406 500.136719 L 296.300781 500.136719 L 296.300781 479.722656 L 463.691406 479.722656 C 478.351562 479.722656 490.230469 491.605469 490.230469 506.261719 Z M 490.230469 592 " style=" stroke:none;fill-rule:nonzero;fill:rgb(7.058824%,37.647059%,60%);fill-opacity:1;" />
<path d="M 296.300781 530.757812 L 316.714844 530.757812 L 316.714844 592 L 296.300781 592 Z M 296.300781 530.757812 " style=" stroke:none;fill-rule:nonzero;fill:rgb(7.058824%,37.647059%,60%);fill-opacity:1;" />
<path d="M 71.75 367.449219 L 92.160156 367.449219 L 92.160156 408.277344 L 71.75 408.277344 Z M 71.75 367.449219 " style=" stroke:none;fill-rule:nonzero;fill:rgb(34.901961%,66.666667%,78.039216%);fill-opacity:1;" />
<path d="M 71.75 408.277344 L 92.160156 408.277344 L 92.160156 449.101562 L 71.75 449.101562 Z M 71.75 408.277344 " style=" stroke:none;fill-rule:nonzero;fill:rgb(20.784314%,50.980392%,74.117647%);fill-opacity:1;" />
</g>
</svg>