<svg xmlns="http://www.w3.org/2000/svg" height="601pt" version="1.1" viewBox="-51 1 601 601.8" width="601pt">
<g id="surface1">
<path d="M 41.230469 81.628906 C 37.742188 60.699219 21.34375 44.300781 0.417969 40.8125 C 21.34375 37.324219 37.742188 20.925781 41.230469 0 C 44.71875 20.925781 61.117188 37.324219 82.042969 40.8125 C 61.117188 44.300781 44.71875 60.699219 41.230469 81.628906 Z M 41.230469 81.628906 " style=" stroke:none;fill-rule:nonzero;fill:rgb(99.215686%,71.372549%,18.431373%);fill-opacity:1;" />
<path d="M 122.859375 0 L 408.550781 0 L 408.550781 510.167969 L 122.859375 510.167969 Z M 122.859375 0 " style=" stroke:none;fill-rule:nonzero;fill:rgb(41.960784%,58.823529%,16.470588%);fill-opacity:1;" />
<path d="M 408.550781 550.984375 L 122.859375 550.984375 L 122.859375 40.8125 L 326.925781 40.8125 L 408.550781 122.441406 Z M 408.550781 550.984375 " style=" stroke:none;fill-rule:nonzero;fill:rgb(53.333333%,70.196078%,21.568627%);fill-opacity:1;" />
<path d="M 122.859375 477.007812 L 122.859375 550.984375 L 408.550781 550.984375 L 408.550781 191.3125 Z M 122.859375 477.007812 " style=" stroke:none;fill-rule:nonzero;fill:rgb(50.196078%,65.882353%,20.392157%);fill-opacity:1;" />
<path d="M 326.925781 510.167969 L 204.484375 510.167969 C 204.484375 487.628906 186.210938 469.355469 163.671875 469.355469 L 163.671875 122.441406 C 186.210938 122.441406 204.484375 104.167969 204.484375 81.628906 L 326.925781 81.628906 C 326.925781 104.167969 345.199219 122.441406 367.738281 122.441406 L 367.738281 469.355469 C 345.199219 469.355469 326.925781 487.628906 326.925781 510.167969 Z M 326.925781 510.167969 " style=" stroke:none;fill-rule:nonzero;fill:rgb(41.960784%,58.823529%,16.470588%);fill-opacity:1;" />
<path d="M 367.738281 295.898438 C 367.738281 250.816406 322.058594 214.269531 265.707031 214.269531 C 209.351562 214.269531 163.671875 250.816406 163.671875 295.898438 C 163.671875 340.980469 209.351562 377.527344 265.707031 377.527344 C 322.058594 377.527344 367.738281 340.980469 367.738281 295.898438 Z M 367.738281 295.898438 " style=" stroke:none;fill-rule:nonzero;fill:rgb(53.333333%,70.196078%,21.568627%);fill-opacity:1;" />
<path d="M 286.113281 153.050781 C 286.113281 164.320312 276.976562 173.457031 265.707031 173.457031 C 254.433594 173.457031 245.296875 164.320312 245.296875 153.050781 C 245.296875 141.78125 254.433594 132.644531 265.707031 132.644531 C 276.976562 132.644531 286.113281 141.78125 286.113281 153.050781 Z M 286.113281 153.050781 " style=" stroke:none;fill-rule:nonzero;fill:rgb(53.333333%,70.196078%,21.568627%);fill-opacity:1;" />
<path d="M 286.113281 438.746094 C 286.113281 450.015625 276.976562 459.152344 265.707031 459.152344 C 254.433594 459.152344 245.296875 450.015625 245.296875 438.746094 C 245.296875 427.476562 254.433594 418.339844 265.707031 418.339844 C 276.976562 418.339844 286.113281 427.476562 286.113281 438.746094 Z M 286.113281 438.746094 " style=" stroke:none;fill-rule:nonzero;fill:rgb(53.333333%,70.196078%,21.568627%);fill-opacity:1;" />
<path d="M 326.925781 40.8125 L 408.550781 122.441406 L 326.925781 122.441406 Z M 326.925781 40.8125 " style=" stroke:none;fill-rule:nonzero;fill:rgb(60%,78.823529%,24.313725%);fill-opacity:1;" />
<path d="M 475.140625 331.203125 L 408.550781 255.085938 L 408.550781 387.730469 L 342.230469 321.40625 C 327.914062 307.550781 305.070312 307.917969 291.214844 322.234375 C 277.675781 336.222656 277.675781 358.433594 291.214844 372.421875 L 377.941406 459.152344 L 369.542969 473.855469 C 349.972656 508.085938 353.3125 550.800781 377.941406 581.59375 L 377.941406 602 L 500.382812 602 L 500.382812 398.382812 C 500.382812 373.667969 491.414062 349.804688 475.140625 331.203125 Z M 475.140625 331.203125 " style=" stroke:none;fill-rule:nonzero;fill:rgb(100%,71.764706%,50.980392%);fill-opacity:1;" />
<path d="M 439.164062 428.542969 C 436.457031 428.542969 433.855469 427.472656 431.949219 425.550781 L 401.339844 394.941406 C 397.421875 390.890625 397.53125 384.433594 401.585938 380.515625 C 405.542969 376.699219 411.808594 376.699219 415.765625 380.515625 L 446.378906 411.125 C 450.355469 415.113281 450.355469 421.574219 446.378906 425.550781 C 444.457031 427.472656 441.867188 428.542969 439.164062 428.542969 Z M 439.164062 428.542969 " style=" stroke:none;fill-rule:nonzero;fill:rgb(94.901961%,64.313725%,43.529412%);fill-opacity:1;" />
</g>
</svg>