<svg xmlns="http://www.w3.org/2000/svg" height="591.6pt" version="1.1" viewBox="1 1 591.6 591.6" width="591.6pt">
<g id="surface1">
<path d="M 592 438.898438 L 61.242188 438.898438 L 61.242188 40.828125 L 592 40.828125 Z M 592 438.898438 " style=" stroke:none;fill-rule:nonzero;fill:rgb(87.058824%,29.803922%,23.529412%);fill-opacity:1;" />
<path d="M 551.171875 398.070312 L 326.621094 398.070312 L 326.621094 40.828125 C 332.621094 16.832031 354.179688 0 378.910156 0 L 551.171875 0 Z M 551.171875 398.070312 " style=" stroke:none;fill-rule:nonzero;fill:rgb(75.686275%,78.039216%,78.823529%);fill-opacity:1;" />
<path d="M 326.234375 398.070312 L 107.4375 398.070312 L 107.4375 10.207031 L 275.28125 10.207031 C 299.386719 10.207031 320.394531 26.621094 326.234375 50.015625 Z M 326.234375 398.070312 " style=" stroke:none;fill-rule:nonzero;fill:rgb(85.490196%,86.666667%,87.45098%);fill-opacity:1;" />
<path d="M 551.171875 398.070312 L 326.621094 398.070312 L 326.621094 40.828125 C 332.621094 16.832031 354.179688 0 378.910156 0 L 469.515625 0 L 551.171875 81.65625 Z M 551.171875 398.070312 " style=" stroke:none;fill-rule:nonzero;fill:rgb(85.490196%,86.666667%,87.45098%);fill-opacity:1;" />
<path d="M 469.515625 0 L 551.171875 81.65625 L 469.515625 81.65625 Z M 469.515625 0 " style=" stroke:none;fill-rule:nonzero;fill:rgb(92.156863%,92.156863%,92.156863%);fill-opacity:1;" />
<path d="M 316.414062 40.828125 L 336.828125 40.828125 L 336.828125 398.070312 L 316.414062 398.070312 Z M 316.414062 40.828125 " style=" stroke:none;fill-rule:nonzero;fill:rgb(75.686275%,78.039216%,78.823529%);fill-opacity:1;" />
<path d="M 132.691406 71.449219 L 296 71.449219 L 296 91.863281 L 132.691406 91.863281 Z M 132.691406 71.449219 " style=" stroke:none;fill-rule:nonzero;fill:rgb(75.686275%,78.039216%,78.823529%);fill-opacity:1;" />
<path d="M 255.171875 132.691406 L 296 132.691406 L 296 153.101562 L 255.171875 153.101562 Z M 255.171875 132.691406 " style=" stroke:none;fill-rule:nonzero;fill:rgb(75.686275%,78.039216%,78.823529%);fill-opacity:1;" />
<path d="M 132.691406 132.691406 L 234.757812 132.691406 L 234.757812 153.101562 L 132.691406 153.101562 Z M 132.691406 132.691406 " style=" stroke:none;fill-rule:nonzero;fill:rgb(75.686275%,78.039216%,78.823529%);fill-opacity:1;" />
<path d="M 255.171875 193.929688 L 296 193.929688 L 296 214.34375 L 255.171875 214.34375 Z M 255.171875 193.929688 " style=" stroke:none;fill-rule:nonzero;fill:rgb(75.686275%,78.039216%,78.823529%);fill-opacity:1;" />
<path d="M 132.691406 193.929688 L 234.757812 193.929688 L 234.757812 214.34375 L 132.691406 214.34375 Z M 132.691406 193.929688 " style=" stroke:none;fill-rule:nonzero;fill:rgb(75.686275%,78.039216%,78.823529%);fill-opacity:1;" />
<path d="M 479.722656 132.691406 L 520.550781 132.691406 L 520.550781 153.101562 L 479.722656 153.101562 Z M 479.722656 132.691406 " style=" stroke:none;fill-rule:nonzero;fill:rgb(75.686275%,78.039216%,78.823529%);fill-opacity:1;" />
<path d="M 357.242188 132.691406 L 459.308594 132.691406 L 459.308594 153.101562 L 357.242188 153.101562 Z M 357.242188 132.691406 " style=" stroke:none;fill-rule:nonzero;fill:rgb(75.686275%,78.039216%,78.823529%);fill-opacity:1;" />
<path d="M 479.722656 193.929688 L 520.550781 193.929688 L 520.550781 214.34375 L 479.722656 214.34375 Z M 479.722656 193.929688 " style=" stroke:none;fill-rule:nonzero;fill:rgb(75.686275%,78.039216%,78.823529%);fill-opacity:1;" />
<path d="M 357.242188 193.929688 L 459.308594 193.929688 L 459.308594 214.34375 L 357.242188 214.34375 Z M 357.242188 193.929688 " style=" stroke:none;fill-rule:nonzero;fill:rgb(75.686275%,78.039216%,78.823529%);fill-opacity:1;" />
<path d="M 479.722656 255.171875 L 520.550781 255.171875 L 520.550781 275.585938 L 479.722656 275.585938 Z M 479.722656 255.171875 " style=" stroke:none;fill-rule:nonzero;fill:rgb(75.686275%,78.039216%,78.823529%);fill-opacity:1;" />
<path d="M 357.242188 255.171875 L 459.308594 255.171875 L 459.308594 275.585938 L 357.242188 275.585938 Z M 357.242188 255.171875 " style=" stroke:none;fill-rule:nonzero;fill:rgb(75.686275%,78.039216%,78.823529%);fill-opacity:1;" />
<path d="M 479.722656 316.414062 L 520.550781 316.414062 L 520.550781 336.828125 L 479.722656 336.828125 Z M 479.722656 316.414062 " style=" stroke:none;fill-rule:nonzero;fill:rgb(75.686275%,78.039216%,78.823529%);fill-opacity:1;" />
<path d="M 357.242188 316.414062 L 459.308594 316.414062 L 459.308594 336.828125 L 357.242188 336.828125 Z M 357.242188 316.414062 " style=" stroke:none;fill-rule:nonzero;fill:rgb(75.686275%,78.039216%,78.823529%);fill-opacity:1;" />
<path d="M 357.242188 71.449219 L 438.898438 71.449219 L 438.898438 91.863281 L 357.242188 91.863281 Z M 357.242188 71.449219 " style=" stroke:none;fill-rule:nonzero;fill:rgb(75.686275%,78.039216%,78.823529%);fill-opacity:1;" />
<path d="M 40.828125 244.964844 L 367.449219 244.964844 L 367.449219 326.621094 L 40.828125 326.621094 C 18.28125 326.621094 0 308.339844 0 285.792969 C 0 263.246094 18.28125 244.964844 40.828125 244.964844 Z M 40.828125 244.964844 " style=" stroke:none;fill-rule:nonzero;fill:rgb(26.27451%,59.607843%,81.960784%);fill-opacity:1;" />
<path d="M 357.242188 408.277344 L 70.875 518.335938 L 0 316.414062 L 224.550781 183.722656 Z M 357.242188 408.277344 " style=" stroke:none;fill-rule:nonzero;fill:rgb(41.960784%,58.823529%,16.470588%);fill-opacity:1;" />
<path d="M 362.109375 473.632812 L 41.339844 520.304688 L 0 316.414062 L 306.207031 224.550781 Z M 362.109375 473.632812 " style=" stroke:none;fill-rule:nonzero;fill:rgb(50.196078%,65.882353%,20.392157%);fill-opacity:1;" />
<path d="M 367.449219 592 L 40.828125 592 C 18.28125 592 0 573.71875 0 551.171875 L 0 285.792969 C 0 308.339844 18.28125 326.621094 40.828125 326.621094 L 367.449219 326.621094 Z M 367.449219 592 " style=" stroke:none;fill-rule:nonzero;fill:rgb(45.882353%,27.45098%,18.039216%);fill-opacity:1;" />
<path d="M 76.050781 592 L 367.449219 592 L 367.449219 326.621094 L 307.535156 326.621094 C 254.976562 433.84375 175.148438 525.367188 76.050781 592 Z M 76.050781 592 " style=" stroke:none;fill-rule:nonzero;fill:rgb(41.960784%,25.098039%,16.470588%);fill-opacity:1;" />
<path d="M 408.277344 500.136719 L 326.621094 500.136719 C 298.441406 500.136719 275.585938 477.285156 275.585938 449.101562 C 275.585938 420.921875 298.441406 398.070312 326.621094 398.070312 L 408.277344 398.070312 Z M 408.277344 500.136719 " style=" stroke:none;fill-rule:nonzero;fill:rgb(52.941176%,32.54902%,22.352941%);fill-opacity:1;" />
<path d="M 347.035156 449.101562 C 347.035156 460.378906 337.894531 469.515625 326.621094 469.515625 C 315.347656 469.515625 306.207031 460.378906 306.207031 449.101562 C 306.207031 437.828125 315.347656 428.691406 326.621094 428.691406 C 337.894531 428.691406 347.035156 437.828125 347.035156 449.101562 Z M 347.035156 449.101562 " style=" stroke:none;fill-rule:nonzero;fill:rgb(36.078431%,21.568627%,14.117647%);fill-opacity:1;" />
<path d="M 520.550781 551.171875 C 520.550781 573.722656 502.273438 592 479.722656 592 C 457.175781 592 438.898438 573.722656 438.898438 551.171875 C 438.898438 528.625 457.175781 510.34375 479.722656 510.34375 C 502.273438 510.34375 520.550781 528.625 520.550781 551.171875 Z M 520.550781 551.171875 " style=" stroke:none;fill-rule:nonzero;fill:rgb(100%,63.529412%,18.823529%);fill-opacity:1;" />
<path d="M 571.585938 520.550781 C 571.585938 543.101562 553.308594 561.378906 530.757812 561.378906 C 508.210938 561.378906 489.929688 543.101562 489.929688 520.550781 C 489.929688 498.003906 508.210938 479.722656 530.757812 479.722656 C 553.308594 479.722656 571.585938 498.003906 571.585938 520.550781 Z M 571.585938 520.550781 " style=" stroke:none;fill-rule:nonzero;fill:rgb(99.215686%,71.372549%,18.431373%);fill-opacity:1;" />
</g>
</svg>