<svg xmlns="http://www.w3.org/2000/svg" height="591pt" version="1.1" viewBox="1 0 591.60001 591" width="591pt">
<g id="surface1">
<path d="M 316.414062 153.402344 L 540.964844 153.402344 L 540.964844 367.75 L 316.414062 367.75 Z M 316.414062 153.402344 " style=" stroke:none;fill-rule:nonzero;fill:rgb(81.176471%,82.352941%,83.137255%);fill-opacity:1;" />
<path d="M 316.414062 367.75 L 51.035156 367.75 L 51.035156 153.402344 L 183.722656 41.128906 L 316.414062 153.402344 Z M 316.414062 367.75 " style=" stroke:none;fill-rule:nonzero;fill:rgb(85.490196%,86.666667%,87.45098%);fill-opacity:1;" />
<path d="M 540.964844 367.75 L 51.035156 367.75 L 51.035156 337.128906 L 540.964844 204.4375 Z M 540.964844 367.75 " style=" stroke:none;fill-rule:nonzero;fill:rgb(81.176471%,82.352941%,83.137255%);fill-opacity:1;" />
<path d="M 0 367.75 L 592 367.75 C 592 412.84375 555.4375 449.402344 510.34375 449.402344 L 81.65625 449.402344 C 36.5625 449.402344 0 412.84375 0 367.75 Z M 0 367.75 " style=" stroke:none;fill-rule:nonzero;fill:rgb(85.490196%,86.666667%,87.45098%);fill-opacity:1;" />
<path d="M 510.34375 367.75 C 510.34375 412.84375 473.785156 449.402344 428.691406 449.402344 L 510.34375 449.402344 C 555.4375 449.402344 592 412.84375 592 367.75 Z M 510.34375 367.75 " style=" stroke:none;fill-rule:nonzero;fill:rgb(81.176471%,82.352941%,83.137255%);fill-opacity:1;" />
<path d="M 540.964844 153.402344 L 316.414062 153.402344 L 183.722656 41.128906 L 408.277344 41.128906 Z M 540.964844 153.402344 " style=" stroke:none;fill-rule:nonzero;fill:rgb(87.058824%,29.803922%,23.529412%);fill-opacity:1;" />
<path d="M 347.035156 0.300781 L 408.277344 0.300781 L 408.277344 81.957031 L 347.035156 81.957031 Z M 347.035156 0.300781 " style=" stroke:none;fill-rule:nonzero;fill:rgb(87.058824%,29.803922%,23.529412%);fill-opacity:1;" />
<path d="M 377.65625 224.851562 L 479.722656 224.851562 L 479.722656 286.09375 L 377.65625 286.09375 Z M 377.65625 224.851562 " style=" stroke:none;fill-rule:nonzero;fill:rgb(52.941176%,80.784314%,85.098039%);fill-opacity:1;" />
<path d="M 479.722656 286.09375 L 377.65625 286.09375 L 377.65625 265.679688 L 479.722656 235.058594 Z M 479.722656 286.09375 " style=" stroke:none;fill-rule:nonzero;fill:rgb(44.313725%,76.862745%,81.960784%);fill-opacity:1;" />
<path d="M 315.617188 446.984375 L 313.015625 448.402344 L 234.757812 448.402344 C 217.847656 448.402344 204.136719 462.113281 204.136719 479.023438 C 204.136719 495.9375 217.847656 509.644531 234.757812 509.644531 L 214.34375 509.644531 L 98.28125 456.488281 C 81.53125 448.8125 61.742188 456.171875 54.066406 472.921875 C 52.066406 477.277344 51.035156 482.015625 51.035156 486.8125 L 51.035156 489.039062 C 51.035156 501.675781 58.179688 513.226562 69.476562 518.871094 L 188.480469 578.378906 C 205.496094 586.871094 224.246094 591.289062 243.261719 591.28125 L 459.308594 591.28125 L 459.308594 448.382812 C 414.898438 423.019531 360.519531 422.488281 315.617188 446.984375 Z M 315.617188 446.984375 " style=" stroke:none;fill-rule:nonzero;fill:rgb(100%,71.764706%,50.980392%);fill-opacity:1;" />
<path d="M 459.308594 448.402344 L 592 448.402344 L 592 591.300781 L 459.308594 591.300781 Z M 459.308594 448.402344 " style=" stroke:none;fill-rule:nonzero;fill:rgb(26.27451%,59.607843%,81.960784%);fill-opacity:1;" />
<path d="M 489.929688 540.265625 L 510.34375 540.265625 L 510.34375 560.679688 L 489.929688 560.679688 Z M 489.929688 540.265625 " style=" stroke:none;fill-rule:nonzero;fill:rgb(20.784314%,50.980392%,74.117647%);fill-opacity:1;" />
<path d="M 316.414062 519.832031 L 234.757812 519.832031 C 229.125 519.832031 224.550781 515.257812 224.550781 509.625 C 224.550781 503.992188 229.125 499.417969 234.757812 499.417969 L 316.414062 499.417969 C 322.046875 499.417969 326.621094 503.992188 326.621094 509.625 C 326.621094 515.257812 322.046875 519.832031 316.414062 519.832031 Z M 316.414062 519.832031 " style=" stroke:none;fill-rule:nonzero;fill:rgb(94.901961%,64.313725%,43.529412%);fill-opacity:1;" />
<path d="M 540.964844 153.402344 L 436.835938 65.296875 L 303.921875 142.828125 L 316.414062 153.402344 Z M 540.964844 153.402344 " style=" stroke:none;fill-rule:nonzero;fill:rgb(78.823529%,27.058824%,21.176471%);fill-opacity:1;" />
<path d="M 142.898438 224.851562 L 224.550781 224.851562 L 224.550781 367.75 L 142.898438 367.75 Z M 142.898438 224.851562 " style=" stroke:none;fill-rule:nonzero;fill:rgb(99.215686%,71.372549%,18.431373%);fill-opacity:1;" />
<path d="M 142.898438 224.851562 L 163.308594 224.851562 L 163.308594 367.75 L 142.898438 367.75 Z M 142.898438 224.851562 " style=" stroke:none;fill-rule:nonzero;fill:rgb(100%,63.529412%,18.823529%);fill-opacity:1;" />
</g>
</svg>