<svg xmlns="http://www.w3.org/2000/svg" height="591.6pt" version="1.1" viewBox="1 1 591.6 591.6" width="591.6pt">
<g id="surface1">
<path d="M 296 255.171875 L 193.929688 255.171875 C 175.253906 255.191406 156.746094 258.652344 139.324219 265.378906 C 130.679688 240.933594 107.582031 224.582031 81.65625 224.550781 L 81.65625 304.410156 C 65.078125 322.324219 53.023438 343.929688 46.503906 367.449219 L 0 367.449219 L 0 449.101562 L 46.503906 449.101562 C 53.015625 472.621094 65.070312 494.226562 81.65625 512.121094 L 81.65625 592 L 163.308594 592 L 163.308594 558.316406 C 173.382812 560.359375 183.640625 561.390625 193.929688 561.378906 L 296 561.378906 C 306.289062 561.390625 316.546875 560.359375 326.621094 558.316406 L 326.621094 592 L 408.277344 592 L 408.277344 512.121094 C 465.71875 450.207031 462.105469 353.445312 400.191406 296 C 371.867188 269.71875 334.644531 255.132812 296 255.171875 Z M 296 255.171875 " style=" stroke:none;fill-rule:nonzero;fill:rgb(85.882353%,43.137255%,63.529412%);fill-opacity:1;" />
<path d="M 193.929688 285.792969 L 296 285.792969 L 296 306.207031 L 193.929688 306.207031 Z M 193.929688 285.792969 " style=" stroke:none;fill-rule:nonzero;fill:rgb(74.901961%,27.058824%,52.156863%);fill-opacity:1;" />
<path d="M 411.339844 307.738281 C 354.925781 462.238281 180.988281 524.738281 81.65625 548.304688 L 81.65625 592 L 163.308594 592 L 163.308594 558.316406 C 173.382812 560.359375 183.640625 561.390625 193.929688 561.378906 L 296 561.378906 C 306.289062 561.390625 316.546875 560.359375 326.621094 558.316406 L 326.621094 592 L 408.277344 592 L 408.277344 512.121094 C 461.554688 454.859375 462.871094 366.570312 411.339844 307.738281 Z M 411.339844 307.738281 " style=" stroke:none;fill-rule:nonzero;fill:rgb(83.137255%,38.039216%,59.607843%);fill-opacity:1;" />
<path d="M 122.484375 408.277344 C 105.570312 408.277344 91.863281 394.566406 91.863281 377.65625 C 91.863281 360.742188 105.570312 347.035156 122.484375 347.035156 C 139.394531 347.035156 153.101562 360.742188 153.101562 377.65625 C 153.101562 394.566406 139.394531 408.277344 122.484375 408.277344 Z M 122.484375 367.449219 C 116.847656 367.449219 112.277344 372.019531 112.277344 377.65625 C 112.277344 383.289062 116.847656 387.863281 122.484375 387.863281 C 128.117188 387.863281 132.691406 383.289062 132.691406 377.65625 C 132.691406 372.019531 128.117188 367.449219 122.484375 367.449219 Z M 122.484375 367.449219 " style=" stroke:none;fill-rule:nonzero;fill:rgb(74.901961%,27.058824%,52.156863%);fill-opacity:1;" />
<path d="M 398.070312 449.101562 C 282.617188 412.644531 204.136719 305.554688 204.136719 184.488281 L 204.136719 61.242188 C 270.6875 61.242188 335.757812 41.542969 391.128906 4.625 L 398.070312 0 L 405.007812 4.625 C 460.382812 41.542969 525.449219 61.242188 592 61.242188 L 592 184.488281 C 592 305.554688 513.519531 412.644531 398.070312 449.101562 Z M 398.070312 449.101562 " style=" stroke:none;fill-rule:nonzero;fill:rgb(26.27451%,59.607843%,81.960784%);fill-opacity:1;" />
<path d="M 500.78125 48.484375 C 468.039062 179.425781 378.859375 289.078125 257.347656 347.832031 C 292.214844 395.773438 341.535156 431.273438 398.070312 449.101562 C 513.507812 412.644531 592 305.554688 592 184.488281 L 592 61.242188 C 561.15625 61.179688 530.460938 56.894531 500.78125 48.484375 Z M 500.78125 48.484375 " style=" stroke:none;fill-rule:nonzero;fill:rgb(24.313725%,54.901961%,78.039216%);fill-opacity:1;" />
<path d="M 398.070312 416.136719 C 396.84375 416.136719 395.621094 415.910156 394.476562 415.472656 C 297.960938 379.726562 234.117188 287.417969 234.757812 184.488281 L 234.757812 99.875 C 234.757812 94.660156 238.6875 90.289062 243.875 89.730469 C 296.5625 84.125 347.390625 67.089844 392.824219 39.808594 C 396.046875 37.867188 400.089844 37.867188 403.316406 39.808594 C 448.738281 67.121094 499.566406 84.1875 552.265625 89.820312 C 557.453125 90.382812 561.382812 94.75 561.382812 99.964844 L 561.382812 184.582031 C 562.023438 287.507812 498.179688 379.820312 401.664062 415.5625 C 400.507812 415.972656 399.292969 416.167969 398.070312 416.136719 Z M 255.171875 108.90625 L 255.171875 184.4375 C 254.558594 277.464844 311.402344 361.222656 398.070312 395.007812 C 484.726562 361.222656 541.558594 277.496094 540.964844 184.488281 L 540.964844 108.957031 C 490.585938 102.375 442.019531 85.859375 398.070312 60.363281 C 354.117188 85.851562 305.554688 102.363281 255.171875 108.9375 Z M 255.171875 108.90625 " style=" stroke:none;fill-rule:nonzero;fill:rgb(20.784314%,50.980392%,74.117647%);fill-opacity:1;" />
<path d="M 387.863281 91.863281 L 408.277344 91.863281 L 408.277344 112.277344 L 387.863281 112.277344 Z M 387.863281 91.863281 " style=" stroke:none;fill-rule:nonzero;fill:rgb(36.862745%,70.196078%,81.960784%);fill-opacity:1;" />
<path d="M 387.863281 347.035156 L 408.277344 347.035156 L 408.277344 367.449219 L 387.863281 367.449219 Z M 387.863281 347.035156 " style=" stroke:none;fill-rule:nonzero;fill:rgb(36.862745%,70.196078%,81.960784%);fill-opacity:1;" />
<path d="M 275.585938 132.691406 L 296 132.691406 L 296 153.101562 L 275.585938 153.101562 Z M 275.585938 132.691406 " style=" stroke:none;fill-rule:nonzero;fill:rgb(36.862745%,70.196078%,81.960784%);fill-opacity:1;" />
<path d="M 326.621094 112.277344 L 347.035156 112.277344 L 347.035156 132.691406 L 326.621094 132.691406 Z M 326.621094 112.277344 " style=" stroke:none;fill-rule:nonzero;fill:rgb(36.862745%,70.196078%,81.960784%);fill-opacity:1;" />
<path d="M 500.136719 132.691406 L 520.550781 132.691406 L 520.550781 153.101562 L 500.136719 153.101562 Z M 500.136719 132.691406 " style=" stroke:none;fill-rule:nonzero;fill:rgb(36.862745%,70.196078%,81.960784%);fill-opacity:1;" />
<path d="M 275.585938 193.929688 L 296 193.929688 L 296 214.34375 L 275.585938 214.34375 Z M 275.585938 193.929688 " style=" stroke:none;fill-rule:nonzero;fill:rgb(36.862745%,70.196078%,81.960784%);fill-opacity:1;" />
<path d="M 500.136719 193.929688 L 520.550781 193.929688 L 520.550781 214.34375 L 500.136719 214.34375 Z M 500.136719 193.929688 " style=" stroke:none;fill-rule:nonzero;fill:rgb(36.862745%,70.196078%,81.960784%);fill-opacity:1;" />
<path d="M 296 255.171875 L 316.414062 255.171875 L 316.414062 275.585938 L 296 275.585938 Z M 296 255.171875 " style=" stroke:none;fill-rule:nonzero;fill:rgb(36.862745%,70.196078%,81.960784%);fill-opacity:1;" />
<path d="M 479.722656 255.171875 L 500.136719 255.171875 L 500.136719 275.585938 L 479.722656 275.585938 Z M 479.722656 255.171875 " style=" stroke:none;fill-rule:nonzero;fill:rgb(36.862745%,70.196078%,81.960784%);fill-opacity:1;" />
<path d="M 336.828125 316.414062 L 357.242188 316.414062 L 357.242188 336.828125 L 336.828125 336.828125 Z M 336.828125 316.414062 " style=" stroke:none;fill-rule:nonzero;fill:rgb(36.862745%,70.196078%,81.960784%);fill-opacity:1;" />
<path d="M 438.898438 316.414062 L 459.308594 316.414062 L 459.308594 336.828125 L 438.898438 336.828125 Z M 438.898438 316.414062 " style=" stroke:none;fill-rule:nonzero;fill:rgb(36.862745%,70.196078%,81.960784%);fill-opacity:1;" />
<path d="M 449.101562 112.277344 L 469.515625 112.277344 L 469.515625 132.691406 L 449.101562 132.691406 Z M 449.101562 112.277344 " style=" stroke:none;fill-rule:nonzero;fill:rgb(36.862745%,70.196078%,81.960784%);fill-opacity:1;" />
</g>
</svg>