<svg xmlns="http://www.w3.org/2000/svg" height="601pt" version="1.1" viewBox="-5 1 601 601.8" width="601pt">
<g id="surface1">
<path d="M 122.84375 61.21875 L 469.757812 61.21875 L 469.757812 510.167969 L 122.84375 510.167969 Z M 122.84375 61.21875 " style=" stroke:none;fill-rule:nonzero;fill:rgb(52.941176%,80.784314%,85.098039%);fill-opacity:1;" />
<path d="M 122.84375 489.761719 L 122.84375 510.167969 L 469.757812 510.167969 L 469.757812 142.847656 Z M 122.84375 489.761719 " style=" stroke:none;fill-rule:nonzero;fill:rgb(44.313725%,76.862745%,81.960784%);fill-opacity:1;" />
<path d="M 469.757812 40.8125 C 469.757812 18.273438 451.484375 0 428.945312 0 L 163.65625 0 C 141.117188 0 122.84375 18.273438 122.84375 40.8125 L 122.84375 61.21875 L 469.757812 61.21875 Z M 469.757812 40.8125 " style=" stroke:none;fill-rule:nonzero;fill:rgb(85.490196%,86.666667%,87.45098%);fill-opacity:1;" />
<path d="M 122.84375 510.167969 L 122.84375 550.984375 C 122.84375 573.523438 141.117188 591.796875 163.65625 591.796875 L 428.945312 591.796875 C 451.484375 591.796875 469.757812 573.523438 469.757812 550.984375 L 469.757812 510.167969 Z M 122.84375 510.167969 " style=" stroke:none;fill-rule:nonzero;fill:rgb(85.490196%,86.666667%,87.45098%);fill-opacity:1;" />
<path d="M 286.097656 540.78125 L 306.503906 540.78125 L 306.503906 561.1875 L 286.097656 561.1875 Z M 286.097656 540.78125 " style=" stroke:none;fill-rule:nonzero;fill:rgb(75.686275%,78.039216%,78.823529%);fill-opacity:1;" />
<path d="M 0.402344 346.914062 L 0.402344 163.253906 C 0.402344 140.714844 18.675781 122.441406 41.214844 122.441406 L 367.722656 122.441406 C 390.261719 122.441406 408.539062 140.714844 408.539062 163.253906 L 408.539062 346.914062 C 408.539062 369.453125 390.261719 387.730469 367.722656 387.730469 L 41.214844 387.730469 C 18.675781 387.730469 0.402344 369.453125 0.402344 346.914062 Z M 0.402344 346.914062 " style=" stroke:none;fill-rule:nonzero;fill:rgb(26.27451%,59.607843%,81.960784%);fill-opacity:1;" />
<path d="M 367.722656 122.441406 L 102.4375 387.730469 L 367.722656 387.730469 C 390.261719 387.730469 408.539062 369.453125 408.539062 346.914062 L 408.539062 163.253906 C 408.539062 140.714844 390.261719 122.441406 367.722656 122.441406 Z M 367.722656 122.441406 " style=" stroke:none;fill-rule:nonzero;fill:rgb(24.313725%,54.901961%,78.039216%);fill-opacity:1;" />
<path d="M 404.863281 146.519531 C 407.273438 151.777344 408.527344 157.480469 408.539062 163.253906 L 408.539062 346.914062 C 408.539062 369.453125 390.261719 387.730469 367.722656 387.730469 L 122.84375 387.730469 L 122.84375 408.136719 L 388.128906 408.136719 C 410.671875 408.136719 428.945312 389.863281 428.945312 367.320312 L 428.945312 183.660156 C 428.925781 167.621094 419.496094 153.082031 404.863281 146.519531 Z M 404.863281 146.519531 " style=" stroke:none;fill-rule:nonzero;fill:rgb(44.313725%,76.862745%,81.960784%);fill-opacity:1;" />
<path d="M 41.214844 163.253906 L 102.4375 163.253906 L 102.4375 224.472656 L 41.214844 224.472656 Z M 41.214844 163.253906 " style=" stroke:none;fill-rule:nonzero;fill:rgb(99.215686%,71.372549%,18.431373%);fill-opacity:1;" />
<path d="M 41.214844 255.085938 L 82.027344 255.085938 L 82.027344 275.492188 L 41.214844 275.492188 Z M 41.214844 255.085938 " style=" stroke:none;fill-rule:nonzero;fill:rgb(36.862745%,70.196078%,81.960784%);fill-opacity:1;" />
<path d="M 41.214844 306.101562 L 82.027344 306.101562 L 82.027344 326.507812 L 41.214844 326.507812 Z M 41.214844 306.101562 " style=" stroke:none;fill-rule:nonzero;fill:rgb(36.862745%,70.196078%,81.960784%);fill-opacity:1;" />
<path d="M 214.671875 306.101562 L 255.488281 306.101562 L 255.488281 326.507812 L 214.671875 326.507812 Z M 214.671875 306.101562 " style=" stroke:none;fill-rule:nonzero;fill:rgb(36.862745%,70.196078%,81.960784%);fill-opacity:1;" />
<path d="M 102.4375 255.085938 L 143.25 255.085938 L 143.25 275.492188 L 102.4375 275.492188 Z M 102.4375 255.085938 " style=" stroke:none;fill-rule:nonzero;fill:rgb(36.862745%,70.196078%,81.960784%);fill-opacity:1;" />
<path d="M 163.65625 255.085938 L 204.46875 255.085938 L 204.46875 275.492188 L 163.65625 275.492188 Z M 163.65625 255.085938 " style=" stroke:none;fill-rule:nonzero;fill:rgb(36.862745%,70.196078%,81.960784%);fill-opacity:1;" />
<path d="M 224.875 255.085938 L 265.691406 255.085938 L 265.691406 275.492188 L 224.875 275.492188 Z M 224.875 255.085938 " style=" stroke:none;fill-rule:nonzero;fill:rgb(36.862745%,70.196078%,81.960784%);fill-opacity:1;" />
<path d="M 286.097656 255.085938 L 326.910156 255.085938 L 326.910156 275.492188 L 286.097656 275.492188 Z M 286.097656 255.085938 " style=" stroke:none;fill-rule:nonzero;fill:rgb(36.862745%,70.196078%,81.960784%);fill-opacity:1;" />
<path d="M 347.316406 163.253906 L 367.722656 163.253906 L 367.722656 183.660156 L 347.316406 183.660156 Z M 347.316406 163.253906 " style=" stroke:none;fill-rule:nonzero;fill:rgb(36.862745%,70.196078%,81.960784%);fill-opacity:1;" />
<path d="M 306.503906 163.253906 L 326.910156 163.253906 L 326.910156 183.660156 L 306.503906 183.660156 Z M 306.503906 163.253906 " style=" stroke:none;fill-rule:nonzero;fill:rgb(36.862745%,70.196078%,81.960784%);fill-opacity:1;" />
<path d="M 265.691406 163.253906 L 286.097656 163.253906 L 286.097656 183.660156 L 265.691406 183.660156 Z M 265.691406 163.253906 " style=" stroke:none;fill-rule:nonzero;fill:rgb(36.862745%,70.196078%,81.960784%);fill-opacity:1;" />
<path d="M 224.875 163.253906 L 245.28125 163.253906 L 245.28125 183.660156 L 224.875 183.660156 Z M 224.875 163.253906 " style=" stroke:none;fill-rule:nonzero;fill:rgb(36.862745%,70.196078%,81.960784%);fill-opacity:1;" />
<path d="M 367.722656 326.507812 C 367.722656 337.777344 358.585938 346.914062 347.316406 346.914062 C 336.046875 346.914062 326.910156 337.777344 326.910156 326.507812 C 326.910156 315.238281 336.046875 306.101562 347.316406 306.101562 C 358.585938 306.101562 367.722656 315.238281 367.722656 326.507812 Z M 367.722656 326.507812 " style=" stroke:none;fill-rule:nonzero;fill:rgb(99.215686%,71.372549%,18.431373%);fill-opacity:1;" />
<path d="M 326.910156 326.507812 C 326.910156 337.777344 317.773438 346.914062 306.503906 346.914062 C 295.234375 346.914062 286.097656 337.777344 286.097656 326.507812 C 286.097656 315.238281 295.234375 306.101562 306.503906 306.101562 C 317.773438 306.101562 326.910156 315.238281 326.910156 326.507812 Z M 326.910156 326.507812 " style=" stroke:none;fill-rule:nonzero;fill:rgb(87.058824%,29.803922%,23.529412%);fill-opacity:1;" />
<path d="M 41.214844 209.167969 L 41.214844 224.472656 L 102.4375 224.472656 L 102.4375 163.253906 L 87.128906 163.253906 Z M 41.214844 209.167969 " style=" stroke:none;fill-rule:nonzero;fill:rgb(100%,63.529412%,18.823529%);fill-opacity:1;" />
<path d="M 566.953125 351.609375 L 469.757812 244.882812 L 469.757812 377.527344 L 434.046875 341.8125 C 419.730469 327.957031 396.886719 328.324219 383.027344 342.640625 C 369.488281 356.628906 369.488281 378.84375 383.027344 392.832031 L 469.757812 479.558594 L 463.71875 491.628906 C 448.085938 522.894531 446.574219 559.351562 459.554688 591.796875 L 459.554688 602 L 592.199219 602 L 592.199219 418.789062 C 592.199219 394.074219 583.230469 370.210938 566.953125 351.609375 Z M 566.953125 351.609375 " style=" stroke:none;fill-rule:nonzero;fill:rgb(100%,71.764706%,50.980392%);fill-opacity:1;" />
<path d="M 530.976562 448.949219 C 528.273438 448.949219 525.671875 447.878906 523.765625 445.960938 L 462.542969 384.738281 C 458.625 380.6875 458.738281 374.230469 462.789062 370.3125 C 466.75 366.496094 473.011719 366.496094 476.972656 370.3125 L 538.191406 431.53125 C 542.171875 435.519531 542.171875 441.980469 538.191406 445.960938 C 536.273438 447.878906 533.683594 448.949219 530.976562 448.949219 Z M 530.976562 448.949219 " style=" stroke:none;fill-rule:nonzero;fill:rgb(94.901961%,64.313725%,43.529412%);fill-opacity:1;" />
</g>
</svg>