<svg xmlns="http://www.w3.org/2000/svg" height="612pt" version="1.1" viewBox="-10 0 612 612" width="612pt">
<g id="surface1">
<path d="M 0 306 L 591.601562 306 L 591.601562 612 L 0 612 Z M 0 306 " style=" stroke:none;fill-rule:nonzero;fill:rgb(38.431373%,54.117647%,15.294118%);fill-opacity:1;" />
<path d="M 0 255 L 591.601562 255 L 591.601562 561 L 0 561 Z M 0 255 " style=" stroke:none;fill-rule:nonzero;fill:rgb(41.960784%,58.823529%,16.470588%);fill-opacity:1;" />
<path d="M 0 204 L 591.601562 204 L 591.601562 510 L 0 510 Z M 0 204 " style=" stroke:none;fill-rule:nonzero;fill:rgb(38.431373%,54.117647%,15.294118%);fill-opacity:1;" />
<path d="M 0 153 L 591.601562 153 L 591.601562 459 L 0 459 Z M 0 153 " style=" stroke:none;fill-rule:nonzero;fill:rgb(41.960784%,58.823529%,16.470588%);fill-opacity:1;" />
<path d="M 0 102 L 591.601562 102 L 591.601562 408 L 0 408 Z M 0 102 " style=" stroke:none;fill-rule:nonzero;fill:rgb(50.196078%,65.882353%,20.392157%);fill-opacity:1;" />
<path d="M 0 102 L 530.398438 102 L 530.398438 357 C 530.398438 385.160156 507.5625 408 479.398438 408 L 0 408 Z M 0 102 " style=" stroke:none;fill-rule:nonzero;fill:rgb(53.333333%,70.196078%,21.568627%);fill-opacity:1;" />
<path d="M 469.199219 357 L 91.800781 357 C 91.800781 334.46875 73.53125 316.199219 51 316.199219 L 51 193.800781 C 73.53125 193.800781 91.800781 175.53125 91.800781 153 L 530.398438 153 L 530.398438 295.800781 C 530.398438 329.601562 503.003906 357 469.199219 357 Z M 469.199219 357 " style=" stroke:none;fill-rule:nonzero;fill:rgb(41.960784%,58.823529%,16.470588%);fill-opacity:1;" />
<path d="M 387.601562 255 C 387.601562 198.667969 346.5 153 295.800781 153 C 245.101562 153 204 198.667969 204 255 C 204 311.332031 245.101562 357 295.800781 357 C 346.5 357 387.601562 311.332031 387.601562 255 Z M 387.601562 255 " style=" stroke:none;fill-rule:nonzero;fill:rgb(53.333333%,70.196078%,21.568627%);fill-opacity:1;" />
<path d="M 153 255 C 153 271.898438 139.300781 285.601562 122.398438 285.601562 C 105.5 285.601562 91.800781 271.898438 91.800781 255 C 91.800781 238.101562 105.5 224.398438 122.398438 224.398438 C 139.300781 224.398438 153 238.101562 153 255 Z M 153 255 " style=" stroke:none;fill-rule:nonzero;fill:rgb(53.333333%,70.196078%,21.568627%);fill-opacity:1;" />
<path d="M 255 102 L 336.601562 102 L 336.601562 612 L 255 612 Z M 255 102 " style=" stroke:none;fill-rule:nonzero;fill:rgb(99.215686%,71.372549%,18.431373%);fill-opacity:1;" />
<path d="M 255 408 L 336.601562 408 L 336.601562 612 L 255 612 Z M 255 408 " style=" stroke:none;fill-rule:nonzero;fill:rgb(94.117647%,61.960784%,14.901961%);fill-opacity:1;" />
<path d="M 530.398438 357 C 530.398438 328.839844 507.5625 306 479.398438 306 L 448.800781 306 L 448.800781 0 L 479.398438 0 C 507.5625 0 530.398438 22.839844 530.398438 51 Z M 530.398438 357 " style=" stroke:none;fill-rule:nonzero;fill:rgb(60%,78.823529%,24.313725%);fill-opacity:1;" />
</g>
</svg>