<svg xmlns="http://www.w3.org/2000/svg" height="601pt" version="1.1" viewBox="-81 1 601 601.799" width="601pt">
<g id="surface1">
<path d="M 286.121094 91.832031 C 286.121094 74.925781 272.417969 61.21875 255.511719 61.21875 L 31.035156 61.21875 C 14.128906 61.21875 0.425781 74.925781 0.425781 91.832031 L 0.425781 112.238281 L 286.121094 112.238281 Z M 286.121094 91.832031 " style=" stroke:none;fill-rule:nonzero;fill:rgb(85.490196%,86.666667%,87.45098%);fill-opacity:1;" />
<path d="M 0.425781 540.78125 C 0.425781 557.6875 14.128906 571.390625 31.035156 571.390625 L 255.511719 571.390625 C 272.417969 571.390625 286.121094 557.6875 286.121094 540.78125 L 286.121094 520.371094 L 0.425781 520.371094 Z M 0.425781 540.78125 " style=" stroke:none;fill-rule:nonzero;fill:rgb(85.490196%,86.666667%,87.45098%);fill-opacity:1;" />
<path d="M 0.425781 112.238281 L 286.121094 112.238281 L 286.121094 520.371094 L 0.425781 520.371094 Z M 0.425781 112.238281 " style=" stroke:none;fill-rule:nonzero;fill:rgb(26.27451%,59.607843%,81.960784%);fill-opacity:1;" />
<path d="M 0.425781 459.152344 L 0.425781 520.371094 L 286.121094 520.371094 L 286.121094 173.457031 Z M 0.425781 459.152344 " style=" stroke:none;fill-rule:nonzero;fill:rgb(20.784314%,50.980392%,74.117647%);fill-opacity:1;" />
<path d="M 224.902344 183.660156 L 204.496094 173.457031 L 184.085938 183.660156 L 163.679688 173.457031 L 143.273438 183.660156 L 122.867188 173.457031 L 102.460938 183.660156 L 82.054688 173.457031 L 61.648438 183.660156 L 41.238281 173.457031 L 41.238281 489.761719 L 245.308594 489.761719 L 245.308594 173.457031 Z M 224.902344 183.660156 " style=" stroke:none;fill-rule:nonzero;fill:rgb(52.941176%,80.784314%,85.098039%);fill-opacity:1;" />
<path d="M 71.851562 265.289062 L 153.476562 265.289062 L 153.476562 285.695312 L 71.851562 285.695312 Z M 71.851562 265.289062 " style=" stroke:none;fill-rule:nonzero;fill:rgb(36.862745%,70.196078%,81.960784%);fill-opacity:1;" />
<path d="M 173.882812 265.289062 L 214.699219 265.289062 L 214.699219 285.695312 L 173.882812 285.695312 Z M 173.882812 265.289062 " style=" stroke:none;fill-rule:nonzero;fill:rgb(36.862745%,70.196078%,81.960784%);fill-opacity:1;" />
<path d="M 71.851562 306.101562 L 153.476562 306.101562 L 153.476562 326.507812 L 71.851562 326.507812 Z M 71.851562 306.101562 " style=" stroke:none;fill-rule:nonzero;fill:rgb(36.862745%,70.196078%,81.960784%);fill-opacity:1;" />
<path d="M 173.882812 306.101562 L 214.699219 306.101562 L 214.699219 326.507812 L 173.882812 326.507812 Z M 173.882812 306.101562 " style=" stroke:none;fill-rule:nonzero;fill:rgb(36.862745%,70.196078%,81.960784%);fill-opacity:1;" />
<path d="M 71.851562 346.914062 L 153.476562 346.914062 L 153.476562 367.320312 L 71.851562 367.320312 Z M 71.851562 346.914062 " style=" stroke:none;fill-rule:nonzero;fill:rgb(36.862745%,70.196078%,81.960784%);fill-opacity:1;" />
<path d="M 71.851562 387.730469 L 153.476562 387.730469 L 153.476562 408.136719 L 71.851562 408.136719 Z M 71.851562 387.730469 " style=" stroke:none;fill-rule:nonzero;fill:rgb(36.862745%,70.196078%,81.960784%);fill-opacity:1;" />
<path d="M 71.851562 428.542969 L 153.476562 428.542969 L 153.476562 448.949219 L 71.851562 448.949219 Z M 71.851562 428.542969 " style=" stroke:none;fill-rule:nonzero;fill:rgb(36.862745%,70.196078%,81.960784%);fill-opacity:1;" />
<path d="M 71.851562 469.355469 L 153.476562 469.355469 L 153.476562 489.761719 L 71.851562 489.761719 Z M 71.851562 469.355469 " style=" stroke:none;fill-rule:nonzero;fill:rgb(36.862745%,70.196078%,81.960784%);fill-opacity:1;" />
<path d="M 173.882812 469.355469 L 214.699219 469.355469 L 214.699219 489.761719 L 173.882812 489.761719 Z M 173.882812 469.355469 " style=" stroke:none;fill-rule:nonzero;fill:rgb(36.862745%,70.196078%,81.960784%);fill-opacity:1;" />
<path d="M 102.460938 224.472656 L 194.292969 224.472656 L 194.292969 244.882812 L 102.460938 244.882812 Z M 102.460938 224.472656 " style=" stroke:none;fill-rule:nonzero;fill:rgb(36.862745%,70.196078%,81.960784%);fill-opacity:1;" />
<path d="M 439.171875 115.277344 C 439.171875 51.613281 388.921875 0 326.933594 0 C 264.949219 0 214.699219 51.613281 214.699219 115.277344 C 214.699219 178.945312 264.949219 230.554688 326.933594 230.554688 C 388.921875 230.554688 439.171875 178.945312 439.171875 115.277344 Z M 439.171875 115.277344 " style=" stroke:none;fill-rule:nonzero;fill:rgb(99.215686%,71.372549%,18.431373%);fill-opacity:1;" />
<path d="M 352.863281 108.15625 L 305.925781 96.441406 C 299.109375 94.71875 294.988281 87.800781 296.703125 80.992188 C 298.121094 75.363281 303.179688 71.414062 308.988281 71.382812 L 367.75 71.382812 L 367.75 51.015625 L 337.136719 51.015625 L 337.136719 30.609375 L 316.730469 30.609375 L 316.730469 51.015625 L 309.039062 51.015625 C 290.742188 50.90625 275.824219 65.640625 275.714844 83.933594 C 275.621094 99.289062 286.089844 112.6875 301.007812 116.320312 L 347.945312 128.03125 C 354.761719 129.757812 358.882812 136.675781 357.167969 143.480469 C 355.75 149.113281 350.6875 153.0625 344.882812 153.09375 L 286.121094 153.09375 L 286.121094 173.5 L 316.730469 173.5 L 316.730469 193.90625 L 337.136719 193.90625 L 337.136719 173.457031 L 344.832031 173.457031 C 363.128906 173.570312 378.042969 158.835938 378.15625 140.542969 C 378.25 125.1875 367.78125 111.789062 352.863281 108.15625 Z M 352.863281 108.15625 " style=" stroke:none;fill-rule:nonzero;fill:rgb(99.215686%,48.235294%,18.431373%);fill-opacity:1;" />
<path d="M 327.539062 367.058594 L 286.121094 326.507812 L 286.121094 438.652344 L 206.441406 358.640625 C 192.292969 344.488281 169.363281 344.488281 155.210938 358.640625 C 141.058594 372.789062 141.058594 395.71875 155.210938 409.871094 L 244.867188 499.527344 C 220.269531 524.136719 206.441406 557.503906 206.441406 592.296875 L 206.441406 602 L 357.546875 602 L 357.546875 439.511719 C 357.546875 412.339844 346.75 386.269531 327.539062 367.058594 Z M 327.539062 367.058594 " style=" stroke:none;fill-rule:nonzero;fill:rgb(100%,71.764706%,50.980392%);fill-opacity:1;" />
<path d="M 306.527344 469.355469 C 303.804688 469.335938 301.210938 468.234375 299.304688 466.292969 L 278.898438 445.796875 C 274.753906 441.96875 274.507812 435.511719 278.335938 431.378906 C 282.164062 427.234375 288.621094 426.992188 292.753906 430.816406 C 292.957031 431.011719 293.160156 431.207031 293.347656 431.417969 L 313.753906 451.917969 C 317.753906 455.886719 317.78125 462.34375 313.8125 466.347656 C 311.886719 468.273438 309.261719 469.367188 306.527344 469.355469 Z M 306.527344 469.355469 " style=" stroke:none;fill-rule:nonzero;fill:rgb(94.901961%,64.313725%,43.529412%);fill-opacity:1;" />
</g>
</svg>