<svg xmlns="http://www.w3.org/2000/svg" height="601pt" version="1.1" viewBox="1 -26 601.80002 601" width="601pt">
<g id="surface1">
<path d="M 377.527344 76.941406 C 377.527344 62.847656 366.109375 51.433594 352.015625 51.433594 C 366.109375 51.433594 377.527344 40.015625 377.527344 25.921875 C 377.527344 25.046875 377.484375 24.15625 377.390625 23.289062 C 375.546875 9.964844 364.007812 0.128906 350.558594 0.414062 L 75.667969 0.414062 C 66.167969 0.414062 56.792969 2.628906 48.292969 6.875 L 0 31.023438 L 0 235.09375 L 73.148438 235.09375 C 112.074219 235.09375 150.277344 224.511719 183.660156 204.484375 L 350.558594 204.484375 C 364.007812 204.769531 375.546875 194.933594 377.390625 181.605469 C 378.839844 167.597656 368.667969 155.058594 354.648438 153.597656 C 353.773438 153.507812 352.894531 153.464844 352.015625 153.464844 C 366.105469 153.464844 377.523438 142.046875 377.523438 127.957031 C 377.523438 113.867188 366.105469 102.449219 352.015625 102.449219 C 366.109375 102.449219 377.527344 91.03125 377.527344 76.941406 Z M 377.527344 76.941406 " style=" stroke:none;fill-rule:nonzero;fill:rgb(94.901961%,64.313725%,43.529412%);fill-opacity:1;" />
<path d="M 112.238281 133.058594 L 499.964844 133.058594 L 499.964844 337.125 L 112.238281 337.125 Z M 112.238281 133.058594 " style=" stroke:none;fill-rule:nonzero;fill:rgb(38.431373%,54.117647%,15.294118%);fill-opacity:1;" />
<path d="M 112.238281 92.246094 L 499.964844 92.246094 L 499.964844 296.3125 L 112.238281 296.3125 Z M 112.238281 92.246094 " style=" stroke:none;fill-rule:nonzero;fill:rgb(41.960784%,58.823529%,16.470588%);fill-opacity:1;" />
<path d="M 112.238281 51.433594 L 499.964844 51.433594 L 499.964844 255.5 L 112.238281 255.5 Z M 112.238281 51.433594 " style=" stroke:none;fill-rule:nonzero;fill:rgb(53.333333%,70.196078%,21.568627%);fill-opacity:1;" />
<path d="M 214.269531 255.5 L 499.964844 255.5 L 499.964844 51.433594 L 418.339844 51.433594 Z M 214.269531 255.5 " style=" stroke:none;fill-rule:nonzero;fill:rgb(50.196078%,65.882353%,20.392157%);fill-opacity:1;" />
<path d="M 438.746094 214.6875 L 173.457031 214.6875 C 173.457031 203.410156 164.324219 194.277344 153.050781 194.277344 L 153.050781 112.652344 C 164.324219 112.652344 173.457031 103.519531 173.457031 92.246094 L 438.746094 92.246094 C 438.746094 103.519531 447.878906 112.652344 459.152344 112.652344 L 459.152344 194.277344 C 447.878906 194.277344 438.746094 203.421875 438.746094 214.6875 Z M 438.746094 214.6875 " style=" stroke:none;fill-rule:nonzero;fill:rgb(41.960784%,58.823529%,16.470588%);fill-opacity:1;" />
<path d="M 357.117188 153.464844 C 357.117188 119.65625 334.277344 92.246094 306.101562 92.246094 C 277.925781 92.246094 255.085938 119.65625 255.085938 153.464844 C 255.085938 187.277344 277.925781 214.6875 306.101562 214.6875 C 334.277344 214.6875 357.117188 187.277344 357.117188 153.464844 Z M 357.117188 153.464844 " style=" stroke:none;fill-rule:nonzero;fill:rgb(53.333333%,70.196078%,21.568627%);fill-opacity:1;" />
<path d="M 397.933594 143.261719 L 418.339844 143.261719 L 418.339844 163.667969 L 397.933594 163.667969 Z M 397.933594 143.261719 " style=" stroke:none;fill-rule:nonzero;fill:rgb(53.333333%,70.196078%,21.568627%);fill-opacity:1;" />
<path d="M 193.863281 143.261719 L 214.269531 143.261719 L 214.269531 163.667969 L 193.863281 163.667969 Z M 193.863281 143.261719 " style=" stroke:none;fill-rule:nonzero;fill:rgb(53.333333%,70.196078%,21.568627%);fill-opacity:1;" />
<path d="M 0 194.277344 L 30.609375 194.277344 C 75.6875 194.277344 112.238281 157.730469 112.238281 112.652344 L 193.863281 112.652344 C 227.679688 112.652344 255.085938 85.246094 255.085938 51.433594 L 0 51.433594 " style=" stroke:none;fill-rule:nonzero;fill:rgb(100%,71.764706%,50.980392%);fill-opacity:1;" />
<path d="M 325.710938 406.132812 L 323.109375 407.550781 L 244.882812 407.550781 C 227.976562 407.550781 214.269531 421.253906 214.269531 438.160156 C 214.269531 455.066406 227.976562 468.769531 244.882812 468.769531 L 224.472656 468.769531 L 108.453125 415.628906 C 91.707031 407.957031 71.925781 415.316406 64.25 432.058594 C 62.25 436.414062 61.222656 441.160156 61.222656 445.945312 L 61.222656 448.167969 C 61.222656 460.800781 68.363281 472.351562 79.660156 477.996094 L 198.621094 537.480469 C 215.628906 545.96875 234.371094 550.386719 253.382812 550.378906 L 469.355469 550.378906 L 469.355469 407.53125 C 424.960938 382.175781 370.597656 381.644531 325.710938 406.132812 Z M 325.710938 406.132812 " style=" stroke:none;fill-rule:nonzero;fill:rgb(100%,71.764706%,50.980392%);fill-opacity:1;" />
<path d="M 469.355469 407.550781 L 602 407.550781 L 602 550.398438 L 469.355469 550.398438 Z M 469.355469 407.550781 " style=" stroke:none;fill-rule:nonzero;fill:rgb(87.058824%,29.803922%,23.529412%);fill-opacity:1;" />
<path d="M 499.964844 499.378906 L 520.371094 499.378906 L 520.371094 519.789062 L 499.964844 519.789062 Z M 499.964844 499.378906 " style=" stroke:none;fill-rule:nonzero;fill:rgb(47.843137%,28.627451%,18.823529%);fill-opacity:1;" />
<path d="M 326.507812 478.953125 L 244.882812 478.953125 C 239.25 478.953125 234.679688 474.382812 234.679688 468.75 C 234.679688 463.117188 239.25 458.546875 244.882812 458.546875 L 326.507812 458.546875 C 332.140625 458.546875 336.710938 463.117188 336.710938 468.75 C 336.710938 474.382812 332.140625 478.953125 326.507812 478.953125 Z M 326.507812 478.953125 " style=" stroke:none;fill-rule:nonzero;fill:rgb(94.901961%,64.313725%,43.529412%);fill-opacity:1;" />
</g>
</svg>