<svg xmlns="http://www.w3.org/2000/svg" height="591pt" version="1.1" viewBox="1 1 591 591.60003" width="591pt">
<g id="surface1">
<path d="M 425.160156 418.484375 L 398.367188 347.035156 L 296.300781 347.035156 L 269.507812 418.484375 L 235.058594 418.484375 L 235.058594 438.898438 L 459.609375 438.898438 L 459.609375 418.484375 Z M 425.160156 418.484375 " style=" stroke:none;fill-rule:nonzero;fill:rgb(85.490196%,86.666667%,87.45098%);fill-opacity:1;" />
<path d="M 132.988281 0 C 116.078125 0 102.367188 13.707031 102.367188 30.621094 L 102.367188 285.792969 L 592.300781 285.792969 L 592.300781 30.621094 C 592.300781 13.707031 578.589844 0 561.679688 0 Z M 132.988281 0 " style=" stroke:none;fill-rule:nonzero;fill:rgb(52.941176%,80.784314%,85.098039%);fill-opacity:1;" />
<path d="M 561.679688 0 L 515.75 0 L 229.957031 285.792969 L 592.300781 285.792969 L 592.300781 30.621094 C 592.300781 13.707031 578.589844 0 561.679688 0 Z M 561.679688 0 " style=" stroke:none;fill-rule:nonzero;fill:rgb(44.313725%,76.862745%,81.960784%);fill-opacity:1;" />
<path d="M 102.367188 285.792969 L 102.367188 316.414062 C 102.367188 333.328125 116.078125 347.035156 132.988281 347.035156 L 561.679688 347.035156 C 578.589844 347.035156 592.300781 333.328125 592.300781 316.414062 L 592.300781 285.792969 Z M 102.367188 285.792969 " style=" stroke:none;fill-rule:nonzero;fill:rgb(85.490196%,86.666667%,87.45098%);fill-opacity:1;" />
<path d="M 406.023438 367.449219 L 398.367188 347.035156 L 296.300781 347.035156 L 288.644531 367.449219 Z M 406.023438 367.449219 " style=" stroke:none;fill-rule:nonzero;fill:rgb(75.686275%,78.039216%,78.823529%);fill-opacity:1;" />
<path d="M 153.402344 30.621094 L 173.816406 30.621094 L 173.816406 51.035156 L 153.402344 51.035156 Z M 153.402344 30.621094 " style=" stroke:none;fill-rule:nonzero;fill:rgb(36.862745%,70.196078%,81.960784%);fill-opacity:1;" />
<path d="M 194.230469 30.621094 L 214.644531 30.621094 L 214.644531 51.035156 L 194.230469 51.035156 Z M 194.230469 30.621094 " style=" stroke:none;fill-rule:nonzero;fill:rgb(36.862745%,70.196078%,81.960784%);fill-opacity:1;" />
<path d="M 235.058594 30.621094 L 255.472656 30.621094 L 255.472656 51.035156 L 235.058594 51.035156 Z M 235.058594 30.621094 " style=" stroke:none;fill-rule:nonzero;fill:rgb(36.862745%,70.196078%,81.960784%);fill-opacity:1;" />
<path d="M 194.230469 234.757812 L 541.265625 234.757812 L 541.265625 255.171875 L 194.230469 255.171875 Z M 194.230469 234.757812 " style=" stroke:none;fill-rule:nonzero;fill:rgb(36.862745%,70.196078%,81.960784%);fill-opacity:1;" />
<path d="M 235.058594 183.722656 L 255.472656 183.722656 L 255.472656 214.34375 L 235.058594 214.34375 Z M 235.058594 183.722656 " style=" stroke:none;fill-rule:nonzero;fill:rgb(36.862745%,70.196078%,81.960784%);fill-opacity:1;" />
<path d="M 275.886719 173.515625 L 296.300781 173.515625 L 296.300781 214.34375 L 275.886719 214.34375 Z M 275.886719 173.515625 " style=" stroke:none;fill-rule:nonzero;fill:rgb(36.862745%,70.196078%,81.960784%);fill-opacity:1;" />
<path d="M 316.714844 163.308594 L 337.128906 163.308594 L 337.128906 214.34375 L 316.714844 214.34375 Z M 316.714844 163.308594 " style=" stroke:none;fill-rule:nonzero;fill:rgb(36.862745%,70.196078%,81.960784%);fill-opacity:1;" />
<path d="M 357.542969 122.484375 L 377.957031 122.484375 L 377.957031 214.34375 L 357.542969 214.34375 Z M 357.542969 122.484375 " style=" stroke:none;fill-rule:nonzero;fill:rgb(36.862745%,70.196078%,81.960784%);fill-opacity:1;" />
<path d="M 398.367188 142.898438 L 418.78125 142.898438 L 418.78125 214.34375 L 398.367188 214.34375 Z M 398.367188 142.898438 " style=" stroke:none;fill-rule:nonzero;fill:rgb(36.862745%,70.196078%,81.960784%);fill-opacity:1;" />
<path d="M 439.195312 81.65625 L 459.609375 81.65625 L 459.609375 214.34375 L 439.195312 214.34375 Z M 439.195312 81.65625 " style=" stroke:none;fill-rule:nonzero;fill:rgb(36.862745%,70.196078%,81.960784%);fill-opacity:1;" />
<path d="M 480.023438 102.070312 L 500.4375 102.070312 L 500.4375 214.34375 L 480.023438 214.34375 Z M 480.023438 102.070312 " style=" stroke:none;fill-rule:nonzero;fill:rgb(36.862745%,70.196078%,81.960784%);fill-opacity:1;" />
<path d="M 520.851562 51.035156 L 541.265625 51.035156 L 541.265625 214.34375 L 520.851562 214.34375 Z M 520.851562 51.035156 " style=" stroke:none;fill-rule:nonzero;fill:rgb(36.862745%,70.196078%,81.960784%);fill-opacity:1;" />
<path d="M 367.75 540.964844 C 367.75 569.152344 344.898438 592 316.714844 592 C 288.527344 592 265.679688 569.152344 265.679688 540.964844 C 265.679688 512.78125 288.527344 489.929688 316.714844 489.929688 C 344.898438 489.929688 367.75 512.78125 367.75 540.964844 Z M 367.75 540.964844 " style=" stroke:none;fill-rule:nonzero;fill:rgb(99.215686%,71.372549%,18.431373%);fill-opacity:1;" />
<path d="M 520.851562 520.550781 C 520.851562 548.738281 498.003906 571.585938 469.816406 571.585938 C 441.632812 571.585938 418.78125 548.738281 418.78125 520.550781 C 418.78125 492.367188 441.632812 469.515625 469.816406 469.515625 C 498.003906 469.515625 520.851562 492.367188 520.851562 520.550781 Z M 520.851562 520.550781 " style=" stroke:none;fill-rule:nonzero;fill:rgb(100%,63.529412%,18.823529%);fill-opacity:1;" />
<path d="M 173.816406 0 L 163.609375 0 C 129.785156 0 102.367188 27.414062 102.367188 61.242188 L 112.574219 61.242188 C 146.402344 61.242188 173.816406 33.824219 173.816406 0 Z M 173.816406 0 " style=" stroke:none;fill-rule:nonzero;fill:rgb(41.960784%,58.823529%,16.470588%);fill-opacity:1;" />
<path d="M 122.78125 173.515625 L 102.367188 173.515625 C 102.367188 128.421875 138.929688 91.863281 184.023438 91.863281 L 204.4375 91.863281 C 204.4375 136.957031 167.878906 173.515625 122.78125 173.515625 Z M 122.78125 173.515625 " style=" stroke:none;fill-rule:nonzero;fill:rgb(41.960784%,58.823529%,16.470588%);fill-opacity:1;" />
<path d="M 122.78125 285.792969 L 102.367188 285.792969 C 102.367188 240.699219 138.929688 204.136719 184.023438 204.136719 L 204.4375 204.136719 C 204.4375 249.230469 167.878906 285.792969 122.78125 285.792969 Z M 122.78125 285.792969 " style=" stroke:none;fill-rule:nonzero;fill:rgb(41.960784%,58.823529%,16.470588%);fill-opacity:1;" />
<path d="M 92.160156 61.242188 L 112.574219 61.242188 L 112.574219 285.792969 L 92.160156 285.792969 Z M 92.160156 61.242188 " style=" stroke:none;fill-rule:nonzero;fill:rgb(41.960784%,58.823529%,16.470588%);fill-opacity:1;" />
<path d="M 102.367188 61.242188 L 92.160156 61.242188 C 58.335938 61.242188 30.921875 33.824219 30.921875 0 L 41.128906 0 C 74.953125 0 102.367188 27.414062 102.367188 61.242188 Z M 102.367188 61.242188 " style=" stroke:none;fill-rule:nonzero;fill:rgb(53.333333%,70.196078%,21.568627%);fill-opacity:1;" />
<path d="M 0.300781 91.863281 L 20.714844 91.863281 C 65.808594 91.863281 102.367188 128.421875 102.367188 173.515625 L 81.957031 173.515625 C 36.859375 173.515625 0.300781 136.957031 0.300781 91.863281 Z M 0.300781 91.863281 " style=" stroke:none;fill-rule:nonzero;fill:rgb(53.333333%,70.196078%,21.568627%);fill-opacity:1;" />
<path d="M 0.300781 204.136719 L 20.714844 204.136719 C 65.808594 204.136719 102.367188 240.699219 102.367188 285.792969 L 81.957031 285.792969 C 36.859375 285.792969 0.300781 249.230469 0.300781 204.136719 Z M 0.300781 204.136719 " style=" stroke:none;fill-rule:nonzero;fill:rgb(53.333333%,70.196078%,21.568627%);fill-opacity:1;" />
<path d="M 0.300781 530.757812 L 163.609375 530.757812 L 163.609375 592 L 0.300781 592 Z M 0.300781 530.757812 " style=" stroke:none;fill-rule:nonzero;fill:rgb(99.215686%,71.372549%,18.431373%);fill-opacity:1;" />
<path d="M 41.128906 469.515625 L 204.4375 469.515625 L 204.4375 530.757812 L 41.128906 530.757812 Z M 41.128906 469.515625 " style=" stroke:none;fill-rule:nonzero;fill:rgb(100%,63.529412%,18.823529%);fill-opacity:1;" />
<path d="M 0.300781 408.277344 L 163.609375 408.277344 L 163.609375 469.515625 L 0.300781 469.515625 Z M 0.300781 408.277344 " style=" stroke:none;fill-rule:nonzero;fill:rgb(99.215686%,71.372549%,18.431373%);fill-opacity:1;" />
<path d="M 20.714844 347.035156 L 184.023438 347.035156 L 184.023438 408.277344 L 20.714844 408.277344 Z M 20.714844 347.035156 " style=" stroke:none;fill-rule:nonzero;fill:rgb(100%,63.529412%,18.823529%);fill-opacity:1;" />
<path d="M 0.300781 285.792969 L 163.609375 285.792969 L 163.609375 347.035156 L 0.300781 347.035156 Z M 0.300781 285.792969 " style=" stroke:none;fill-rule:nonzero;fill:rgb(99.215686%,71.372549%,18.431373%);fill-opacity:1;" />
<path d="M 71.75 500.136719 L 92.160156 500.136719 L 92.160156 530.757812 L 71.75 530.757812 Z M 71.75 500.136719 " style=" stroke:none;fill-rule:nonzero;fill:rgb(99.215686%,48.235294%,18.431373%);fill-opacity:1;" />
<path d="M 112.574219 500.136719 L 132.988281 500.136719 L 132.988281 530.757812 L 112.574219 530.757812 Z M 112.574219 500.136719 " style=" stroke:none;fill-rule:nonzero;fill:rgb(99.215686%,48.235294%,18.431373%);fill-opacity:1;" />
<path d="M 153.402344 500.136719 L 173.816406 500.136719 L 173.816406 530.757812 L 153.402344 530.757812 Z M 153.402344 500.136719 " style=" stroke:none;fill-rule:nonzero;fill:rgb(99.215686%,48.235294%,18.431373%);fill-opacity:1;" />
<path d="M 51.335938 377.65625 L 71.75 377.65625 L 71.75 408.277344 L 51.335938 408.277344 Z M 51.335938 377.65625 " style=" stroke:none;fill-rule:nonzero;fill:rgb(99.215686%,48.235294%,18.431373%);fill-opacity:1;" />
<path d="M 92.160156 377.65625 L 112.574219 377.65625 L 112.574219 408.277344 L 92.160156 408.277344 Z M 92.160156 377.65625 " style=" stroke:none;fill-rule:nonzero;fill:rgb(99.215686%,48.235294%,18.431373%);fill-opacity:1;" />
<path d="M 132.988281 377.65625 L 153.402344 377.65625 L 153.402344 408.277344 L 132.988281 408.277344 Z M 132.988281 377.65625 " style=" stroke:none;fill-rule:nonzero;fill:rgb(99.215686%,48.235294%,18.431373%);fill-opacity:1;" />
<path d="M 30.921875 561.378906 L 51.335938 561.378906 L 51.335938 592 L 30.921875 592 Z M 30.921875 561.378906 " style=" stroke:none;fill-rule:nonzero;fill:rgb(99.215686%,48.235294%,18.431373%);fill-opacity:1;" />
<path d="M 71.75 561.378906 L 92.160156 561.378906 L 92.160156 592 L 71.75 592 Z M 71.75 561.378906 " style=" stroke:none;fill-rule:nonzero;fill:rgb(99.215686%,48.235294%,18.431373%);fill-opacity:1;" />
<path d="M 112.574219 561.378906 L 132.988281 561.378906 L 132.988281 592 L 112.574219 592 Z M 112.574219 561.378906 " style=" stroke:none;fill-rule:nonzero;fill:rgb(99.215686%,48.235294%,18.431373%);fill-opacity:1;" />
<path d="M 30.921875 438.898438 L 51.335938 438.898438 L 51.335938 469.515625 L 30.921875 469.515625 Z M 30.921875 438.898438 " style=" stroke:none;fill-rule:nonzero;fill:rgb(99.215686%,48.235294%,18.431373%);fill-opacity:1;" />
<path d="M 71.75 438.898438 L 92.160156 438.898438 L 92.160156 469.515625 L 71.75 469.515625 Z M 71.75 438.898438 " style=" stroke:none;fill-rule:nonzero;fill:rgb(99.215686%,48.235294%,18.431373%);fill-opacity:1;" />
<path d="M 112.574219 438.898438 L 132.988281 438.898438 L 132.988281 469.515625 L 112.574219 469.515625 Z M 112.574219 438.898438 " style=" stroke:none;fill-rule:nonzero;fill:rgb(99.215686%,48.235294%,18.431373%);fill-opacity:1;" />
<path d="M 30.921875 316.414062 L 51.335938 316.414062 L 51.335938 347.035156 L 30.921875 347.035156 Z M 30.921875 316.414062 " style=" stroke:none;fill-rule:nonzero;fill:rgb(99.215686%,48.235294%,18.431373%);fill-opacity:1;" />
<path d="M 71.75 316.414062 L 92.160156 316.414062 L 92.160156 347.035156 L 71.75 347.035156 Z M 71.75 316.414062 " style=" stroke:none;fill-rule:nonzero;fill:rgb(99.215686%,48.235294%,18.431373%);fill-opacity:1;" />
<path d="M 112.574219 316.414062 L 132.988281 316.414062 L 132.988281 347.035156 L 112.574219 347.035156 Z M 112.574219 316.414062 " style=" stroke:none;fill-rule:nonzero;fill:rgb(99.215686%,48.235294%,18.431373%);fill-opacity:1;" />
</g>
</svg>