<svg xmlns="http://www.w3.org/2000/svg" height="591pt" version="1.1" viewBox="-51 1 591 591.6" width="591pt">
<g id="surface1">
<path d="M 326.957031 592 L 61.574219 592 C 39.027344 592 20.75 573.71875 20.75 551.171875 L 20.75 380.0625 C 20.75 365.058594 17.257812 350.25 10.542969 336.828125 C 3.824219 323.40625 0.335938 308.59375 0.335938 293.589844 L 0.335938 81.65625 C 0.335938 59.109375 18.613281 40.828125 41.160156 40.828125 L 347.367188 40.828125 C 369.917969 40.828125 388.195312 59.109375 388.195312 81.65625 L 388.195312 293.589844 C 388.195312 308.59375 384.707031 323.40625 377.988281 336.828125 C 371.273438 350.25 367.78125 365.058594 367.78125 380.0625 L 367.78125 551.171875 C 367.78125 573.71875 349.503906 592 326.957031 592 Z M 326.957031 592 " style=" stroke:none;fill-rule:nonzero;fill:rgb(85.490196%,86.666667%,87.45098%);fill-opacity:1;" />
<path d="M 184.058594 336.828125 L 204.472656 336.828125 C 215.75 336.828125 224.886719 345.960938 224.886719 357.242188 C 224.886719 368.519531 215.75 377.65625 204.472656 377.65625 L 184.058594 377.65625 C 172.78125 377.65625 163.644531 368.519531 163.644531 357.242188 C 163.644531 345.960938 172.78125 336.828125 184.058594 336.828125 Z M 184.058594 336.828125 " style=" stroke:none;fill-rule:nonzero;fill:rgb(74.117647%,74.117647%,74.117647%);fill-opacity:1;" />
<path d="M 286.128906 336.828125 L 306.542969 336.828125 C 317.820312 336.828125 326.957031 345.960938 326.957031 357.242188 C 326.957031 368.519531 317.820312 377.65625 306.542969 377.65625 L 286.128906 377.65625 C 274.847656 377.65625 265.714844 368.519531 265.714844 357.242188 C 265.714844 345.960938 274.847656 336.828125 286.128906 336.828125 Z M 286.128906 336.828125 " style=" stroke:none;fill-rule:nonzero;fill:rgb(74.117647%,74.117647%,74.117647%);fill-opacity:1;" />
<path d="M 81.988281 336.828125 L 102.402344 336.828125 C 113.683594 336.828125 122.816406 345.960938 122.816406 357.242188 C 122.816406 368.519531 113.683594 377.65625 102.402344 377.65625 L 81.988281 377.65625 C 70.710938 377.65625 61.574219 368.519531 61.574219 357.242188 C 61.574219 345.960938 70.710938 336.828125 81.988281 336.828125 Z M 81.988281 336.828125 " style=" stroke:none;fill-rule:nonzero;fill:rgb(74.117647%,74.117647%,74.117647%);fill-opacity:1;" />
<path d="M 184.058594 418.484375 L 204.472656 418.484375 C 215.75 418.484375 224.886719 427.617188 224.886719 438.898438 C 224.886719 450.175781 215.75 459.308594 204.472656 459.308594 L 184.058594 459.308594 C 172.78125 459.308594 163.644531 450.175781 163.644531 438.898438 C 163.644531 427.617188 172.78125 418.484375 184.058594 418.484375 Z M 184.058594 418.484375 " style=" stroke:none;fill-rule:nonzero;fill:rgb(74.117647%,74.117647%,74.117647%);fill-opacity:1;" />
<path d="M 286.128906 418.484375 L 306.542969 418.484375 C 317.820312 418.484375 326.957031 427.617188 326.957031 438.898438 C 326.957031 450.175781 317.820312 459.308594 306.542969 459.308594 L 286.128906 459.308594 C 274.847656 459.308594 265.714844 450.175781 265.714844 438.898438 C 265.714844 427.617188 274.847656 418.484375 286.128906 418.484375 Z M 286.128906 418.484375 " style=" stroke:none;fill-rule:nonzero;fill:rgb(74.117647%,74.117647%,74.117647%);fill-opacity:1;" />
<path d="M 81.988281 418.484375 L 102.402344 418.484375 C 113.683594 418.484375 122.816406 427.617188 122.816406 438.898438 C 122.816406 450.175781 113.683594 459.308594 102.402344 459.308594 L 81.988281 459.308594 C 70.710938 459.308594 61.574219 450.175781 61.574219 438.898438 C 61.574219 427.617188 70.710938 418.484375 81.988281 418.484375 Z M 81.988281 418.484375 " style=" stroke:none;fill-rule:nonzero;fill:rgb(74.117647%,74.117647%,74.117647%);fill-opacity:1;" />
<path d="M 184.058594 500.136719 L 204.472656 500.136719 C 215.75 500.136719 224.886719 509.273438 224.886719 520.550781 C 224.886719 531.832031 215.75 540.964844 204.472656 540.964844 L 184.058594 540.964844 C 172.78125 540.964844 163.644531 531.832031 163.644531 520.550781 C 163.644531 509.273438 172.78125 500.136719 184.058594 500.136719 Z M 184.058594 500.136719 " style=" stroke:none;fill-rule:nonzero;fill:rgb(99.215686%,71.372549%,18.431373%);fill-opacity:1;" />
<path d="M 286.128906 500.136719 L 306.542969 500.136719 C 317.820312 500.136719 326.957031 509.273438 326.957031 520.550781 C 326.957031 531.832031 317.820312 540.964844 306.542969 540.964844 L 286.128906 540.964844 C 274.847656 540.964844 265.714844 531.832031 265.714844 520.550781 C 265.714844 509.273438 274.847656 500.136719 286.128906 500.136719 Z M 286.128906 500.136719 " style=" stroke:none;fill-rule:nonzero;fill:rgb(50.196078%,65.882353%,20.392157%);fill-opacity:1;" />
<path d="M 81.988281 500.136719 L 102.402344 500.136719 C 113.683594 500.136719 122.816406 509.273438 122.816406 520.550781 C 122.816406 531.832031 113.683594 540.964844 102.402344 540.964844 L 81.988281 540.964844 C 70.710938 540.964844 61.574219 531.832031 61.574219 520.550781 C 61.574219 509.273438 70.710938 500.136719 81.988281 500.136719 Z M 81.988281 500.136719 " style=" stroke:none;fill-rule:nonzero;fill:rgb(95.686275%,41.960784%,15.294118%);fill-opacity:1;" />
<path d="M 61.574219 81.65625 L 326.957031 81.65625 C 338.234375 81.65625 347.367188 90.789062 347.367188 102.070312 L 347.367188 265.378906 C 347.367188 276.65625 338.234375 285.792969 326.957031 285.792969 L 61.574219 285.792969 C 50.296875 285.792969 41.160156 276.65625 41.160156 265.378906 L 41.160156 102.070312 C 41.160156 90.789062 50.296875 81.65625 61.574219 81.65625 Z M 61.574219 81.65625 " style=" stroke:none;fill-rule:nonzero;fill:rgb(52.941176%,80.784314%,85.098039%);fill-opacity:1;" />
<path d="M 326.957031 81.65625 L 309.941406 81.65625 L 105.804688 285.792969 L 326.957031 285.792969 C 338.234375 285.792969 347.367188 276.65625 347.367188 265.378906 L 347.367188 102.070312 C 347.367188 90.789062 338.234375 81.65625 326.957031 81.65625 Z M 326.957031 81.65625 " style=" stroke:none;fill-rule:nonzero;fill:rgb(44.313725%,76.862745%,81.960784%);fill-opacity:1;" />
<path d="M 347.367188 244.964844 L 388.195312 244.964844 L 388.195312 265.378906 L 347.367188 265.378906 Z M 347.367188 244.964844 " style=" stroke:none;fill-rule:nonzero;fill:rgb(81.176471%,82.352941%,83.137255%);fill-opacity:1;" />
<path d="M 102.402344 81.65625 L 347.367188 81.65625 L 347.367188 265.378906 L 143.230469 265.378906 C 120.683594 265.378906 102.402344 247.097656 102.402344 224.550781 Z M 102.402344 81.65625 " style=" stroke:none;fill-rule:nonzero;fill:rgb(44.313725%,76.862745%,81.960784%);fill-opacity:1;" />
<path d="M 81.988281 204.136719 L 81.988281 40.828125 C 81.988281 18.28125 100.269531 0 122.816406 0 L 449.4375 0 C 471.984375 0 490.265625 18.28125 490.265625 40.828125 L 490.265625 204.136719 C 490.265625 226.683594 471.984375 244.964844 449.4375 244.964844 L 122.816406 244.964844 C 100.269531 244.964844 81.988281 226.683594 81.988281 204.136719 Z M 81.988281 204.136719 " style=" stroke:none;fill-rule:nonzero;fill:rgb(26.27451%,59.607843%,81.960784%);fill-opacity:1;" />
<path d="M 122.816406 40.828125 L 163.644531 40.828125 L 163.644531 81.65625 L 122.816406 81.65625 Z M 122.816406 40.828125 " style=" stroke:none;fill-rule:nonzero;fill:rgb(99.215686%,71.372549%,18.431373%);fill-opacity:1;" />
<path d="M 163.644531 40.828125 L 163.644531 81.65625 L 122.816406 81.65625 Z M 163.644531 40.828125 " style=" stroke:none;fill-rule:nonzero;fill:rgb(100%,63.529412%,18.823529%);fill-opacity:1;" />
<path d="M 112.609375 112.277344 L 153.4375 112.277344 L 153.4375 132.691406 L 112.609375 132.691406 Z M 112.609375 112.277344 " style=" stroke:none;fill-rule:nonzero;fill:rgb(36.862745%,70.196078%,81.960784%);fill-opacity:1;" />
<path d="M 112.609375 153.101562 L 153.4375 153.101562 L 153.4375 173.515625 L 112.609375 173.515625 Z M 112.609375 153.101562 " style=" stroke:none;fill-rule:nonzero;fill:rgb(36.862745%,70.196078%,81.960784%);fill-opacity:1;" />
<path d="M 173.851562 112.277344 L 214.679688 112.277344 L 214.679688 132.691406 L 173.851562 132.691406 Z M 173.851562 112.277344 " style=" stroke:none;fill-rule:nonzero;fill:rgb(36.862745%,70.196078%,81.960784%);fill-opacity:1;" />
<path d="M 235.09375 112.277344 L 275.921875 112.277344 L 275.921875 132.691406 L 235.09375 132.691406 Z M 235.09375 112.277344 " style=" stroke:none;fill-rule:nonzero;fill:rgb(36.862745%,70.196078%,81.960784%);fill-opacity:1;" />
<path d="M 296.335938 112.277344 L 337.160156 112.277344 L 337.160156 132.691406 L 296.335938 132.691406 Z M 296.335938 112.277344 " style=" stroke:none;fill-rule:nonzero;fill:rgb(36.862745%,70.196078%,81.960784%);fill-opacity:1;" />
<path d="M 357.574219 112.277344 L 398.402344 112.277344 L 398.402344 132.691406 L 357.574219 132.691406 Z M 357.574219 112.277344 " style=" stroke:none;fill-rule:nonzero;fill:rgb(36.862745%,70.196078%,81.960784%);fill-opacity:1;" />
<path d="M 418.816406 112.277344 L 459.644531 112.277344 L 459.644531 132.691406 L 418.816406 132.691406 Z M 418.816406 112.277344 " style=" stroke:none;fill-rule:nonzero;fill:rgb(36.862745%,70.196078%,81.960784%);fill-opacity:1;" />
<path d="M 429.023438 40.828125 L 449.4375 40.828125 L 449.4375 61.242188 L 429.023438 61.242188 Z M 429.023438 40.828125 " style=" stroke:none;fill-rule:nonzero;fill:rgb(36.862745%,70.196078%,81.960784%);fill-opacity:1;" />
<path d="M 388.195312 40.828125 L 408.609375 40.828125 L 408.609375 61.242188 L 388.195312 61.242188 Z M 388.195312 40.828125 " style=" stroke:none;fill-rule:nonzero;fill:rgb(36.862745%,70.196078%,81.960784%);fill-opacity:1;" />
<path d="M 347.367188 40.828125 L 367.78125 40.828125 L 367.78125 61.242188 L 347.367188 61.242188 Z M 347.367188 40.828125 " style=" stroke:none;fill-rule:nonzero;fill:rgb(36.862745%,70.196078%,81.960784%);fill-opacity:1;" />
<path d="M 306.542969 40.828125 L 326.957031 40.828125 L 326.957031 61.242188 L 306.542969 61.242188 Z M 306.542969 40.828125 " style=" stroke:none;fill-rule:nonzero;fill:rgb(36.862745%,70.196078%,81.960784%);fill-opacity:1;" />
<path d="M 449.4375 183.722656 C 449.4375 195 440.296875 204.136719 429.023438 204.136719 C 417.75 204.136719 408.609375 195 408.609375 183.722656 C 408.609375 172.449219 417.75 163.308594 429.023438 163.308594 C 440.296875 163.308594 449.4375 172.449219 449.4375 183.722656 Z M 449.4375 183.722656 " style=" stroke:none;fill-rule:nonzero;fill:rgb(99.215686%,71.372549%,18.431373%);fill-opacity:1;" />
<path d="M 408.609375 183.722656 C 408.609375 195 399.472656 204.136719 388.195312 204.136719 C 376.921875 204.136719 367.78125 195 367.78125 183.722656 C 367.78125 172.449219 376.921875 163.308594 388.195312 163.308594 C 399.472656 163.308594 408.609375 172.449219 408.609375 183.722656 Z M 408.609375 183.722656 " style=" stroke:none;fill-rule:nonzero;fill:rgb(87.058824%,29.803922%,23.529412%);fill-opacity:1;" />
</g>
</svg>