<svg xmlns="http://www.w3.org/2000/svg" height="601pt" version="1.1" viewBox="-5 1 601 601.8" width="601pt">
<g id="surface1">
<path d="M 0.402344 377.527344 L 592.199219 377.527344 C 592.199219 422.605469 555.648438 459.152344 510.570312 459.152344 L 82.027344 459.152344 C 36.949219 459.152344 0.402344 422.605469 0.402344 377.527344 Z M 0.402344 377.527344 " style=" stroke:none;fill-rule:nonzero;fill:rgb(85.490196%,86.666667%,87.45098%);fill-opacity:1;" />
<path d="M 510.570312 377.527344 C 510.570312 422.605469 474.023438 459.152344 428.945312 459.152344 L 510.570312 459.152344 C 555.648438 459.152344 592.199219 422.605469 592.199219 377.527344 Z M 510.570312 377.527344 " style=" stroke:none;fill-rule:nonzero;fill:rgb(81.176471%,82.352941%,83.137255%);fill-opacity:1;" />
<path d="M 112.640625 30.609375 L 479.960938 30.609375 L 479.960938 377.527344 L 112.640625 377.527344 Z M 112.640625 30.609375 " style=" stroke:none;fill-rule:nonzero;fill:rgb(26.27451%,59.607843%,81.960784%);fill-opacity:1;" />
<path d="M 168.503906 377.527344 L 479.960938 377.527344 L 479.960938 30.609375 L 421.332031 30.609375 Z M 168.503906 377.527344 " style=" stroke:none;fill-rule:nonzero;fill:rgb(24.313725%,54.901961%,78.039216%);fill-opacity:1;" />
<path d="M 316.707031 153.050781 L 357.519531 153.050781 L 357.519531 193.863281 L 316.707031 193.863281 Z M 316.707031 153.050781 " style=" stroke:none;fill-rule:nonzero;fill:rgb(52.941176%,80.784314%,85.098039%);fill-opacity:1;" />
<path d="M 398.332031 153.050781 L 439.148438 153.050781 L 439.148438 193.863281 L 398.332031 193.863281 Z M 398.332031 153.050781 " style=" stroke:none;fill-rule:nonzero;fill:rgb(52.941176%,80.784314%,85.098039%);fill-opacity:1;" />
<path d="M 235.078125 153.050781 L 275.894531 153.050781 L 275.894531 193.863281 L 235.078125 193.863281 Z M 235.078125 153.050781 " style=" stroke:none;fill-rule:nonzero;fill:rgb(52.941176%,80.784314%,85.098039%);fill-opacity:1;" />
<path d="M 316.707031 234.679688 L 357.519531 234.679688 L 357.519531 275.492188 L 316.707031 275.492188 Z M 316.707031 234.679688 " style=" stroke:none;fill-rule:nonzero;fill:rgb(52.941176%,80.784314%,85.098039%);fill-opacity:1;" />
<path d="M 398.332031 234.679688 L 439.148438 234.679688 L 439.148438 275.492188 L 398.332031 275.492188 Z M 398.332031 234.679688 " style=" stroke:none;fill-rule:nonzero;fill:rgb(52.941176%,80.784314%,85.098039%);fill-opacity:1;" />
<path d="M 235.078125 234.679688 L 275.894531 234.679688 L 275.894531 275.492188 L 235.078125 275.492188 Z M 235.078125 234.679688 " style=" stroke:none;fill-rule:nonzero;fill:rgb(52.941176%,80.784314%,85.098039%);fill-opacity:1;" />
<path d="M 398.332031 316.304688 L 439.148438 316.304688 L 439.148438 377.527344 L 398.332031 377.527344 Z M 398.332031 316.304688 " style=" stroke:none;fill-rule:nonzero;fill:rgb(52.941176%,80.784314%,85.098039%);fill-opacity:1;" />
<path d="M 235.078125 316.304688 L 357.519531 316.304688 L 357.519531 377.527344 L 235.078125 377.527344 Z M 235.078125 316.304688 " style=" stroke:none;fill-rule:nonzero;fill:rgb(52.941176%,80.784314%,85.098039%);fill-opacity:1;" />
<path d="M 153.453125 153.050781 L 194.265625 153.050781 L 194.265625 193.863281 L 153.453125 193.863281 Z M 153.453125 153.050781 " style=" stroke:none;fill-rule:nonzero;fill:rgb(52.941176%,80.784314%,85.098039%);fill-opacity:1;" />
<path d="M 316.707031 71.421875 L 357.519531 71.421875 L 357.519531 112.238281 L 316.707031 112.238281 Z M 316.707031 71.421875 " style=" stroke:none;fill-rule:nonzero;fill:rgb(52.941176%,80.784314%,85.098039%);fill-opacity:1;" />
<path d="M 398.332031 71.421875 L 439.148438 71.421875 L 439.148438 112.238281 L 398.332031 112.238281 Z M 398.332031 71.421875 " style=" stroke:none;fill-rule:nonzero;fill:rgb(52.941176%,80.784314%,85.098039%);fill-opacity:1;" />
<path d="M 235.078125 71.421875 L 275.894531 71.421875 L 275.894531 112.238281 L 235.078125 112.238281 Z M 235.078125 71.421875 " style=" stroke:none;fill-rule:nonzero;fill:rgb(52.941176%,80.784314%,85.098039%);fill-opacity:1;" />
<path d="M 153.453125 71.421875 L 194.265625 71.421875 L 194.265625 112.238281 L 153.453125 112.238281 Z M 153.453125 71.421875 " style=" stroke:none;fill-rule:nonzero;fill:rgb(52.941176%,80.784314%,85.098039%);fill-opacity:1;" />
<path d="M 153.453125 234.679688 L 194.265625 234.679688 L 194.265625 275.492188 L 153.453125 275.492188 Z M 153.453125 234.679688 " style=" stroke:none;fill-rule:nonzero;fill:rgb(52.941176%,80.784314%,85.098039%);fill-opacity:1;" />
<path d="M 153.453125 316.304688 L 194.265625 316.304688 L 194.265625 377.527344 L 153.453125 377.527344 Z M 153.453125 316.304688 " style=" stroke:none;fill-rule:nonzero;fill:rgb(52.941176%,80.784314%,85.098039%);fill-opacity:1;" />
<path d="M 286.097656 316.304688 L 306.503906 316.304688 L 306.503906 377.527344 L 286.097656 377.527344 Z M 286.097656 316.304688 " style=" stroke:none;fill-rule:nonzero;fill:rgb(36.862745%,70.196078%,81.960784%);fill-opacity:1;" />
<path d="M 143.25 0 L 163.65625 0 L 163.65625 30.609375 L 143.25 30.609375 Z M 143.25 0 " style=" stroke:none;fill-rule:nonzero;fill:rgb(7.058824%,37.647059%,60%);fill-opacity:1;" />
<path d="M 428.945312 0 L 449.351562 0 L 449.351562 30.609375 L 428.945312 30.609375 Z M 428.945312 0 " style=" stroke:none;fill-rule:nonzero;fill:rgb(7.058824%,37.647059%,60%);fill-opacity:1;" />
<path d="M 184.0625 0 L 204.46875 0 L 204.46875 30.609375 L 184.0625 30.609375 Z M 184.0625 0 " style=" stroke:none;fill-rule:nonzero;fill:rgb(7.058824%,37.647059%,60%);fill-opacity:1;" />
<path d="M 388.128906 0 L 408.539062 0 L 408.539062 30.609375 L 388.128906 30.609375 Z M 388.128906 0 " style=" stroke:none;fill-rule:nonzero;fill:rgb(7.058824%,37.647059%,60%);fill-opacity:1;" />
<path d="M 315.910156 457.734375 L 313.308594 459.152344 L 235.078125 459.152344 C 218.171875 459.152344 204.46875 472.855469 204.46875 489.761719 C 204.46875 506.667969 218.171875 520.371094 235.078125 520.371094 L 214.671875 520.371094 L 98.648438 467.234375 C 81.90625 459.5625 62.121094 466.917969 54.449219 483.660156 C 52.449219 488.015625 51.417969 492.75 51.417969 497.546875 L 51.417969 499.761719 C 51.429688 512.382812 58.5625 523.910156 69.855469 529.554688 L 188.816406 589.039062 C 205.816406 597.550781 224.570312 601.988281 243.578125 602 L 459.554688 602 L 459.554688 459.152344 C 415.160156 433.789062 360.796875 433.246094 315.910156 457.734375 Z M 315.910156 457.734375 " style=" stroke:none;fill-rule:nonzero;fill:rgb(100%,71.764706%,50.980392%);fill-opacity:1;" />
<path d="M 459.554688 459.152344 L 592.199219 459.152344 L 592.199219 602 L 459.554688 602 Z M 459.554688 459.152344 " style=" stroke:none;fill-rule:nonzero;fill:rgb(26.27451%,59.607843%,81.960784%);fill-opacity:1;" />
<path d="M 490.164062 550.984375 L 510.570312 550.984375 L 510.570312 571.390625 L 490.164062 571.390625 Z M 490.164062 550.984375 " style=" stroke:none;fill-rule:nonzero;fill:rgb(7.058824%,37.647059%,60%);fill-opacity:1;" />
<path d="M 316.707031 530.578125 L 235.078125 530.578125 C 229.449219 530.578125 224.875 526.003906 224.875 520.371094 C 224.875 514.742188 229.449219 510.167969 235.078125 510.167969 L 316.707031 510.167969 C 322.339844 510.167969 326.910156 514.742188 326.910156 520.371094 C 326.910156 526.003906 322.339844 530.578125 316.707031 530.578125 Z M 316.707031 530.578125 " style=" stroke:none;fill-rule:nonzero;fill:rgb(94.901961%,64.313725%,43.529412%);fill-opacity:1;" />
</g>
</svg>