<svg xmlns="http://www.w3.org/2000/svg" height="591.6pt" version="1.1" viewBox="1 1 591.6 591.6" width="591.6pt">
<g id="surface1">
<path d="M 592 122.484375 L 81.65625 122.484375 L 81.65625 81.65625 L 336.828125 0 L 592 81.65625 Z M 592 122.484375 " style=" stroke:none;fill-rule:nonzero;fill:rgb(50.196078%,65.882353%,20.392157%);fill-opacity:1;" />
<path d="M 367.449219 122.484375 L 428.691406 122.484375 L 428.691406 336.828125 L 367.449219 336.828125 Z M 367.449219 122.484375 " style=" stroke:none;fill-rule:nonzero;fill:rgb(50.196078%,65.882353%,20.392157%);fill-opacity:1;" />
<path d="M 489.929688 122.484375 L 551.171875 122.484375 L 551.171875 336.828125 L 489.929688 336.828125 Z M 489.929688 122.484375 " style=" stroke:none;fill-rule:nonzero;fill:rgb(50.196078%,65.882353%,20.392157%);fill-opacity:1;" />
<path d="M 244.964844 122.484375 L 306.207031 122.484375 L 306.207031 336.828125 L 244.964844 336.828125 Z M 244.964844 122.484375 " style=" stroke:none;fill-rule:nonzero;fill:rgb(50.196078%,65.882353%,20.392157%);fill-opacity:1;" />
<path d="M 122.484375 122.484375 L 183.722656 122.484375 L 183.722656 336.828125 L 122.484375 336.828125 Z M 122.484375 122.484375 " style=" stroke:none;fill-rule:nonzero;fill:rgb(50.196078%,65.882353%,20.392157%);fill-opacity:1;" />
<path d="M 367.449219 122.484375 L 428.691406 122.484375 L 428.691406 142.898438 L 367.449219 142.898438 Z M 367.449219 122.484375 " style=" stroke:none;fill-rule:nonzero;fill:rgb(41.960784%,58.823529%,16.470588%);fill-opacity:1;" />
<path d="M 489.929688 122.484375 L 551.171875 122.484375 L 551.171875 142.898438 L 489.929688 142.898438 Z M 489.929688 122.484375 " style=" stroke:none;fill-rule:nonzero;fill:rgb(41.960784%,58.823529%,16.470588%);fill-opacity:1;" />
<path d="M 244.964844 122.484375 L 306.207031 122.484375 L 306.207031 142.898438 L 244.964844 142.898438 Z M 244.964844 122.484375 " style=" stroke:none;fill-rule:nonzero;fill:rgb(41.960784%,58.823529%,16.470588%);fill-opacity:1;" />
<path d="M 122.484375 122.484375 L 183.722656 122.484375 L 183.722656 142.898438 L 122.484375 142.898438 Z M 122.484375 122.484375 " style=" stroke:none;fill-rule:nonzero;fill:rgb(41.960784%,58.823529%,16.470588%);fill-opacity:1;" />
<path d="M 81.65625 336.828125 L 592 336.828125 L 592 398.070312 L 81.65625 398.070312 Z M 81.65625 336.828125 " style=" stroke:none;fill-rule:nonzero;fill:rgb(41.960784%,58.823529%,16.470588%);fill-opacity:1;" />
<path d="M 357.242188 61.242188 C 357.242188 72.515625 348.101562 81.65625 336.828125 81.65625 C 325.554688 81.65625 316.414062 72.515625 316.414062 61.242188 C 316.414062 49.96875 325.554688 40.828125 336.828125 40.828125 C 348.101562 40.828125 357.242188 49.96875 357.242188 61.242188 Z M 357.242188 61.242188 " style=" stroke:none;fill-rule:nonzero;fill:rgb(41.960784%,58.823529%,16.470588%);fill-opacity:1;" />
<path d="M 0 224.550781 L 428.691406 224.550781 L 428.691406 551.171875 L 0 551.171875 Z M 0 224.550781 " style=" stroke:none;fill-rule:nonzero;fill:rgb(26.27451%,59.607843%,81.960784%);fill-opacity:1;" />
<path d="M 76.550781 551.171875 L 428.691406 551.171875 L 428.691406 224.550781 L 403.171875 224.550781 Z M 76.550781 551.171875 " style=" stroke:none;fill-rule:nonzero;fill:rgb(24.313725%,54.901961%,78.039216%);fill-opacity:1;" />
<path d="M 40.828125 592 L 0 592 L 0 551.171875 L 61.242188 551.171875 Z M 40.828125 592 " style=" stroke:none;fill-rule:nonzero;fill:rgb(20.784314%,50.980392%,74.117647%);fill-opacity:1;" />
<path d="M 387.863281 592 L 428.691406 592 L 428.691406 551.171875 L 367.449219 551.171875 Z M 387.863281 592 " style=" stroke:none;fill-rule:nonzero;fill:rgb(20.784314%,50.980392%,74.117647%);fill-opacity:1;" />
<path d="M 387.863281 520.550781 L 40.828125 520.550781 C 35.195312 520.550781 30.621094 515.980469 30.621094 510.34375 L 30.621094 265.378906 C 30.621094 259.746094 35.195312 255.171875 40.828125 255.171875 L 387.863281 255.171875 C 393.496094 255.171875 398.070312 259.746094 398.070312 265.378906 L 398.070312 510.34375 C 398.070312 515.980469 393.496094 520.550781 387.863281 520.550781 Z M 51.035156 500.136719 L 377.65625 500.136719 L 377.65625 275.585938 L 51.035156 275.585938 Z M 51.035156 500.136719 " style=" stroke:none;fill-rule:nonzero;fill:rgb(20.784314%,50.980392%,74.117647%);fill-opacity:1;" />
<path d="M 81.65625 357.242188 L 40.828125 357.242188 C 35.195312 357.242188 30.621094 352.667969 30.621094 347.035156 L 30.621094 306.207031 C 30.621094 300.574219 35.195312 296 40.828125 296 L 81.65625 296 C 87.289062 296 91.863281 300.574219 91.863281 306.207031 L 91.863281 347.035156 C 91.863281 352.667969 87.289062 357.242188 81.65625 357.242188 Z M 51.035156 336.828125 L 71.449219 336.828125 L 71.449219 316.414062 L 51.035156 316.414062 Z M 51.035156 336.828125 " style=" stroke:none;fill-rule:nonzero;fill:rgb(20.784314%,50.980392%,74.117647%);fill-opacity:1;" />
<path d="M 81.65625 479.722656 L 40.828125 479.722656 C 35.195312 479.722656 30.621094 475.152344 30.621094 469.515625 L 30.621094 428.691406 C 30.621094 423.054688 35.195312 418.484375 40.828125 418.484375 L 81.65625 418.484375 C 87.289062 418.484375 91.863281 423.054688 91.863281 428.691406 L 91.863281 469.515625 C 91.863281 475.152344 87.289062 479.722656 81.65625 479.722656 Z M 51.035156 459.308594 L 71.449219 459.308594 L 71.449219 438.898438 L 51.035156 438.898438 Z M 51.035156 459.308594 " style=" stroke:none;fill-rule:nonzero;fill:rgb(20.784314%,50.980392%,74.117647%);fill-opacity:1;" />
<path d="M 336.828125 398.070312 L 357.242188 398.070312 L 357.242188 377.65625 L 310.433594 377.65625 L 343.53125 344.554688 L 329.101562 330.121094 L 296 363.222656 L 296 316.414062 L 275.585938 316.414062 L 275.585938 363.222656 L 242.484375 330.121094 L 228.054688 344.554688 L 261.152344 377.65625 L 214.34375 377.65625 L 214.34375 398.070312 L 261.152344 398.070312 L 249.710938 409.511719 L 249.703125 409.511719 L 228.054688 431.171875 L 242.484375 445.601562 L 259.398438 428.691406 L 275.585938 412.5 L 275.585938 459.308594 L 296 459.308594 L 296 412.5 L 312.1875 428.691406 L 329.101562 445.601562 L 343.53125 431.171875 L 321.882812 409.511719 L 321.875 409.511719 L 310.433594 398.070312 Z M 336.828125 398.070312 " style=" stroke:none;fill-rule:nonzero;fill:rgb(74.117647%,74.117647%,74.117647%);fill-opacity:1;" />
<path d="M 285.792969 428.691406 C 263.246094 428.691406 244.964844 410.410156 244.964844 387.863281 C 244.964844 365.316406 263.246094 347.035156 285.792969 347.035156 C 308.339844 347.035156 326.621094 365.316406 326.621094 387.863281 C 326.589844 410.398438 308.332031 428.660156 285.792969 428.691406 Z M 285.792969 428.691406 " style=" stroke:none;fill-rule:nonzero;fill:rgb(75.686275%,78.039216%,78.823529%);fill-opacity:1;" />
</g>
</svg>