<svg xmlns="http://www.w3.org/2000/svg" height="591pt" version="1.1" viewBox="1 1 591.60001 591" width="591pt">
<g id="surface1">
<path d="M 398.070312 163.609375 L 234.757812 163.609375 C 218.375 163.671875 202.066406 165.816406 186.226562 169.980469 C 172.855469 141.207031 144.007812 122.792969 112.277344 122.78125 L 112.277344 207.246094 C 75.410156 237.324219 50.914062 279.929688 43.472656 326.921875 L 0 326.921875 L 0 408.574219 L 47.839844 408.574219 C 61.8125 459.816406 96.167969 503.101562 142.898438 528.34375 L 142.898438 592.300781 L 234.757812 592.300781 L 234.757812 551.472656 L 398.070312 551.472656 L 398.070312 592.300781 L 489.929688 592.300781 L 489.929688 528.34375 C 552.804688 494.550781 592.019531 428.929688 592 357.542969 C 592 250.441406 505.171875 163.609375 398.070312 163.609375 Z M 398.070312 163.609375 " style=" stroke:none;fill-rule:nonzero;fill:rgb(85.882353%,43.137255%,63.529412%);fill-opacity:1;" />
<path d="M 531.320312 216.890625 C 446.980469 393.4375 274.648438 495.445312 142.898438 550.320312 L 142.898438 592.300781 L 234.757812 592.300781 L 234.757812 551.472656 L 398.070312 551.472656 L 398.070312 592.300781 L 489.929688 592.300781 L 489.929688 528.34375 C 552.804688 494.550781 592.019531 428.929688 592 357.542969 C 592.019531 304.300781 570.066406 253.410156 531.320312 216.890625 Z M 531.320312 216.890625 " style=" stroke:none;fill-rule:nonzero;fill:rgb(83.137255%,38.039216%,59.607843%);fill-opacity:1;" />
<path d="M 153.101562 357.019531 C 130.554688 357.019531 112.277344 338.742188 112.277344 316.195312 C 112.277344 293.644531 130.554688 275.367188 153.101562 275.367188 C 175.652344 275.367188 193.929688 293.644531 193.929688 316.195312 C 193.929688 338.742188 175.652344 357.019531 153.101562 357.019531 Z M 153.101562 295.78125 C 141.824219 295.78125 132.691406 304.914062 132.691406 316.195312 C 132.691406 327.472656 141.824219 336.605469 153.101562 336.605469 C 164.382812 336.605469 173.515625 327.472656 173.515625 316.195312 C 173.515625 304.914062 164.382812 295.78125 153.101562 295.78125 Z M 153.101562 295.78125 " style=" stroke:none;fill-rule:nonzero;fill:rgb(74.901961%,27.058824%,52.156863%);fill-opacity:1;" />
<path d="M 214.34375 194.230469 L 418.484375 194.230469 L 418.484375 214.644531 L 214.34375 214.644531 Z M 214.34375 194.230469 " style=" stroke:none;fill-rule:nonzero;fill:rgb(74.901961%,27.058824%,52.156863%);fill-opacity:1;" />
<path d="M 551.171875 408.574219 C 528.625 408.574219 510.34375 390.296875 510.34375 367.75 L 510.34375 357.542969 L 530.757812 357.542969 L 530.757812 367.75 C 530.757812 379.027344 539.894531 388.160156 551.171875 388.160156 C 562.449219 388.160156 571.585938 379.027344 571.585938 367.75 L 571.585938 357.542969 L 592 357.542969 L 592 367.75 C 592 390.296875 573.71875 408.574219 551.171875 408.574219 Z M 551.171875 408.574219 " style=" stroke:none;fill-rule:nonzero;fill:rgb(74.901961%,27.058824%,52.156863%);fill-opacity:1;" />
<path d="M 418.484375 102.367188 C 418.484375 158.738281 372.785156 204.4375 316.414062 204.4375 C 260.042969 204.4375 214.34375 158.738281 214.34375 102.367188 C 214.34375 45.996094 260.042969 0.300781 316.414062 0.300781 C 372.785156 0.300781 418.484375 45.996094 418.484375 102.367188 Z M 418.484375 102.367188 " style=" stroke:none;fill-rule:nonzero;fill:rgb(99.215686%,71.372549%,18.431373%);fill-opacity:1;" />
<path d="M 367.449219 102.367188 C 367.449219 130.554688 344.597656 153.402344 316.414062 153.402344 C 288.226562 153.402344 265.378906 130.554688 265.378906 102.367188 C 265.378906 74.183594 288.226562 51.335938 316.414062 51.335938 C 344.597656 51.335938 367.449219 74.183594 367.449219 102.367188 Z M 367.449219 102.367188 " style=" stroke:none;fill-rule:nonzero;fill:rgb(100%,63.529412%,18.823529%);fill-opacity:1;" />
<path d="M 275.585938 102.367188 L 255.171875 102.367188 C 255.203125 68.5625 282.609375 41.160156 316.414062 41.128906 L 316.414062 61.542969 C 293.867188 61.542969 275.585938 79.820312 275.585938 102.367188 Z M 275.585938 102.367188 " style=" stroke:none;fill-rule:nonzero;fill:rgb(99.215686%,48.235294%,18.431373%);fill-opacity:1;" />
<path d="M 316.414062 163.609375 L 316.414062 143.195312 C 338.960938 143.195312 357.242188 124.917969 357.242188 102.367188 L 377.65625 102.367188 C 377.625 136.171875 350.21875 163.578125 316.414062 163.609375 Z M 316.414062 163.609375 " style=" stroke:none;fill-rule:nonzero;fill:rgb(99.215686%,48.235294%,18.431373%);fill-opacity:1;" />
<path d="M 500.136719 81.957031 C 496.648438 61.019531 480.246094 44.617188 459.308594 41.128906 C 480.246094 37.636719 496.648438 21.234375 500.136719 0.300781 C 503.628906 21.234375 520.03125 37.636719 540.964844 41.128906 C 520.03125 44.617188 503.628906 61.019531 500.136719 81.957031 Z M 500.136719 81.957031 " style=" stroke:none;fill-rule:nonzero;fill:rgb(99.215686%,71.372549%,18.431373%);fill-opacity:1;" />
</g>
</svg>