<svg xmlns="http://www.w3.org/2000/svg" height="591pt" version="1.1" viewBox="1 1 591 591.60001" width="591pt">
<g id="surface1">
<path d="M 592.300781 122.484375 L 81.957031 122.484375 L 81.957031 81.65625 L 337.128906 0 L 592.300781 81.65625 Z M 592.300781 122.484375 " style=" stroke:none;fill-rule:nonzero;fill:rgb(26.27451%,59.607843%,81.960784%);fill-opacity:1;" />
<path d="M 367.75 122.484375 L 428.988281 122.484375 L 428.988281 377.65625 L 367.75 377.65625 Z M 367.75 122.484375 " style=" stroke:none;fill-rule:nonzero;fill:rgb(26.27451%,59.607843%,81.960784%);fill-opacity:1;" />
<path d="M 490.230469 122.484375 L 551.472656 122.484375 L 551.472656 377.65625 L 490.230469 377.65625 Z M 490.230469 122.484375 " style=" stroke:none;fill-rule:nonzero;fill:rgb(26.27451%,59.607843%,81.960784%);fill-opacity:1;" />
<path d="M 245.265625 122.484375 L 306.507812 122.484375 L 306.507812 377.65625 L 245.265625 377.65625 Z M 245.265625 122.484375 " style=" stroke:none;fill-rule:nonzero;fill:rgb(26.27451%,59.607843%,81.960784%);fill-opacity:1;" />
<path d="M 122.78125 122.484375 L 184.023438 122.484375 L 184.023438 377.65625 L 122.78125 377.65625 Z M 122.78125 122.484375 " style=" stroke:none;fill-rule:nonzero;fill:rgb(26.27451%,59.607843%,81.960784%);fill-opacity:1;" />
<path d="M 367.75 122.484375 L 428.988281 122.484375 L 428.988281 153.101562 L 367.75 153.101562 Z M 367.75 122.484375 " style=" stroke:none;fill-rule:nonzero;fill:rgb(24.313725%,54.901961%,78.039216%);fill-opacity:1;" />
<path d="M 490.230469 122.484375 L 551.472656 122.484375 L 551.472656 153.101562 L 490.230469 153.101562 Z M 490.230469 122.484375 " style=" stroke:none;fill-rule:nonzero;fill:rgb(24.313725%,54.901961%,78.039216%);fill-opacity:1;" />
<path d="M 245.265625 122.484375 L 306.507812 122.484375 L 306.507812 153.101562 L 245.265625 153.101562 Z M 245.265625 122.484375 " style=" stroke:none;fill-rule:nonzero;fill:rgb(24.313725%,54.901961%,78.039216%);fill-opacity:1;" />
<path d="M 122.78125 122.484375 L 184.023438 122.484375 L 184.023438 153.101562 L 122.78125 153.101562 Z M 122.78125 122.484375 " style=" stroke:none;fill-rule:nonzero;fill:rgb(24.313725%,54.901961%,78.039216%);fill-opacity:1;" />
<path d="M 81.957031 377.65625 L 592.300781 377.65625 L 592.300781 438.898438 L 81.957031 438.898438 Z M 81.957031 377.65625 " style=" stroke:none;fill-rule:nonzero;fill:rgb(24.313725%,54.901961%,78.039216%);fill-opacity:1;" />
<path d="M 367.75 61.242188 C 367.75 78.152344 354.039062 91.863281 337.128906 91.863281 C 320.214844 91.863281 306.507812 78.152344 306.507812 61.242188 C 306.507812 44.328125 320.214844 30.621094 337.128906 30.621094 C 354.039062 30.621094 367.75 44.328125 367.75 61.242188 Z M 367.75 61.242188 " style=" stroke:none;fill-rule:nonzero;fill:rgb(20.784314%,50.980392%,74.117647%);fill-opacity:1;" />
<path d="M 0.300781 326.621094 L 428.988281 326.621094 L 428.988281 592 L 0.300781 592 Z M 0.300781 326.621094 " style=" stroke:none;fill-rule:nonzero;fill:rgb(41.960784%,58.823529%,16.470588%);fill-opacity:1;" />
<path d="M 0.300781 285.792969 L 428.988281 285.792969 L 428.988281 551.171875 L 0.300781 551.171875 Z M 0.300781 285.792969 " style=" stroke:none;fill-rule:nonzero;fill:rgb(38.431373%,54.117647%,15.294118%);fill-opacity:1;" />
<path d="M 0.300781 244.964844 L 428.988281 244.964844 L 428.988281 510.34375 L 0.300781 510.34375 Z M 0.300781 244.964844 " style=" stroke:none;fill-rule:nonzero;fill:rgb(41.960784%,58.823529%,16.470588%);fill-opacity:1;" />
<path d="M 0.300781 244.964844 L 428.988281 244.964844 L 428.988281 469.515625 L 0.300781 469.515625 Z M 0.300781 244.964844 " style=" stroke:none;fill-rule:nonzero;fill:rgb(53.333333%,70.196078%,21.568627%);fill-opacity:1;" />
<path d="M 357.542969 428.691406 L 71.75 428.691406 C 71.75 411.777344 58.039062 398.070312 41.128906 398.070312 L 41.128906 316.414062 C 58.039062 316.414062 71.75 302.707031 71.75 285.792969 L 357.542969 285.792969 C 357.542969 302.707031 371.25 316.414062 388.160156 316.414062 L 388.160156 398.070312 C 371.25 398.070312 357.542969 411.777344 357.542969 428.691406 Z M 357.542969 428.691406 " style=" stroke:none;fill-rule:nonzero;fill:rgb(41.960784%,58.823529%,16.470588%);fill-opacity:1;" />
<path d="M 286.09375 357.242188 C 286.09375 396.703125 254.105469 428.691406 214.644531 428.691406 C 175.183594 428.691406 143.195312 396.703125 143.195312 357.242188 C 143.195312 317.78125 175.183594 285.792969 214.644531 285.792969 C 254.105469 285.792969 286.09375 317.78125 286.09375 357.242188 Z M 286.09375 357.242188 " style=" stroke:none;fill-rule:nonzero;fill:rgb(53.333333%,70.196078%,21.568627%);fill-opacity:1;" />
<path d="M 184.023438 244.964844 L 245.265625 244.964844 L 245.265625 592 L 184.023438 592 Z M 184.023438 244.964844 " style=" stroke:none;fill-rule:nonzero;fill:rgb(99.215686%,71.372549%,18.431373%);fill-opacity:1;" />
<path d="M 184.023438 469.515625 L 245.265625 469.515625 L 245.265625 592 L 184.023438 592 Z M 184.023438 469.515625 " style=" stroke:none;fill-rule:nonzero;fill:rgb(94.117647%,61.960784%,14.901961%);fill-opacity:1;" />
<path d="M 81.957031 347.035156 L 102.367188 347.035156 L 102.367188 367.449219 L 81.957031 367.449219 Z M 81.957031 347.035156 " style=" stroke:none;fill-rule:nonzero;fill:rgb(53.333333%,70.196078%,21.568627%);fill-opacity:1;" />
<path d="M 326.921875 347.035156 L 347.335938 347.035156 L 347.335938 367.449219 L 326.921875 367.449219 Z M 326.921875 347.035156 " style=" stroke:none;fill-rule:nonzero;fill:rgb(53.333333%,70.196078%,21.568627%);fill-opacity:1;" />
</g>
</svg>