<svg xmlns="http://www.w3.org/2000/svg" height="591pt" version="1.1" viewBox="-5 1 591 591.6" width="591pt">
<g id="surface1">
<path d="M 582.097656 530.757812 L 214.652344 530.757812 L 214.652344 0 L 480.03125 0 L 582.097656 102.070312 Z M 582.097656 530.757812 " style=" stroke:none;fill-rule:nonzero;fill:rgb(52.941176%,80.784314%,85.098039%);fill-opacity:1;" />
<path d="M 214.652344 372.550781 L 214.652344 530.757812 L 582.097656 530.757812 L 582.097656 102.070312 L 533.617188 53.585938 Z M 214.652344 372.550781 " style=" stroke:none;fill-rule:nonzero;fill:rgb(44.313725%,76.862745%,81.960784%);fill-opacity:1;" />
<path d="M 480.03125 0 L 480.03125 102.070312 L 582.097656 102.070312 Z M 480.03125 0 " style=" stroke:none;fill-rule:nonzero;fill:rgb(92.156863%,92.156863%,92.156863%);fill-opacity:1;" />
<path d="M 314.75 99.894531 L 281.222656 94.3125 C 277.75 93.75 275.394531 90.484375 275.953125 87.003906 C 276.453125 83.921875 279.117188 81.65625 282.242188 81.65625 L 326.929688 81.65625 L 326.929688 61.242188 L 306.515625 61.242188 L 306.515625 51.035156 L 286.101562 51.035156 L 286.101562 61.242188 L 282.261719 61.242188 C 267.472656 61.222656 255.460938 73.195312 255.4375 87.984375 C 255.417969 101.109375 264.910156 112.316406 277.863281 114.449219 L 311.390625 120.03125 C 314.863281 120.59375 317.21875 123.859375 316.660156 127.339844 C 316.167969 130.421875 313.496094 132.691406 310.371094 132.691406 L 265.6875 132.691406 L 265.6875 153.101562 L 286.097656 153.101562 L 286.097656 163.308594 L 306.511719 163.308594 L 306.511719 153.101562 L 310.351562 153.101562 C 325.140625 153.125 337.152344 141.152344 337.175781 126.363281 C 337.195312 113.234375 327.703125 102.027344 314.75 99.894531 Z M 314.75 99.894531 " style=" stroke:none;fill-rule:nonzero;fill:rgb(36.862745%,70.196078%,81.960784%);fill-opacity:1;" />
<path d="M 265.6875 183.722656 L 531.066406 183.722656 L 531.066406 204.136719 L 265.6875 204.136719 Z M 265.6875 183.722656 " style=" stroke:none;fill-rule:nonzero;fill:rgb(36.862745%,70.196078%,81.960784%);fill-opacity:1;" />
<path d="M 265.6875 224.550781 L 531.066406 224.550781 L 531.066406 244.964844 L 265.6875 244.964844 Z M 265.6875 224.550781 " style=" stroke:none;fill-rule:nonzero;fill:rgb(36.862745%,70.196078%,81.960784%);fill-opacity:1;" />
<path d="M 265.6875 469.515625 L 531.066406 469.515625 L 531.066406 489.929688 L 265.6875 489.929688 Z M 265.6875 469.515625 " style=" stroke:none;fill-rule:nonzero;fill:rgb(36.862745%,70.196078%,81.960784%);fill-opacity:1;" />
<path d="M 265.6875 428.691406 L 408.582031 428.691406 L 408.582031 449.101562 L 265.6875 449.101562 Z M 265.6875 428.691406 " style=" stroke:none;fill-rule:nonzero;fill:rgb(36.862745%,70.196078%,81.960784%);fill-opacity:1;" />
<path d="M 428.996094 428.691406 L 469.824219 428.691406 L 469.824219 449.101562 L 428.996094 449.101562 Z M 428.996094 428.691406 " style=" stroke:none;fill-rule:nonzero;fill:rgb(36.862745%,70.196078%,81.960784%);fill-opacity:1;" />
<path d="M 490.238281 428.691406 L 531.066406 428.691406 L 531.066406 449.101562 L 490.238281 449.101562 Z M 490.238281 428.691406 " style=" stroke:none;fill-rule:nonzero;fill:rgb(36.862745%,70.196078%,81.960784%);fill-opacity:1;" />
<path d="M 265.6875 265.378906 L 408.582031 265.378906 L 408.582031 285.792969 L 265.6875 285.792969 Z M 265.6875 265.378906 " style=" stroke:none;fill-rule:nonzero;fill:rgb(36.862745%,70.196078%,81.960784%);fill-opacity:1;" />
<path d="M 428.996094 265.378906 L 469.824219 265.378906 L 469.824219 285.792969 L 428.996094 285.792969 Z M 428.996094 265.378906 " style=" stroke:none;fill-rule:nonzero;fill:rgb(36.862745%,70.196078%,81.960784%);fill-opacity:1;" />
<path d="M 490.238281 265.378906 L 531.066406 265.378906 L 531.066406 285.792969 L 490.238281 285.792969 Z M 490.238281 265.378906 " style=" stroke:none;fill-rule:nonzero;fill:rgb(36.862745%,70.196078%,81.960784%);fill-opacity:1;" />
<path d="M 265.6875 306.207031 L 408.582031 306.207031 L 408.582031 326.621094 L 265.6875 326.621094 Z M 265.6875 306.207031 " style=" stroke:none;fill-rule:nonzero;fill:rgb(36.862745%,70.196078%,81.960784%);fill-opacity:1;" />
<path d="M 428.996094 306.207031 L 469.824219 306.207031 L 469.824219 326.621094 L 428.996094 326.621094 Z M 428.996094 306.207031 " style=" stroke:none;fill-rule:nonzero;fill:rgb(36.862745%,70.196078%,81.960784%);fill-opacity:1;" />
<path d="M 490.238281 306.207031 L 531.066406 306.207031 L 531.066406 326.621094 L 490.238281 326.621094 Z M 490.238281 306.207031 " style=" stroke:none;fill-rule:nonzero;fill:rgb(36.862745%,70.196078%,81.960784%);fill-opacity:1;" />
<path d="M 265.6875 347.035156 L 408.582031 347.035156 L 408.582031 367.449219 L 265.6875 367.449219 Z M 265.6875 347.035156 " style=" stroke:none;fill-rule:nonzero;fill:rgb(36.862745%,70.196078%,81.960784%);fill-opacity:1;" />
<path d="M 428.996094 347.035156 L 469.824219 347.035156 L 469.824219 367.449219 L 428.996094 367.449219 Z M 428.996094 347.035156 " style=" stroke:none;fill-rule:nonzero;fill:rgb(36.862745%,70.196078%,81.960784%);fill-opacity:1;" />
<path d="M 490.238281 347.035156 L 531.066406 347.035156 L 531.066406 367.449219 L 490.238281 367.449219 Z M 490.238281 347.035156 " style=" stroke:none;fill-rule:nonzero;fill:rgb(36.862745%,70.196078%,81.960784%);fill-opacity:1;" />
<path d="M 265.6875 387.863281 L 408.582031 387.863281 L 408.582031 408.277344 L 265.6875 408.277344 Z M 265.6875 387.863281 " style=" stroke:none;fill-rule:nonzero;fill:rgb(36.862745%,70.196078%,81.960784%);fill-opacity:1;" />
<path d="M 428.996094 387.863281 L 469.824219 387.863281 L 469.824219 408.277344 L 428.996094 408.277344 Z M 428.996094 387.863281 " style=" stroke:none;fill-rule:nonzero;fill:rgb(36.862745%,70.196078%,81.960784%);fill-opacity:1;" />
<path d="M 490.238281 387.863281 L 531.066406 387.863281 L 531.066406 408.277344 L 490.238281 408.277344 Z M 490.238281 387.863281 " style=" stroke:none;fill-rule:nonzero;fill:rgb(36.862745%,70.196078%,81.960784%);fill-opacity:1;" />
<path d="M 357.546875 142.898438 L 428.996094 142.898438 L 428.996094 163.308594 L 357.546875 163.308594 Z M 357.546875 142.898438 " style=" stroke:none;fill-rule:nonzero;fill:rgb(36.862745%,70.196078%,81.960784%);fill-opacity:1;" />
<path d="M 357.546875 102.070312 L 408.582031 102.070312 L 408.582031 122.484375 L 357.546875 122.484375 Z M 357.546875 102.070312 " style=" stroke:none;fill-rule:nonzero;fill:rgb(36.862745%,70.196078%,81.960784%);fill-opacity:1;" />
<path d="M 428.996094 102.070312 L 449.410156 102.070312 L 449.410156 122.484375 L 428.996094 122.484375 Z M 428.996094 102.070312 " style=" stroke:none;fill-rule:nonzero;fill:rgb(36.862745%,70.196078%,81.960784%);fill-opacity:1;" />
<path d="M 357.546875 61.242188 L 428.996094 61.242188 L 428.996094 81.65625 L 357.546875 81.65625 Z M 357.546875 61.242188 " style=" stroke:none;fill-rule:nonzero;fill:rgb(36.862745%,70.196078%,81.960784%);fill-opacity:1;" />
<path d="M 322.332031 555.253906 L 296.304688 520.550781 L 296.304688 400.316406 C 296.304688 345.332031 258.121094 297.726562 204.445312 285.792969 L 235.066406 224.550781 L 92.167969 224.550781 L 122.789062 285.792969 C 69.109375 297.726562 30.925781 345.332031 30.925781 400.316406 L 30.925781 520.550781 L 4.898438 555.253906 C -2.714844 565.402344 -0.652344 579.792969 9.492188 587.40625 C 13.472656 590.386719 18.300781 592 23.273438 592 L 303.960938 592 C 316.648438 592 326.925781 581.722656 326.925781 569.035156 C 326.925781 564.0625 325.316406 559.226562 322.332031 555.253906 Z M 322.332031 555.253906 " style=" stroke:none;fill-rule:nonzero;fill:rgb(53.333333%,70.196078%,21.568627%);fill-opacity:1;" />
<path d="M 322.332031 555.253906 L 296.304688 520.550781 L 296.304688 400.316406 C 296.304688 381.472656 291.753906 362.917969 283.039062 346.21875 C 227.101562 480.5 113.929688 555.070312 37.367188 592 L 303.960938 592 C 316.648438 592 326.929688 581.722656 326.929688 569.035156 C 326.925781 564.0625 325.316406 559.226562 322.332031 555.253906 Z M 322.332031 555.253906 " style=" stroke:none;fill-rule:nonzero;fill:rgb(50.196078%,65.882353%,20.392157%);fill-opacity:1;" />
<path d="M 178.925781 428.691406 L 148.304688 428.691406 C 139.855469 428.691406 132.996094 421.832031 132.996094 413.378906 C 132.996094 404.925781 139.855469 398.070312 148.304688 398.070312 L 204.445312 398.070312 L 204.445312 377.65625 L 173.824219 377.65625 L 173.824219 357.242188 L 153.410156 357.242188 L 153.410156 377.65625 L 148.304688 377.65625 C 128.574219 377.65625 112.582031 393.648438 112.582031 413.378906 C 112.582031 433.109375 128.574219 449.101562 148.304688 449.101562 L 178.925781 449.101562 C 187.378906 449.101562 194.238281 455.960938 194.238281 464.414062 C 194.238281 472.867188 187.378906 479.722656 178.925781 479.722656 L 122.789062 479.722656 L 122.789062 500.136719 L 153.410156 500.136719 L 153.410156 520.550781 L 173.824219 520.550781 L 173.824219 500.136719 L 178.925781 500.136719 C 198.65625 500.136719 214.652344 484.144531 214.652344 464.414062 C 214.652344 444.683594 198.65625 428.691406 178.925781 428.691406 Z M 178.925781 428.691406 " style=" stroke:none;fill-rule:nonzero;fill:rgb(100%,100%,100%);fill-opacity:1;" />
</g>
</svg>