<svg xmlns="http://www.w3.org/2000/svg" height="591pt" version="1.1" viewBox="1 -45 591.60001 591" width="591pt">
<g id="surface1">
<path d="M 0 275.917969 L 592 275.917969 C 592 321.011719 555.4375 357.574219 510.34375 357.574219 L 81.65625 357.574219 C 36.5625 357.574219 0 321.011719 0 275.917969 Z M 0 275.917969 " style=" stroke:none;fill-rule:nonzero;fill:rgb(85.490196%,86.666667%,87.45098%);fill-opacity:1;" />
<path d="M 510.34375 275.917969 C 510.34375 321.011719 473.785156 357.574219 428.691406 357.574219 L 510.34375 357.574219 C 555.4375 357.574219 592 321.011719 592 275.917969 Z M 510.34375 275.917969 " style=" stroke:none;fill-rule:nonzero;fill:rgb(81.176471%,82.352941%,83.137255%);fill-opacity:1;" />
<path d="M 315.617188 356.152344 L 313.015625 357.574219 L 234.757812 357.574219 C 217.847656 357.574219 204.136719 371.28125 204.136719 388.191406 C 204.136719 405.105469 217.847656 418.8125 234.757812 418.8125 L 214.34375 418.8125 L 98.28125 365.65625 C 81.53125 357.980469 61.742188 365.339844 54.066406 382.089844 C 52.066406 386.449219 51.035156 391.183594 51.035156 395.980469 L 51.035156 398.195312 C 51.042969 410.820312 58.179688 422.355469 69.476562 428 L 188.480469 487.507812 C 205.484375 496.019531 224.246094 500.457031 243.261719 500.46875 L 459.308594 500.46875 L 459.308594 357.574219 C 414.898438 332.199219 360.519531 331.65625 315.617188 356.152344 Z M 315.617188 356.152344 " style=" stroke:none;fill-rule:nonzero;fill:rgb(100%,71.764706%,50.980392%);fill-opacity:1;" />
<path d="M 459.308594 357.574219 L 592 357.574219 L 592 500.46875 L 459.308594 500.46875 Z M 459.308594 357.574219 " style=" stroke:none;fill-rule:nonzero;fill:rgb(26.27451%,59.607843%,81.960784%);fill-opacity:1;" />
<path d="M 489.929688 449.433594 L 510.34375 449.433594 L 510.34375 469.847656 L 489.929688 469.847656 Z M 489.929688 449.433594 " style=" stroke:none;fill-rule:nonzero;fill:rgb(20.784314%,50.980392%,74.117647%);fill-opacity:1;" />
<path d="M 316.414062 429.019531 L 234.757812 429.019531 C 229.125 429.019531 224.550781 424.449219 224.550781 418.8125 C 224.550781 413.179688 229.125 408.605469 234.757812 408.605469 L 316.414062 408.605469 C 322.046875 408.605469 326.621094 413.179688 326.621094 418.8125 C 326.621094 424.449219 322.046875 429.019531 316.414062 429.019531 Z M 316.414062 429.019531 " style=" stroke:none;fill-rule:nonzero;fill:rgb(94.901961%,64.313725%,43.529412%);fill-opacity:1;" />
<path d="M 183.722656 214.675781 C 183.722656 248.5 156.304688 275.917969 122.484375 275.917969 C 88.660156 275.917969 61.242188 248.5 61.242188 214.675781 C 61.242188 180.851562 88.660156 153.433594 122.484375 153.433594 C 156.304688 153.433594 183.722656 180.851562 183.722656 214.675781 Z M 183.722656 214.675781 " style=" stroke:none;fill-rule:nonzero;fill:rgb(43.921569%,43.921569%,43.921569%);fill-opacity:1;" />
<path d="M 142.898438 214.675781 C 142.898438 225.949219 133.757812 235.089844 122.484375 235.089844 C 111.207031 235.089844 102.070312 225.949219 102.070312 214.675781 C 102.070312 203.402344 111.207031 194.261719 122.484375 194.261719 C 133.757812 194.261719 142.898438 203.402344 142.898438 214.675781 Z M 142.898438 214.675781 " style=" stroke:none;fill-rule:nonzero;fill:rgb(85.490196%,86.666667%,87.45098%);fill-opacity:1;" />
<path d="M 530.757812 214.675781 C 530.757812 248.5 503.339844 275.917969 469.515625 275.917969 C 435.695312 275.917969 408.277344 248.5 408.277344 214.675781 C 408.277344 180.851562 435.695312 153.433594 469.515625 153.433594 C 503.339844 153.433594 530.757812 180.851562 530.757812 214.675781 Z M 530.757812 214.675781 " style=" stroke:none;fill-rule:nonzero;fill:rgb(43.921569%,43.921569%,43.921569%);fill-opacity:1;" />
<path d="M 489.929688 214.675781 C 489.929688 225.949219 480.792969 235.089844 469.515625 235.089844 C 458.242188 235.089844 449.101562 225.949219 449.101562 214.675781 C 449.101562 203.402344 458.242188 194.261719 469.515625 194.261719 C 480.792969 194.261719 489.929688 203.402344 489.929688 214.675781 Z M 489.929688 214.675781 " style=" stroke:none;fill-rule:nonzero;fill:rgb(85.490196%,86.666667%,87.45098%);fill-opacity:1;" />
<path d="M 511.128906 45.773438 C 461.351562 16.082031 404.480469 0.382812 346.515625 0.332031 C 280.425781 0.3125 215.925781 20.621094 161.769531 58.511719 L 142.898438 71.78125 L 469.515625 71.78125 Z M 511.128906 45.773438 " style=" stroke:none;fill-rule:nonzero;fill:rgb(52.941176%,80.784314%,85.098039%);fill-opacity:1;" />
<path d="M 520.550781 51.367188 L 517.246094 49.324219 C 515.203125 48.078125 513.160156 47.007812 511.121094 45.804688 L 469.515625 71.78125 L 142.898438 71.78125 L 70.113281 82.179688 C 29.886719 87.925781 0 122.375 0 163.007812 L 0 214.675781 L 61.242188 214.675781 C 61.242188 180.851562 88.65625 153.433594 122.484375 153.433594 C 156.308594 153.433594 183.722656 180.851562 183.722656 214.675781 L 408.277344 214.675781 C 408.277344 180.851562 435.691406 153.433594 469.515625 153.433594 C 503.34375 153.433594 530.757812 180.851562 530.757812 214.675781 L 551.171875 214.675781 L 592 163.640625 L 592 71.78125 Z M 520.550781 51.367188 " style=" stroke:none;fill-rule:nonzero;fill:rgb(87.058824%,29.803922%,23.529412%);fill-opacity:1;" />
<path d="M 265.378906 102.398438 L 306.207031 102.398438 L 306.207031 122.8125 L 265.378906 122.8125 Z M 265.378906 102.398438 " style=" stroke:none;fill-rule:nonzero;fill:rgb(78.823529%,27.058824%,21.176471%);fill-opacity:1;" />
<path d="M 540.964844 102.398438 L 592 102.398438 L 592 122.8125 L 540.964844 122.8125 Z M 540.964844 102.398438 " style=" stroke:none;fill-rule:nonzero;fill:rgb(99.215686%,71.372549%,18.431373%);fill-opacity:1;" />
<path d="M 61.242188 122.386719 L 10.644531 122.386719 C 3.664062 134.644531 0 148.515625 0 162.621094 L 0 163.640625 L 30.621094 163.214844 Z M 61.242188 122.386719 " style=" stroke:none;fill-rule:nonzero;fill:rgb(85.490196%,86.666667%,87.45098%);fill-opacity:1;" />
<path d="M 326.621094 71.78125 L 347.035156 71.78125 L 347.035156 214.675781 L 326.621094 214.675781 Z M 326.621094 71.78125 " style=" stroke:none;fill-rule:nonzero;fill:rgb(78.823529%,27.058824%,21.176471%);fill-opacity:1;" />
<path d="M 326.621094 0.332031 L 347.035156 0.332031 L 347.035156 71.78125 L 326.621094 71.78125 Z M 326.621094 0.332031 " style=" stroke:none;fill-rule:nonzero;fill:rgb(36.862745%,70.196078%,81.960784%);fill-opacity:1;" />
</g>
</svg>