<svg xmlns="http://www.w3.org/2000/svg" height="591.6pt" version="1.1" viewBox="1 1 591.6 591.6" width="591.6pt">
<g id="surface1">
<path d="M 592 122.484375 L 81.65625 122.484375 L 81.65625 81.65625 L 336.828125 0 L 592 81.65625 Z M 592 122.484375 " style=" stroke:none;fill-rule:nonzero;fill:rgb(26.27451%,59.607843%,81.960784%);fill-opacity:1;" />
<path d="M 367.449219 122.484375 L 428.691406 122.484375 L 428.691406 336.828125 L 367.449219 336.828125 Z M 367.449219 122.484375 " style=" stroke:none;fill-rule:nonzero;fill:rgb(26.27451%,59.607843%,81.960784%);fill-opacity:1;" />
<path d="M 489.929688 122.484375 L 551.171875 122.484375 L 551.171875 336.828125 L 489.929688 336.828125 Z M 489.929688 122.484375 " style=" stroke:none;fill-rule:nonzero;fill:rgb(26.27451%,59.607843%,81.960784%);fill-opacity:1;" />
<path d="M 244.964844 122.484375 L 306.207031 122.484375 L 306.207031 336.828125 L 244.964844 336.828125 Z M 244.964844 122.484375 " style=" stroke:none;fill-rule:nonzero;fill:rgb(26.27451%,59.607843%,81.960784%);fill-opacity:1;" />
<path d="M 122.484375 122.484375 L 183.722656 122.484375 L 183.722656 336.828125 L 122.484375 336.828125 Z M 122.484375 122.484375 " style=" stroke:none;fill-rule:nonzero;fill:rgb(26.27451%,59.607843%,81.960784%);fill-opacity:1;" />
<path d="M 367.449219 122.484375 L 428.691406 122.484375 L 428.691406 153.101562 L 367.449219 153.101562 Z M 367.449219 122.484375 " style=" stroke:none;fill-rule:nonzero;fill:rgb(24.313725%,54.901961%,78.039216%);fill-opacity:1;" />
<path d="M 489.929688 122.484375 L 551.171875 122.484375 L 551.171875 153.101562 L 489.929688 153.101562 Z M 489.929688 122.484375 " style=" stroke:none;fill-rule:nonzero;fill:rgb(24.313725%,54.901961%,78.039216%);fill-opacity:1;" />
<path d="M 244.964844 122.484375 L 306.207031 122.484375 L 306.207031 153.101562 L 244.964844 153.101562 Z M 244.964844 122.484375 " style=" stroke:none;fill-rule:nonzero;fill:rgb(24.313725%,54.901961%,78.039216%);fill-opacity:1;" />
<path d="M 122.484375 122.484375 L 183.722656 122.484375 L 183.722656 153.101562 L 122.484375 153.101562 Z M 122.484375 122.484375 " style=" stroke:none;fill-rule:nonzero;fill:rgb(24.313725%,54.901961%,78.039216%);fill-opacity:1;" />
<path d="M 81.65625 336.828125 L 592 336.828125 L 592 398.070312 L 81.65625 398.070312 Z M 81.65625 336.828125 " style=" stroke:none;fill-rule:nonzero;fill:rgb(24.313725%,54.901961%,78.039216%);fill-opacity:1;" />
<path d="M 367.449219 61.242188 C 367.449219 78.152344 353.738281 91.863281 336.828125 91.863281 C 319.917969 91.863281 306.207031 78.152344 306.207031 61.242188 C 306.207031 44.328125 319.917969 30.621094 336.828125 30.621094 C 353.738281 30.621094 367.449219 44.328125 367.449219 61.242188 Z M 367.449219 61.242188 " style=" stroke:none;fill-rule:nonzero;fill:rgb(20.784314%,50.980392%,74.117647%);fill-opacity:1;" />
<path d="M 296 255.171875 L 193.929688 255.171875 C 175.253906 255.191406 156.746094 258.652344 139.324219 265.378906 C 130.679688 240.933594 107.582031 224.582031 81.65625 224.550781 L 81.65625 304.410156 C 65.078125 322.324219 53.023438 343.929688 46.503906 367.449219 L 0 367.449219 L 0 449.101562 L 46.503906 449.101562 C 53.015625 472.621094 65.070312 494.226562 81.65625 512.121094 L 81.65625 592 L 163.308594 592 L 163.308594 558.316406 C 173.382812 560.359375 183.640625 561.390625 193.929688 561.378906 L 296 561.378906 C 306.289062 561.390625 316.546875 560.359375 326.621094 558.316406 L 326.621094 592 L 408.277344 592 L 408.277344 512.121094 C 465.71875 450.207031 462.105469 353.445312 400.191406 296 C 371.867188 269.71875 334.644531 255.132812 296 255.171875 Z M 296 255.171875 " style=" stroke:none;fill-rule:nonzero;fill:rgb(85.882353%,43.137255%,63.529412%);fill-opacity:1;" />
<path d="M 406.621094 302.613281 C 359.710938 467.078125 186.277344 522.867188 81.65625 541.671875 L 81.65625 592 L 163.308594 592 L 163.308594 558.316406 C 173.382812 560.359375 183.640625 561.390625 193.929688 561.378906 L 296 561.378906 C 306.289062 561.390625 316.546875 560.359375 326.621094 558.316406 L 326.621094 592 L 408.277344 592 L 408.277344 512.121094 C 463.34375 452.890625 462.617188 360.96875 406.621094 302.613281 Z M 406.621094 302.613281 " style=" stroke:none;fill-rule:nonzero;fill:rgb(83.137255%,38.039216%,59.607843%);fill-opacity:1;" />
<path d="M 122.484375 408.277344 C 105.570312 408.277344 91.863281 394.566406 91.863281 377.65625 C 91.863281 360.742188 105.570312 347.035156 122.484375 347.035156 C 139.394531 347.035156 153.101562 360.742188 153.101562 377.65625 C 153.101562 394.566406 139.394531 408.277344 122.484375 408.277344 Z M 122.484375 367.449219 C 116.847656 367.449219 112.277344 372.019531 112.277344 377.65625 C 112.277344 383.289062 116.847656 387.863281 122.484375 387.863281 C 128.117188 387.863281 132.691406 383.289062 132.691406 377.65625 C 132.691406 372.019531 128.117188 367.449219 122.484375 367.449219 Z M 122.484375 367.449219 " style=" stroke:none;fill-rule:nonzero;fill:rgb(74.901961%,27.058824%,52.156863%);fill-opacity:1;" />
<path d="M 193.929688 285.792969 L 296 285.792969 L 296 306.207031 L 193.929688 306.207031 Z M 193.929688 285.792969 " style=" stroke:none;fill-rule:nonzero;fill:rgb(74.901961%,27.058824%,52.156863%);fill-opacity:1;" />
<path d="M 413.378906 459.308594 C 393.648438 459.308594 377.65625 443.316406 377.65625 423.585938 L 377.65625 408.277344 L 398.070312 408.277344 L 398.070312 423.585938 C 398.070312 432.039062 404.925781 438.898438 413.378906 438.898438 C 421.832031 438.898438 428.691406 432.039062 428.691406 423.585938 L 428.691406 408.277344 L 449.101562 408.277344 L 449.101562 423.585938 C 449.101562 443.316406 433.109375 459.308594 413.378906 459.308594 Z M 413.378906 459.308594 " style=" stroke:none;fill-rule:nonzero;fill:rgb(74.901961%,27.058824%,52.156863%);fill-opacity:1;" />
</g>
</svg>