<svg xmlns="http://www.w3.org/2000/svg" height="601pt" version="1.1" viewBox="-5 1 601 601.80002" width="601pt">
<g id="surface1">
<path d="M 143.25 102.035156 L 592.199219 102.035156 L 592.199219 448.949219 L 143.25 448.949219 Z M 143.25 102.035156 " style=" stroke:none;fill-rule:nonzero;fill:rgb(75.686275%,78.039216%,78.823529%);fill-opacity:1;" />
<path d="M 143.25 408.136719 L 510.570312 408.136719 L 592.199219 326.507812 L 592.199219 102.035156 L 143.25 102.035156 Z M 143.25 408.136719 " style=" stroke:none;fill-rule:nonzero;fill:rgb(85.490196%,86.666667%,87.45098%);fill-opacity:1;" />
<path d="M 214.671875 408.136719 L 510.570312 408.136719 L 592.199219 326.507812 L 592.199219 102.035156 L 520.773438 102.035156 Z M 214.671875 408.136719 " style=" stroke:none;fill-rule:nonzero;fill:rgb(81.176471%,82.352941%,83.137255%);fill-opacity:1;" />
<path d="M 143.25 30.609375 L 592.199219 30.609375 L 592.199219 102.035156 L 143.25 102.035156 Z M 143.25 30.609375 " style=" stroke:none;fill-rule:nonzero;fill:rgb(87.058824%,29.803922%,23.529412%);fill-opacity:1;" />
<path d="M 184.0625 0 L 204.46875 0 L 204.46875 61.21875 L 184.0625 61.21875 Z M 184.0625 0 " style=" stroke:none;fill-rule:nonzero;fill:rgb(75.686275%,78.039216%,78.823529%);fill-opacity:1;" />
<path d="M 265.691406 0 L 286.097656 0 L 286.097656 61.21875 L 265.691406 61.21875 Z M 265.691406 0 " style=" stroke:none;fill-rule:nonzero;fill:rgb(75.686275%,78.039216%,78.823529%);fill-opacity:1;" />
<path d="M 347.316406 0 L 367.722656 0 L 367.722656 61.21875 L 347.316406 61.21875 Z M 347.316406 0 " style=" stroke:none;fill-rule:nonzero;fill:rgb(75.686275%,78.039216%,78.823529%);fill-opacity:1;" />
<path d="M 428.945312 0 L 449.351562 0 L 449.351562 61.21875 L 428.945312 61.21875 Z M 428.945312 0 " style=" stroke:none;fill-rule:nonzero;fill:rgb(75.686275%,78.039216%,78.823529%);fill-opacity:1;" />
<path d="M 510.570312 0 L 530.976562 0 L 530.976562 61.21875 L 510.570312 61.21875 Z M 510.570312 0 " style=" stroke:none;fill-rule:nonzero;fill:rgb(75.686275%,78.039216%,78.823529%);fill-opacity:1;" />
<path d="M 347.316406 153.050781 L 388.128906 153.050781 L 388.128906 193.863281 L 347.316406 193.863281 Z M 347.316406 153.050781 " style=" stroke:none;fill-rule:nonzero;fill:rgb(75.686275%,78.039216%,78.823529%);fill-opacity:1;" />
<path d="M 428.945312 153.050781 L 469.757812 153.050781 L 469.757812 193.863281 L 428.945312 193.863281 Z M 428.945312 153.050781 " style=" stroke:none;fill-rule:nonzero;fill:rgb(75.686275%,78.039216%,78.823529%);fill-opacity:1;" />
<path d="M 510.570312 153.050781 L 551.382812 153.050781 L 551.382812 193.863281 L 510.570312 193.863281 Z M 510.570312 153.050781 " style=" stroke:none;fill-rule:nonzero;fill:rgb(75.686275%,78.039216%,78.823529%);fill-opacity:1;" />
<path d="M 265.691406 153.050781 L 306.503906 153.050781 L 306.503906 193.863281 L 265.691406 193.863281 Z M 265.691406 153.050781 " style=" stroke:none;fill-rule:nonzero;fill:rgb(75.686275%,78.039216%,78.823529%);fill-opacity:1;" />
<path d="M 347.316406 234.679688 L 388.128906 234.679688 L 388.128906 275.492188 L 347.316406 275.492188 Z M 347.316406 234.679688 " style=" stroke:none;fill-rule:nonzero;fill:rgb(75.686275%,78.039216%,78.823529%);fill-opacity:1;" />
<path d="M 428.945312 234.679688 L 469.757812 234.679688 L 469.757812 275.492188 L 428.945312 275.492188 Z M 428.945312 234.679688 " style=" stroke:none;fill-rule:nonzero;fill:rgb(75.686275%,78.039216%,78.823529%);fill-opacity:1;" />
<path d="M 510.570312 234.679688 L 551.382812 234.679688 L 551.382812 275.492188 L 510.570312 275.492188 Z M 510.570312 234.679688 " style=" stroke:none;fill-rule:nonzero;fill:rgb(75.686275%,78.039216%,78.823529%);fill-opacity:1;" />
<path d="M 265.691406 234.679688 L 306.503906 234.679688 L 306.503906 275.492188 L 265.691406 275.492188 Z M 265.691406 234.679688 " style=" stroke:none;fill-rule:nonzero;fill:rgb(75.686275%,78.039216%,78.823529%);fill-opacity:1;" />
<path d="M 184.0625 234.679688 L 224.875 234.679688 L 224.875 275.492188 L 184.0625 275.492188 Z M 184.0625 234.679688 " style=" stroke:none;fill-rule:nonzero;fill:rgb(75.686275%,78.039216%,78.823529%);fill-opacity:1;" />
<path d="M 347.316406 316.304688 L 388.128906 316.304688 L 388.128906 357.117188 L 347.316406 357.117188 Z M 347.316406 316.304688 " style=" stroke:none;fill-rule:nonzero;fill:rgb(75.686275%,78.039216%,78.823529%);fill-opacity:1;" />
<path d="M 428.945312 316.304688 L 469.757812 316.304688 L 469.757812 357.117188 L 428.945312 357.117188 Z M 428.945312 316.304688 " style=" stroke:none;fill-rule:nonzero;fill:rgb(75.686275%,78.039216%,78.823529%);fill-opacity:1;" />
<path d="M 265.691406 316.304688 L 306.503906 316.304688 L 306.503906 357.117188 L 265.691406 357.117188 Z M 265.691406 316.304688 " style=" stroke:none;fill-rule:nonzero;fill:rgb(75.686275%,78.039216%,78.823529%);fill-opacity:1;" />
<path d="M 184.0625 316.304688 L 224.875 316.304688 L 224.875 357.117188 L 184.0625 357.117188 Z M 184.0625 316.304688 " style=" stroke:none;fill-rule:nonzero;fill:rgb(75.686275%,78.039216%,78.823529%);fill-opacity:1;" />
<path d="M 510.570312 408.136719 L 592.199219 326.507812 L 510.570312 326.507812 Z M 510.570312 408.136719 " style=" stroke:none;fill-rule:nonzero;fill:rgb(92.156863%,92.156863%,92.156863%);fill-opacity:1;" />
<path d="M 92.230469 142.847656 L 112.640625 142.847656 L 112.640625 163.253906 L 92.230469 163.253906 Z M 92.230469 142.847656 " style=" stroke:none;fill-rule:nonzero;fill:rgb(99.215686%,71.372549%,18.431373%);fill-opacity:1;" />
<path d="M 51.417969 142.847656 L 71.824219 142.847656 L 71.824219 163.253906 L 51.417969 163.253906 Z M 51.417969 142.847656 " style=" stroke:none;fill-rule:nonzero;fill:rgb(99.215686%,71.372549%,18.431373%);fill-opacity:1;" />
<path d="M 10.605469 142.847656 L 31.011719 142.847656 L 31.011719 163.253906 L 10.605469 163.253906 Z M 10.605469 142.847656 " style=" stroke:none;fill-rule:nonzero;fill:rgb(99.215686%,71.372549%,18.431373%);fill-opacity:1;" />
<path d="M 10.605469 183.660156 L 31.011719 183.660156 L 31.011719 204.066406 L 10.605469 204.066406 Z M 10.605469 183.660156 " style=" stroke:none;fill-rule:nonzero;fill:rgb(99.215686%,71.372549%,18.431373%);fill-opacity:1;" />
<path d="M 10.605469 224.472656 L 31.011719 224.472656 L 31.011719 244.882812 L 10.605469 244.882812 Z M 10.605469 224.472656 " style=" stroke:none;fill-rule:nonzero;fill:rgb(99.215686%,71.372549%,18.431373%);fill-opacity:1;" />
<path d="M 10.605469 265.289062 L 31.011719 265.289062 L 31.011719 285.695312 L 10.605469 285.695312 Z M 10.605469 265.289062 " style=" stroke:none;fill-rule:nonzero;fill:rgb(99.215686%,71.372549%,18.431373%);fill-opacity:1;" />
<path d="M 459.554688 561.1875 L 479.960938 561.1875 L 479.960938 581.59375 L 459.554688 581.59375 Z M 459.554688 561.1875 " style=" stroke:none;fill-rule:nonzero;fill:rgb(99.215686%,71.372549%,18.431373%);fill-opacity:1;" />
<path d="M 418.742188 561.1875 L 439.148438 561.1875 L 439.148438 581.59375 L 418.742188 581.59375 Z M 418.742188 561.1875 " style=" stroke:none;fill-rule:nonzero;fill:rgb(99.215686%,71.372549%,18.431373%);fill-opacity:1;" />
<path d="M 500.367188 561.1875 L 520.773438 561.1875 L 520.773438 581.59375 L 500.367188 581.59375 Z M 500.367188 561.1875 " style=" stroke:none;fill-rule:nonzero;fill:rgb(99.215686%,71.372549%,18.431373%);fill-opacity:1;" />
<path d="M 541.179688 561.1875 L 561.589844 561.1875 L 561.589844 581.59375 L 541.179688 581.59375 Z M 541.179688 561.1875 " style=" stroke:none;fill-rule:nonzero;fill:rgb(99.215686%,71.372549%,18.431373%);fill-opacity:1;" />
<path d="M 541.179688 520.371094 L 561.589844 520.371094 L 561.589844 540.78125 L 541.179688 540.78125 Z M 541.179688 520.371094 " style=" stroke:none;fill-rule:nonzero;fill:rgb(99.215686%,71.372549%,18.431373%);fill-opacity:1;" />
<path d="M 541.179688 479.558594 L 561.589844 479.558594 L 561.589844 499.964844 L 541.179688 499.964844 Z M 541.179688 479.558594 " style=" stroke:none;fill-rule:nonzero;fill:rgb(99.215686%,71.372549%,18.431373%);fill-opacity:1;" />
<path d="M 0.402344 397.933594 L 388.128906 397.933594 L 388.128906 602 L 0.402344 602 Z M 0.402344 397.933594 " style=" stroke:none;fill-rule:nonzero;fill:rgb(41.960784%,58.823529%,16.470588%);fill-opacity:1;" />
<path d="M 0.402344 357.117188 L 388.128906 357.117188 L 388.128906 561.1875 L 0.402344 561.1875 Z M 0.402344 357.117188 " style=" stroke:none;fill-rule:nonzero;fill:rgb(50.196078%,65.882353%,20.392157%);fill-opacity:1;" />
<path d="M 0.402344 316.304688 L 388.128906 316.304688 L 388.128906 520.371094 L 0.402344 520.371094 Z M 0.402344 316.304688 " style=" stroke:none;fill-rule:nonzero;fill:rgb(53.333333%,70.196078%,21.568627%);fill-opacity:1;" />
<path d="M 326.910156 479.558594 L 61.621094 479.558594 C 61.621094 468.285156 52.488281 459.152344 41.214844 459.152344 L 41.214844 377.527344 C 52.488281 377.527344 61.621094 368.394531 61.621094 357.117188 L 326.910156 357.117188 C 326.910156 368.394531 336.042969 377.527344 347.316406 377.527344 L 347.316406 459.152344 C 336.042969 459.152344 326.910156 468.285156 326.910156 479.558594 Z M 326.910156 479.558594 " style=" stroke:none;fill-rule:nonzero;fill:rgb(41.960784%,58.823529%,16.470588%);fill-opacity:1;" />
<path d="M 255.488281 418.339844 C 255.488281 452.148438 228.078125 479.558594 194.265625 479.558594 C 160.453125 479.558594 133.046875 452.148438 133.046875 418.339844 C 133.046875 384.527344 160.453125 357.117188 194.265625 357.117188 C 228.078125 357.117188 255.488281 384.527344 255.488281 418.339844 Z M 255.488281 418.339844 " style=" stroke:none;fill-rule:nonzero;fill:rgb(53.333333%,70.196078%,21.568627%);fill-opacity:1;" />
<path d="M 286.097656 408.136719 L 306.503906 408.136719 L 306.503906 428.542969 L 286.097656 428.542969 Z M 286.097656 408.136719 " style=" stroke:none;fill-rule:nonzero;fill:rgb(53.333333%,70.196078%,21.568627%);fill-opacity:1;" />
<path d="M 82.027344 408.136719 L 102.4375 408.136719 L 102.4375 428.542969 L 82.027344 428.542969 Z M 82.027344 408.136719 " style=" stroke:none;fill-rule:nonzero;fill:rgb(53.333333%,70.196078%,21.568627%);fill-opacity:1;" />
<path d="M 173.859375 316.304688 L 214.671875 316.304688 L 214.671875 602 L 173.859375 602 Z M 173.859375 316.304688 " style=" stroke:none;fill-rule:nonzero;fill:rgb(99.215686%,71.372549%,18.431373%);fill-opacity:1;" />
<path d="M 173.859375 520.371094 L 214.671875 520.371094 L 214.671875 602 L 173.859375 602 Z M 173.859375 520.371094 " style=" stroke:none;fill-rule:nonzero;fill:rgb(100%,63.529412%,18.823529%);fill-opacity:1;" />
</g>
</svg>