<svg xmlns="http://www.w3.org/2000/svg" height="591pt" version="1.1" viewBox="1 -10 591.59999 591" width="591pt">
<g id="surface1">
<path d="M 163.308594 163.617188 L 592 163.617188 L 592 428.996094 L 163.308594 428.996094 Z M 163.308594 163.617188 " style=" stroke:none;fill-rule:nonzero;fill:rgb(41.960784%,58.823529%,16.470588%);fill-opacity:1;" />
<path d="M 163.308594 122.789062 L 592 122.789062 L 592 388.167969 L 163.308594 388.167969 Z M 163.308594 122.789062 " style=" stroke:none;fill-rule:nonzero;fill:rgb(38.431373%,54.117647%,15.294118%);fill-opacity:1;" />
<path d="M 163.308594 81.960938 L 592 81.960938 L 592 347.339844 L 163.308594 347.339844 Z M 163.308594 81.960938 " style=" stroke:none;fill-rule:nonzero;fill:rgb(41.960784%,58.823529%,16.470588%);fill-opacity:1;" />
<path d="M 163.308594 81.960938 L 592 81.960938 L 592 306.515625 L 163.308594 306.515625 Z M 163.308594 81.960938 " style=" stroke:none;fill-rule:nonzero;fill:rgb(50.196078%,65.882353%,20.392157%);fill-opacity:1;" />
<path d="M 510.34375 306.515625 L 163.308594 306.515625 L 163.308594 81.960938 L 551.171875 81.960938 L 551.171875 265.6875 C 551.171875 288.234375 532.890625 306.515625 510.34375 306.515625 Z M 510.34375 306.515625 " style=" stroke:none;fill-rule:nonzero;fill:rgb(53.333333%,70.196078%,21.568627%);fill-opacity:1;" />
<path d="M 514.722656 265.6875 L 234.757812 265.6875 C 234.757812 248.773438 221.050781 235.066406 204.136719 235.066406 L 204.136719 153.410156 C 221.050781 153.410156 234.757812 139.703125 234.757812 122.789062 L 551.171875 122.789062 L 551.171875 229.238281 C 551.171875 249.363281 534.851562 265.6875 514.722656 265.6875 Z M 514.722656 265.6875 " style=" stroke:none;fill-rule:nonzero;fill:rgb(41.960784%,58.823529%,16.470588%);fill-opacity:1;" />
<path d="M 510.34375 0.308594 L 510.34375 224.859375 C 532.890625 224.859375 551.171875 243.140625 551.171875 265.6875 L 551.171875 41.132812 C 551.171875 18.585938 532.890625 0.308594 510.34375 0.308594 Z M 510.34375 0.308594 " style=" stroke:none;fill-rule:nonzero;fill:rgb(60%,78.823529%,24.313725%);fill-opacity:1;" />
<path d="M 244.964844 184.03125 L 265.378906 184.03125 L 265.378906 204.445312 L 244.964844 204.445312 Z M 244.964844 184.03125 " style=" stroke:none;fill-rule:nonzero;fill:rgb(53.333333%,70.196078%,21.568627%);fill-opacity:1;" />
<path d="M 449.101562 194.238281 C 449.101562 233.699219 417.113281 265.6875 377.65625 265.6875 C 338.195312 265.6875 306.207031 233.699219 306.207031 194.238281 C 306.207031 154.777344 338.195312 122.789062 377.65625 122.789062 C 417.113281 122.789062 449.101562 154.777344 449.101562 194.238281 Z M 449.101562 194.238281 " style=" stroke:none;fill-rule:nonzero;fill:rgb(53.333333%,70.196078%,21.568627%);fill-opacity:1;" />
<path d="M 347.035156 81.960938 L 408.277344 81.960938 L 408.277344 428.996094 L 347.035156 428.996094 Z M 347.035156 81.960938 " style=" stroke:none;fill-rule:nonzero;fill:rgb(99.215686%,71.372549%,18.431373%);fill-opacity:1;" />
<path d="M 347.035156 306.515625 L 408.277344 306.515625 L 408.277344 428.996094 L 347.035156 428.996094 Z M 347.035156 306.515625 " style=" stroke:none;fill-rule:nonzero;fill:rgb(94.117647%,61.960784%,14.901961%);fill-opacity:1;" />
<path d="M 0 531.066406 L 0 347.339844 C 0 324.792969 18.28125 306.515625 40.828125 306.515625 L 367.449219 306.515625 C 389.996094 306.515625 408.277344 324.792969 408.277344 347.339844 L 408.277344 531.066406 C 408.277344 553.613281 389.996094 571.894531 367.449219 571.894531 L 40.828125 571.894531 C 18.28125 571.894531 0 553.613281 0 531.066406 Z M 0 531.066406 " style=" stroke:none;fill-rule:nonzero;fill:rgb(26.27451%,59.607843%,81.960784%);fill-opacity:1;" />
<path d="M 367.449219 306.515625 L 326.621094 306.515625 L 61.242188 571.894531 L 367.449219 571.894531 C 389.996094 571.894531 408.277344 553.613281 408.277344 531.066406 L 408.277344 347.339844 C 408.277344 324.792969 389.996094 306.515625 367.449219 306.515625 Z M 367.449219 306.515625 " style=" stroke:none;fill-rule:nonzero;fill:rgb(24.313725%,54.901961%,78.039216%);fill-opacity:1;" />
<path d="M 40.828125 347.339844 L 102.070312 347.339844 L 102.070312 408.582031 L 40.828125 408.582031 Z M 40.828125 347.339844 " style=" stroke:none;fill-rule:nonzero;fill:rgb(99.215686%,71.372549%,18.431373%);fill-opacity:1;" />
<path d="M 40.828125 439.203125 L 81.65625 439.203125 L 81.65625 459.617188 L 40.828125 459.617188 Z M 40.828125 439.203125 " style=" stroke:none;fill-rule:nonzero;fill:rgb(36.862745%,70.196078%,81.960784%);fill-opacity:1;" />
<path d="M 40.828125 480.03125 L 81.65625 480.03125 L 81.65625 500.445312 L 40.828125 500.445312 Z M 40.828125 480.03125 " style=" stroke:none;fill-rule:nonzero;fill:rgb(36.862745%,70.196078%,81.960784%);fill-opacity:1;" />
<path d="M 224.550781 480.03125 L 265.378906 480.03125 L 265.378906 500.445312 L 224.550781 500.445312 Z M 224.550781 480.03125 " style=" stroke:none;fill-rule:nonzero;fill:rgb(36.862745%,70.196078%,81.960784%);fill-opacity:1;" />
<path d="M 102.070312 439.203125 L 142.898438 439.203125 L 142.898438 459.617188 L 102.070312 459.617188 Z M 102.070312 439.203125 " style=" stroke:none;fill-rule:nonzero;fill:rgb(36.862745%,70.196078%,81.960784%);fill-opacity:1;" />
<path d="M 163.308594 439.203125 L 204.136719 439.203125 L 204.136719 459.617188 L 163.308594 459.617188 Z M 163.308594 439.203125 " style=" stroke:none;fill-rule:nonzero;fill:rgb(36.862745%,70.196078%,81.960784%);fill-opacity:1;" />
<path d="M 224.550781 439.203125 L 265.378906 439.203125 L 265.378906 459.617188 L 224.550781 459.617188 Z M 224.550781 439.203125 " style=" stroke:none;fill-rule:nonzero;fill:rgb(36.862745%,70.196078%,81.960784%);fill-opacity:1;" />
<path d="M 285.792969 439.203125 L 326.621094 439.203125 L 326.621094 459.617188 L 285.792969 459.617188 Z M 285.792969 439.203125 " style=" stroke:none;fill-rule:nonzero;fill:rgb(36.862745%,70.196078%,81.960784%);fill-opacity:1;" />
<path d="M 347.035156 347.339844 L 367.449219 347.339844 L 367.449219 367.753906 L 347.035156 367.753906 Z M 347.035156 347.339844 " style=" stroke:none;fill-rule:nonzero;fill:rgb(36.862745%,70.196078%,81.960784%);fill-opacity:1;" />
<path d="M 306.207031 347.339844 L 326.621094 347.339844 L 326.621094 367.753906 L 306.207031 367.753906 Z M 306.207031 347.339844 " style=" stroke:none;fill-rule:nonzero;fill:rgb(36.862745%,70.196078%,81.960784%);fill-opacity:1;" />
<path d="M 265.378906 347.339844 L 285.792969 347.339844 L 285.792969 367.753906 L 265.378906 367.753906 Z M 265.378906 347.339844 " style=" stroke:none;fill-rule:nonzero;fill:rgb(36.862745%,70.196078%,81.960784%);fill-opacity:1;" />
<path d="M 224.550781 347.339844 L 244.964844 347.339844 L 244.964844 367.753906 L 224.550781 367.753906 Z M 224.550781 347.339844 " style=" stroke:none;fill-rule:nonzero;fill:rgb(36.862745%,70.196078%,81.960784%);fill-opacity:1;" />
<path d="M 296 490.238281 L 367.449219 490.238281 L 367.449219 531.066406 L 296 531.066406 Z M 296 490.238281 " style=" stroke:none;fill-rule:nonzero;fill:rgb(85.490196%,86.666667%,87.45098%);fill-opacity:1;" />
<path d="M 40.828125 393.273438 L 40.828125 408.582031 L 102.070312 408.582031 L 102.070312 347.339844 L 86.757812 347.339844 Z M 40.828125 393.273438 " style=" stroke:none;fill-rule:nonzero;fill:rgb(100%,63.529412%,18.823529%);fill-opacity:1;" />
</g>
</svg>