<svg xmlns="http://www.w3.org/2000/svg" height="591pt" version="1.1" viewBox="1 1 591 591.60001" width="591pt">
<g id="surface1">
<path d="M 418.78125 51.035156 L 592.300781 153.101562 L 592.300781 102.070312 L 418.78125 0 L 245.265625 102.070312 L 245.265625 153.101562 Z M 418.78125 51.035156 " style=" stroke:none;fill-rule:nonzero;fill:rgb(87.058824%,29.803922%,23.529412%);fill-opacity:1;" />
<path d="M 286.09375 129.085938 L 286.09375 306.207031 L 551.472656 306.207031 L 551.472656 129.085938 L 418.78125 51.035156 Z M 286.09375 129.085938 " style=" stroke:none;fill-rule:nonzero;fill:rgb(85.490196%,86.666667%,87.45098%);fill-opacity:1;" />
<path d="M 551.472656 0 L 510.644531 0 L 510.644531 54.035156 L 551.472656 78.050781 Z M 551.472656 0 " style=" stroke:none;fill-rule:nonzero;fill:rgb(78.823529%,27.058824%,21.176471%);fill-opacity:1;" />
<path d="M 449.402344 163.308594 L 510.644531 163.308594 L 510.644531 306.207031 L 449.402344 306.207031 Z M 449.402344 163.308594 " style=" stroke:none;fill-rule:nonzero;fill:rgb(52.941176%,32.54902%,22.352941%);fill-opacity:1;" />
<path d="M 255.472656 306.207031 L 582.09375 306.207031 L 582.09375 347.035156 L 255.472656 347.035156 Z M 255.472656 306.207031 " style=" stroke:none;fill-rule:nonzero;fill:rgb(85.490196%,86.666667%,87.45098%);fill-opacity:1;" />
<path d="M 326.921875 163.308594 L 408.574219 163.308594 L 408.574219 224.550781 L 326.921875 224.550781 Z M 326.921875 163.308594 " style=" stroke:none;fill-rule:nonzero;fill:rgb(52.941176%,80.784314%,85.098039%);fill-opacity:1;" />
<path d="M 357.542969 163.308594 L 377.957031 163.308594 L 377.957031 224.550781 L 357.542969 224.550781 Z M 357.542969 163.308594 " style=" stroke:none;fill-rule:nonzero;fill:rgb(36.862745%,70.196078%,81.960784%);fill-opacity:1;" />
<path d="M 143.195312 132.691406 L 163.609375 132.691406 L 163.609375 153.101562 L 143.195312 153.101562 Z M 143.195312 132.691406 " style=" stroke:none;fill-rule:nonzero;fill:rgb(99.215686%,71.372549%,18.431373%);fill-opacity:1;" />
<path d="M 184.023438 132.691406 L 204.4375 132.691406 L 204.4375 153.101562 L 184.023438 153.101562 Z M 184.023438 132.691406 " style=" stroke:none;fill-rule:nonzero;fill:rgb(99.215686%,71.372549%,18.431373%);fill-opacity:1;" />
<path d="M 102.367188 132.691406 L 122.78125 132.691406 L 122.78125 153.101562 L 102.367188 153.101562 Z M 102.367188 132.691406 " style=" stroke:none;fill-rule:nonzero;fill:rgb(99.215686%,71.372549%,18.431373%);fill-opacity:1;" />
<path d="M 61.542969 132.691406 L 81.957031 132.691406 L 81.957031 153.101562 L 61.542969 153.101562 Z M 61.542969 132.691406 " style=" stroke:none;fill-rule:nonzero;fill:rgb(99.215686%,71.372549%,18.431373%);fill-opacity:1;" />
<path d="M 61.542969 173.515625 L 81.957031 173.515625 L 81.957031 193.929688 L 61.542969 193.929688 Z M 61.542969 173.515625 " style=" stroke:none;fill-rule:nonzero;fill:rgb(99.215686%,71.372549%,18.431373%);fill-opacity:1;" />
<path d="M 61.542969 214.34375 L 81.957031 214.34375 L 81.957031 234.757812 L 61.542969 234.757812 Z M 61.542969 214.34375 " style=" stroke:none;fill-rule:nonzero;fill:rgb(99.215686%,71.372549%,18.431373%);fill-opacity:1;" />
<path d="M 61.542969 255.171875 L 81.957031 255.171875 L 81.957031 275.585938 L 61.542969 275.585938 Z M 61.542969 255.171875 " style=" stroke:none;fill-rule:nonzero;fill:rgb(99.215686%,71.372549%,18.431373%);fill-opacity:1;" />
<path d="M 459.609375 500.136719 L 480.023438 500.136719 L 480.023438 520.550781 L 459.609375 520.550781 Z M 459.609375 500.136719 " style=" stroke:none;fill-rule:nonzero;fill:rgb(99.215686%,71.372549%,18.431373%);fill-opacity:1;" />
<path d="M 418.78125 500.136719 L 439.195312 500.136719 L 439.195312 520.550781 L 418.78125 520.550781 Z M 418.78125 500.136719 " style=" stroke:none;fill-rule:nonzero;fill:rgb(99.215686%,71.372549%,18.431373%);fill-opacity:1;" />
<path d="M 500.4375 500.136719 L 520.851562 500.136719 L 520.851562 520.550781 L 500.4375 520.550781 Z M 500.4375 500.136719 " style=" stroke:none;fill-rule:nonzero;fill:rgb(99.215686%,71.372549%,18.431373%);fill-opacity:1;" />
<path d="M 541.265625 500.136719 L 561.679688 500.136719 L 561.679688 520.550781 L 541.265625 520.550781 Z M 541.265625 500.136719 " style=" stroke:none;fill-rule:nonzero;fill:rgb(99.215686%,71.372549%,18.431373%);fill-opacity:1;" />
<path d="M 541.265625 459.308594 L 561.679688 459.308594 L 561.679688 479.722656 L 541.265625 479.722656 Z M 541.265625 459.308594 " style=" stroke:none;fill-rule:nonzero;fill:rgb(99.215686%,71.372549%,18.431373%);fill-opacity:1;" />
<path d="M 541.265625 418.484375 L 561.679688 418.484375 L 561.679688 438.898438 L 541.265625 438.898438 Z M 541.265625 418.484375 " style=" stroke:none;fill-rule:nonzero;fill:rgb(99.215686%,71.372549%,18.431373%);fill-opacity:1;" />
<path d="M 541.265625 377.65625 L 561.679688 377.65625 L 561.679688 398.070312 L 541.265625 398.070312 Z M 541.265625 377.65625 " style=" stroke:none;fill-rule:nonzero;fill:rgb(99.215686%,71.372549%,18.431373%);fill-opacity:1;" />
<path d="M 0.300781 387.863281 L 388.160156 387.863281 L 388.160156 592 L 0.300781 592 Z M 0.300781 387.863281 " style=" stroke:none;fill-rule:nonzero;fill:rgb(38.431373%,54.117647%,15.294118%);fill-opacity:1;" />
<path d="M 0.300781 347.035156 L 388.160156 347.035156 L 388.160156 551.171875 L 0.300781 551.171875 Z M 0.300781 347.035156 " style=" stroke:none;fill-rule:nonzero;fill:rgb(41.960784%,58.823529%,16.470588%);fill-opacity:1;" />
<path d="M 0.300781 306.207031 L 388.160156 306.207031 L 388.160156 510.34375 L 0.300781 510.34375 Z M 0.300781 306.207031 " style=" stroke:none;fill-rule:nonzero;fill:rgb(50.196078%,65.882353%,20.392157%);fill-opacity:1;" />
<path d="M 0.300781 265.378906 L 388.160156 265.378906 L 388.160156 469.515625 L 0.300781 469.515625 Z M 0.300781 265.378906 " style=" stroke:none;fill-rule:nonzero;fill:rgb(53.333333%,70.196078%,21.568627%);fill-opacity:1;" />
<path d="M 326.921875 428.691406 L 61.542969 428.691406 C 61.542969 417.410156 52.40625 408.277344 41.128906 408.277344 L 41.128906 326.621094 C 52.40625 326.621094 61.542969 317.484375 61.542969 306.207031 L 326.921875 306.207031 C 326.921875 317.484375 336.054688 326.621094 347.335938 326.621094 L 347.335938 408.277344 C 336.054688 408.277344 326.921875 417.410156 326.921875 428.691406 Z M 326.921875 428.691406 " style=" stroke:none;fill-rule:nonzero;fill:rgb(41.960784%,58.823529%,16.470588%);fill-opacity:1;" />
<path d="M 255.472656 367.449219 C 255.472656 401.269531 228.054688 428.691406 194.230469 428.691406 C 160.410156 428.691406 132.988281 401.269531 132.988281 367.449219 C 132.988281 333.625 160.410156 306.207031 194.230469 306.207031 C 228.054688 306.207031 255.472656 333.625 255.472656 367.449219 Z M 255.472656 367.449219 " style=" stroke:none;fill-rule:nonzero;fill:rgb(53.333333%,70.196078%,21.568627%);fill-opacity:1;" />
<path d="M 286.09375 357.242188 L 306.507812 357.242188 L 306.507812 377.65625 L 286.09375 377.65625 Z M 286.09375 357.242188 " style=" stroke:none;fill-rule:nonzero;fill:rgb(53.333333%,70.196078%,21.568627%);fill-opacity:1;" />
<path d="M 81.957031 357.242188 L 102.367188 357.242188 L 102.367188 377.65625 L 81.957031 377.65625 Z M 81.957031 357.242188 " style=" stroke:none;fill-rule:nonzero;fill:rgb(53.333333%,70.196078%,21.568627%);fill-opacity:1;" />
<path d="M 173.816406 265.378906 L 214.644531 265.378906 L 214.644531 592 L 173.816406 592 Z M 173.816406 265.378906 " style=" stroke:none;fill-rule:nonzero;fill:rgb(99.215686%,71.372549%,18.431373%);fill-opacity:1;" />
<path d="M 173.816406 469.515625 L 214.644531 469.515625 L 214.644531 592 L 173.816406 592 Z M 173.816406 469.515625 " style=" stroke:none;fill-rule:nonzero;fill:rgb(100%,63.529412%,18.823529%);fill-opacity:1;" />
<path d="M 449.402344 244.964844 L 449.402344 306.207031 L 510.644531 306.207031 L 510.644531 183.722656 Z M 449.402344 244.964844 " style=" stroke:none;fill-rule:nonzero;fill:rgb(45.882353%,27.45098%,18.039216%);fill-opacity:1;" />
</g>
</svg>