<svg xmlns="http://www.w3.org/2000/svg" height="591pt" version="1.1" viewBox="-107 1 591 591.6" width="591pt">
<g id="surface1">
<path d="M 0.371094 81.65625 L 286.164062 81.65625 L 286.164062 551.171875 L 0.371094 551.171875 Z M 0.371094 81.65625 " style=" stroke:none;fill-rule:nonzero;fill:rgb(38.431373%,54.117647%,15.294118%);fill-opacity:1;" />
<path d="M 0.371094 40.828125 L 286.164062 40.828125 L 286.164062 510.34375 L 0.371094 510.34375 Z M 0.371094 40.828125 " style=" stroke:none;fill-rule:nonzero;fill:rgb(41.960784%,58.823529%,16.470588%);fill-opacity:1;" />
<path d="M 0.371094 0 L 286.164062 0 L 286.164062 469.515625 L 0.371094 469.515625 Z M 0.371094 0 " style=" stroke:none;fill-rule:nonzero;fill:rgb(53.333333%,70.196078%,21.568627%);fill-opacity:1;" />
<path d="M 0.371094 387.863281 L 0.371094 469.515625 L 286.164062 469.515625 L 286.164062 102.070312 Z M 0.371094 387.863281 " style=" stroke:none;fill-rule:nonzero;fill:rgb(50.196078%,65.882353%,20.392157%);fill-opacity:1;" />
<path d="M 214.71875 428.691406 L 71.820312 428.691406 C 71.820312 411.777344 58.113281 398.070312 41.199219 398.070312 L 41.199219 71.449219 C 58.113281 71.449219 71.820312 57.738281 71.820312 40.828125 L 214.71875 40.828125 C 214.71875 57.738281 228.425781 71.449219 245.339844 71.449219 L 245.339844 398.070312 C 228.425781 398.070312 214.71875 411.777344 214.71875 428.691406 Z M 214.71875 428.691406 " style=" stroke:none;fill-rule:nonzero;fill:rgb(41.960784%,58.823529%,16.470588%);fill-opacity:1;" />
<path d="M 163.683594 102.070312 C 163.683594 113.34375 154.542969 122.484375 143.269531 122.484375 C 131.996094 122.484375 122.855469 113.34375 122.855469 102.070312 C 122.855469 90.792969 131.996094 81.65625 143.269531 81.65625 C 154.542969 81.65625 163.683594 90.792969 163.683594 102.070312 Z M 163.683594 102.070312 " style=" stroke:none;fill-rule:nonzero;fill:rgb(53.333333%,70.196078%,21.568627%);fill-opacity:1;" />
<path d="M 163.683594 367.449219 C 163.683594 378.722656 154.542969 387.863281 143.269531 387.863281 C 131.996094 387.863281 122.855469 378.722656 122.855469 367.449219 C 122.855469 356.175781 131.996094 347.035156 143.269531 347.035156 C 154.542969 347.035156 163.683594 356.175781 163.683594 367.449219 Z M 163.683594 367.449219 " style=" stroke:none;fill-rule:nonzero;fill:rgb(53.333333%,70.196078%,21.568627%);fill-opacity:1;" />
<path d="M 245.339844 234.757812 C 245.339844 195.296875 199.640625 163.308594 143.269531 163.308594 C 86.898438 163.308594 41.199219 195.296875 41.199219 234.757812 C 41.199219 274.21875 86.898438 306.207031 143.269531 306.207031 C 199.640625 306.207031 245.339844 274.21875 245.339844 234.757812 Z M 245.339844 234.757812 " style=" stroke:none;fill-rule:nonzero;fill:rgb(53.333333%,70.196078%,21.568627%);fill-opacity:1;" />
<path d="M 352.777344 351.730469 L 286.164062 275.585938 L 286.164062 408.277344 L 219.820312 341.929688 C 205.5 328.070312 182.648438 328.4375 168.785156 342.757812 C 155.242188 356.75 155.242188 378.972656 168.785156 392.964844 L 255.542969 479.722656 L 249.503906 491.800781 C 233.867188 523.074219 232.355469 559.542969 245.339844 592 L 378.027344 592 L 378.027344 418.933594 C 378.027344 394.210938 369.054688 370.335938 352.777344 351.730469 Z M 352.777344 351.730469 " style=" stroke:none;fill-rule:nonzero;fill:rgb(100%,71.764706%,50.980392%);fill-opacity:1;" />
<path d="M 316.785156 449.101562 C 314.082031 449.101562 311.480469 448.03125 309.570312 446.113281 L 278.949219 415.492188 C 275.03125 411.441406 275.140625 404.980469 279.195312 401.058594 C 283.15625 397.242188 289.421875 397.242188 293.382812 401.058594 L 324.003906 431.679688 C 327.984375 435.671875 327.984375 442.132812 324.003906 446.113281 C 322.082031 448.03125 319.492188 449.101562 316.785156 449.101562 Z M 316.785156 449.101562 " style=" stroke:none;fill-rule:nonzero;fill:rgb(94.901961%,64.313725%,43.529412%);fill-opacity:1;" />
</g>
</svg>