<svg xmlns="http://www.w3.org/2000/svg" height="591pt" version="1.1" viewBox="1 0 591.60425 591" width="591pt">
<g id="surface1">
<path d="M 193.933594 184.023438 L 193.933594 347.335938 C 233.414062 347.335938 271.546875 361.664062 301.257812 387.660156 L 336.828125 418.78125 L 372.398438 387.660156 C 402.113281 361.664062 440.253906 347.335938 479.726562 347.335938 L 479.726562 184.023438 Z M 193.933594 184.023438 " style=" stroke:none;fill-rule:nonzero;fill:rgb(24.313725%,54.901961%,78.039216%);fill-opacity:1;" />
<path d="M 418.484375 485.125 C 418.484375 504.855469 402.488281 520.851562 382.761719 520.851562 C 363.03125 520.851562 347.035156 504.855469 347.035156 485.125 C 347.035156 465.398438 363.03125 449.402344 382.761719 449.402344 C 402.488281 449.402344 418.484375 465.398438 418.484375 485.125 Z M 418.484375 485.125 " style=" stroke:none;fill-rule:nonzero;fill:rgb(99.215686%,71.372549%,18.431373%);fill-opacity:1;" />
<path d="M 520.550781 556.574219 C 520.550781 576.304688 504.558594 592.296875 484.828125 592.296875 C 465.097656 592.296875 449.105469 576.304688 449.105469 556.574219 C 449.105469 536.84375 465.097656 520.851562 484.828125 520.851562 C 504.558594 520.851562 520.550781 536.84375 520.550781 556.574219 Z M 520.550781 556.574219 " style=" stroke:none;fill-rule:nonzero;fill:rgb(99.215686%,71.372549%,18.431373%);fill-opacity:1;" />
<path d="M 40.832031 224.851562 C 37.339844 203.917969 20.9375 187.515625 0.00390625 184.023438 C 20.9375 180.535156 37.339844 164.132812 40.832031 143.199219 C 44.320312 164.132812 60.726562 180.535156 81.660156 184.023438 C 60.734375 187.515625 44.332031 203.917969 40.832031 224.851562 Z M 40.832031 224.851562 " style=" stroke:none;fill-rule:nonzero;fill:rgb(99.215686%,71.372549%,18.431373%);fill-opacity:1;" />
<path d="M 336.828125 0.300781 L 81.660156 123.386719 L 336.828125 265.679688 L 592 122.785156 Z M 336.828125 0.300781 " style=" stroke:none;fill-rule:nonzero;fill:rgb(26.27451%,59.607843%,81.960784%);fill-opacity:1;" />
<path d="M 561.378906 255.472656 L 540.964844 255.472656 L 540.964844 152.382812 L 342.78125 131.601562 L 344.914062 111.300781 L 552.195312 133.042969 C 557.429688 133.574219 561.410156 137.992188 561.378906 143.25 Z M 561.378906 255.472656 " style=" stroke:none;fill-rule:nonzero;fill:rgb(7.058824%,37.647059%,60%);fill-opacity:1;" />
<path d="M 540.964844 255.472656 L 520.550781 347.335938 L 581.792969 347.335938 L 561.378906 255.472656 Z M 540.964844 255.472656 " style=" stroke:none;fill-rule:nonzero;fill:rgb(99.215686%,71.372549%,18.431373%);fill-opacity:1;" />
<path d="M 530.757812 444.300781 C 530.757812 464.027344 514.765625 480.023438 495.035156 480.023438 C 475.304688 480.023438 459.3125 464.027344 459.3125 444.300781 C 459.3125 424.570312 475.304688 408.574219 495.035156 408.574219 C 514.765625 408.574219 530.757812 424.570312 530.757812 444.300781 Z M 530.757812 444.300781 " style=" stroke:none;fill-rule:nonzero;fill:rgb(100%,63.529412%,18.823529%);fill-opacity:1;" />
<path d="M 320.285156 555.339844 L 296.003906 531.058594 L 296.003906 439.195312 C 296.003906 380.667969 257.644531 329.0625 201.609375 312.171875 L 234.761719 248.429688 L 224.554688 241.878906 C 211.828125 233.785156 195.820312 232.824219 182.214844 239.347656 C 170.273438 245.050781 156.394531 245.050781 144.449219 239.347656 C 130.835938 232.8125 114.808594 233.773438 102.074219 241.878906 L 91.867188 248.429688 L 125.019531 312.171875 C 68.992188 329.0625 30.636719 380.667969 30.625 439.195312 L 30.625 531.058594 L 6.34375 555.339844 C -2.109375 563.792969 -2.121094 577.5 6.34375 585.960938 C 10.40625 590.023438 15.917969 592.296875 21.652344 592.296875 L 304.972656 592.296875 C 316.925781 592.296875 326.621094 582.613281 326.621094 570.648438 C 326.632812 564.914062 324.347656 559.402344 320.285156 555.339844 Z M 320.285156 555.339844 " style=" stroke:none;fill-rule:nonzero;fill:rgb(53.333333%,70.196078%,21.568627%);fill-opacity:1;" />
<path d="M 320.285156 555.339844 L 296.003906 531.058594 L 296.003906 439.195312 C 296.035156 399.796875 278.507812 362.441406 248.191406 337.28125 C 193.269531 492.792969 86.761719 561.984375 16.691406 591.675781 C 18.316406 592.074219 19.980469 592.289062 21.652344 592.296875 L 304.972656 592.296875 C 316.925781 592.296875 326.621094 582.613281 326.621094 570.648438 C 326.632812 564.914062 324.347656 559.402344 320.285156 555.339844 Z M 320.285156 555.339844 " style=" stroke:none;fill-rule:nonzero;fill:rgb(50.196078%,65.882353%,20.392157%);fill-opacity:1;" />
<path d="M 173.519531 439.195312 L 153.105469 439.195312 C 147.472656 439.195312 142.898438 434.621094 142.898438 428.988281 C 142.898438 423.355469 147.472656 418.78125 153.105469 418.78125 L 193.933594 418.78125 L 193.933594 398.367188 L 173.519531 398.367188 L 173.519531 377.953125 L 153.105469 377.953125 L 153.105469 398.367188 C 136.195312 398.367188 122.484375 412.078125 122.484375 428.988281 C 122.484375 445.902344 136.195312 459.609375 153.105469 459.609375 L 173.519531 459.609375 C 179.152344 459.609375 183.726562 464.183594 183.726562 469.816406 C 183.726562 475.449219 179.152344 480.023438 173.519531 480.023438 L 132.691406 480.023438 L 132.691406 500.4375 L 153.105469 500.4375 L 153.105469 520.851562 L 173.519531 520.851562 L 173.519531 500.4375 C 190.433594 500.4375 204.140625 486.726562 204.140625 469.816406 C 204.140625 452.902344 190.433594 439.195312 173.519531 439.195312 Z M 173.519531 439.195312 " style=" stroke:none;fill-rule:nonzero;fill:rgb(100%,100%,100%);fill-opacity:1;" />
<path d="M 357.242188 122.785156 C 357.242188 134.058594 348.105469 143.199219 336.828125 143.199219 C 325.554688 143.199219 316.414062 134.058594 316.414062 122.785156 C 316.414062 111.511719 325.554688 102.371094 336.828125 102.371094 C 348.105469 102.371094 357.242188 111.511719 357.242188 122.785156 Z M 357.242188 122.785156 " style=" stroke:none;fill-rule:nonzero;fill:rgb(85.490196%,86.666667%,87.45098%);fill-opacity:1;" />
</g>
</svg>